{"glyphs":{"0":{"ha":872,"x_min":86,"x_max":822,"o":"m 106 504 q 248 874 147 740 q 543 1007 349 1007 q 758 926 693 1007 q 822 699 822 844 q 803 504 822 613 q 660 133 761 267 q 365 0 560 0 q 151 81 215 0 q 86 310 86 163 q 106 504 86 396 m 679 504 q 699 686 699 618 q 659 838 699 785 q 524 892 619 892 q 371 841 429 892 q 281 707 313 790 q 229 504 250 624 q 210 321 210 390 q 249 169 210 222 q 385 115 289 115 q 538 166 479 115 q 626 300 596 217 q 679 504 657 383 z "},"1":{"ha":444,"x_min":115,"x_max":417,"o":"m 135 869 l 156 985 l 417 985 l 243 0 l 115 0 l 268 869 l 135 869 z "},"2":{"ha":799,"x_min":1,"x_max":772,"o":"m 18 101 q 336 334 219 244 q 538 522 453 424 q 640 713 624 619 q 644 763 644 738 q 607 865 644 828 q 488 903 569 903 q 332 844 394 903 q 247 686 269 785 l 125 686 q 263 926 158 842 q 507 1011 367 1011 q 702 950 632 1011 q 772 781 772 889 q 767 718 772 747 q 659 499 747 607 q 468 308 571 390 q 211 117 365 226 l 689 117 l 671 11 l 1 11 l 18 101 z "},"3":{"ha":818,"x_min":47,"x_max":783,"o":"m 144 751 q 279 951 176 879 q 524 1024 382 1024 q 717 966 650 1024 q 783 814 783 908 q 779 765 783 790 q 704 617 764 679 q 561 536 644 554 l 561 529 q 676 460 635 511 q 717 329 717 410 q 711 271 717 313 q 592 71 689 149 q 344 -7 496 -7 q 128 60 208 -7 q 47 250 47 126 q 49 289 47 275 l 171 289 q 215 153 165 206 q 361 100 264 100 q 518 151 457 100 q 593 282 579 201 q 597 324 597 306 q 535 441 597 404 q 347 478 472 478 l 314 478 l 333 583 l 368 583 q 568 626 496 585 q 656 753 640 667 q 658 786 658 775 q 618 881 658 846 q 500 915 578 915 q 353 871 414 915 q 268 751 292 826 l 144 751 z "},"4":{"ha":874,"x_min":24,"x_max":822,"o":"m 24 224 l 40 319 l 647 994 l 799 994 l 683 333 l 822 333 l 801 224 l 663 224 l 624 0 l 499 0 l 539 224 l 24 224 m 657 863 l 190 333 l 564 333 l 657 863 z "},"5":{"ha":872,"x_min":76,"x_max":833,"o":"m 815 894 l 326 894 l 271 578 q 378 651 311 622 q 517 679 444 679 q 724 607 660 679 q 789 424 789 535 q 782 347 789 389 q 649 95 754 193 q 376 -3 544 -3 q 153 72 231 -3 q 79 272 76 147 l 201 272 q 257 149 206 193 q 396 104 308 104 q 574 170 506 104 q 661 344 642 236 q 667 404 667 372 q 620 528 667 485 q 481 571 574 571 q 345 535 406 571 q 249 439 285 500 l 129 439 l 229 1006 l 833 1006 l 815 894 z "},"6":{"ha":882,"x_min":101,"x_max":833,"o":"m 710 765 q 669 880 707 840 q 547 919 631 919 q 346 824 424 919 q 231 511 268 729 q 357 624 275 583 q 531 665 439 665 q 722 599 653 665 q 792 413 792 533 q 785 331 792 367 q 718 161 768 236 q 586 42 668 86 q 397 -3 504 -3 q 169 77 238 -3 q 101 307 101 157 q 122 515 101 403 q 568 1025 213 1025 q 769 951 704 1025 q 826 765 833 878 l 710 765 m 485 558 q 368 534 425 558 q 270 460 311 510 q 217 340 229 411 q 211 286 211 301 q 261 153 211 203 q 410 103 311 103 q 576 163 507 103 q 663 326 644 224 q 668 388 668 354 q 622 513 668 468 q 485 558 575 558 z "},"7":{"ha":758,"x_min":108,"x_max":811,"o":"m 793 906 l 247 0 l 108 0 l 668 894 l 133 894 l 151 1001 l 811 1001 l 793 906 z "},"8":{"ha":876,"x_min":56,"x_max":836,"o":"m 293 533 q 200 606 232 560 q 168 714 168 651 q 172 763 168 738 q 235 899 186 839 q 364 995 283 960 q 550 1031 444 1031 q 763 969 689 1031 q 836 811 836 908 q 832 763 836 788 q 764 622 818 682 q 629 533 710 561 q 739 458 700 510 q 778 329 778 406 q 774 276 778 304 q 700 115 757 183 q 556 9 643 46 q 363 -28 468 -28 q 138 38 221 -28 q 56 218 56 104 q 61 276 56 249 q 140 440 78 374 q 293 533 203 507 m 531 925 q 372 879 436 925 q 292 747 307 833 q 289 717 289 725 q 338 613 289 651 q 469 574 386 574 q 593 601 538 574 q 680 676 649 628 q 711 785 711 724 q 663 888 711 851 q 531 925 615 925 m 451 478 q 274 428 349 478 q 183 281 200 379 q 179 240 179 260 q 233 122 179 165 q 382 78 286 78 q 561 133 489 78 q 649 281 633 189 q 653 324 653 304 q 598 439 653 400 q 451 478 543 478 z "},"9":{"ha":875,"x_min":107,"x_max":825,"o":"m 225 269 q 269 147 226 189 q 399 104 313 104 q 584 194 513 104 q 690 499 656 285 q 575 401 650 436 q 417 365 500 365 q 219 431 293 365 q 146 618 146 497 q 153 693 146 649 q 281 933 179 842 q 543 1024 383 1024 q 759 947 693 1024 q 825 722 825 871 q 804 521 825 643 q 723 232 774 346 q 587 58 672 118 q 372 -1 501 -1 q 173 66 239 -1 q 107 242 107 133 q 108 269 107 260 l 225 269 m 457 472 q 620 530 550 472 q 707 686 690 588 q 713 742 713 725 q 665 871 713 824 q 526 918 617 918 q 361 857 429 918 q 275 696 293 796 q 271 643 271 669 q 317 518 271 564 q 457 472 364 472 z "},"\u0000":{"ha":0,"x_min":0,"x_max":0,"o":""},"\r":{"ha":414,"x_min":0,"x_max":0,"o":""}," ":{"ha":414,"x_min":0,"x_max":0,"o":""},"अ":{"ha":1149,"x_min":68,"x_max":1275,"o":"m 1275 1028 l 1258 931 l 1076 931 l 911 0 l 796 0 l 875 454 l 656 456 q 665 389 665 425 q 661 342 665 365 q 549 147 639 219 q 332 74 460 74 q 140 136 211 74 q 68 303 68 199 q 72 356 68 329 l 182 356 q 179 322 179 333 q 224 215 179 256 q 342 174 268 174 q 484 222 426 174 q 556 351 542 271 q 558 385 558 363 q 543 456 558 426 l 539 456 l 539 463 q 393 528 497 528 l 338 528 l 354 622 l 410 622 q 524 650 476 622 q 595 722 571 678 q 619 810 619 765 q 578 906 619 871 q 474 942 538 942 q 338 898 397 942 q 268 782 279 854 l 160 782 q 273 970 181 900 q 492 1040 365 1040 q 664 986 600 1040 q 728 840 728 932 q 724 793 728 818 q 656 657 710 714 q 517 579 603 600 l 515 576 q 586 550 554 571 l 893 550 l 976 1028 l 1275 1028 z "},"आ":{"ha":1554,"x_min":68,"x_max":1682,"o":"m 1665 931 l 1483 931 l 1319 0 l 1203 0 l 1367 931 l 1076 931 l 911 0 l 796 0 l 875 454 l 656 456 q 665 389 665 425 q 661 342 665 365 q 549 147 639 219 q 332 74 460 74 q 140 136 211 74 q 68 303 68 199 q 72 356 68 329 l 182 356 q 179 322 179 333 q 224 215 179 256 q 342 174 268 174 q 484 222 426 174 q 556 351 542 271 q 558 385 558 363 q 543 456 558 426 l 539 456 l 539 463 q 393 528 497 528 l 338 528 l 354 622 l 410 622 q 524 650 476 622 q 595 722 571 678 q 619 810 619 765 q 578 906 619 871 q 474 942 538 942 q 338 898 397 942 q 268 782 279 854 l 160 782 q 273 970 181 900 q 492 1040 365 1040 q 664 986 600 1040 q 728 840 728 932 q 724 793 728 818 q 656 657 710 714 q 517 579 603 600 l 515 576 q 586 550 554 571 l 893 550 l 976 1028 l 1682 1028 l 1665 931 z "},"इ":{"ha":811,"x_min":32,"x_max":957,"o":"m 940 931 l 729 931 l 693 731 l 683 679 l 438 679 q 313 653 367 679 q 249 563 260 628 q 246 539 246 546 q 283 471 246 493 q 379 449 319 449 l 440 449 q 618 403 547 449 q 689 258 689 357 q 683 206 689 244 q 590 43 665 106 q 394 -19 515 -19 q 244 24 296 -18 q 179 110 192 65 l 142 -107 l 32 -107 l 94 249 l 199 249 q 240 119 193 168 q 379 69 286 69 q 524 122 472 69 q 576 246 576 174 q 528 338 576 310 q 404 365 479 365 l 332 365 q 188 409 244 368 q 131 529 131 450 q 133 567 131 553 q 231 717 150 671 q 422 764 313 764 l 586 764 l 617 931 l 33 931 l 49 1028 l 957 1028 l 940 931 z "},"ई":{"ha":806,"x_min":32,"x_max":1121,"o":"m 933 1399 q 1072 1352 1022 1399 q 1121 1225 1121 1306 q 1114 1164 1121 1199 l 1013 1164 q 1015 1199 1015 1176 q 990 1273 1015 1246 q 917 1300 964 1300 q 761 1131 789 1300 l 744 1028 l 957 1028 l 942 931 l 731 931 l 694 731 l 693 731 l 683 679 l 438 679 q 313 653 367 679 q 249 563 260 628 q 246 539 246 546 q 283 471 246 493 q 379 449 319 449 l 440 449 q 618 403 547 449 q 689 258 689 357 q 683 206 689 244 q 590 43 665 106 q 394 -19 515 -19 q 244 24 296 -18 q 179 110 192 65 l 142 -107 l 32 -107 l 94 249 l 199 249 q 240 119 193 168 q 379 69 286 69 q 524 122 472 69 q 576 246 576 174 q 528 338 576 310 q 404 365 479 365 l 332 365 q 188 409 244 368 q 131 529 131 450 q 133 567 131 553 q 231 717 150 671 q 422 764 313 764 l 586 764 l 617 931 l 33 931 l 50 1028 l 636 1028 l 654 1131 q 744 1326 675 1253 q 933 1399 814 1399 z "},"उ":{"ha":799,"x_min":31,"x_max":926,"o":"m 908 931 l 740 931 l 715 786 q 647 644 700 701 q 524 575 593 586 l 522 572 q 636 498 596 556 q 676 358 676 440 q 672 303 676 332 q 551 87 647 169 q 314 4 456 4 q 108 73 185 4 q 31 254 31 142 q 36 315 31 288 l 146 315 q 143 278 143 303 q 194 156 143 203 q 328 108 246 108 q 483 165 418 108 q 564 311 547 221 q 568 353 568 332 q 525 471 568 424 q 390 518 482 518 l 326 518 l 343 621 l 393 621 q 536 669 481 621 q 604 793 592 717 l 628 931 l 36 931 l 53 1028 l 926 1028 l 908 931 z "},"ऊ":{"ha":1200,"x_min":31,"x_max":1328,"o":"m 715 786 q 647 644 700 701 q 524 575 593 586 l 522 572 l 810 572 q 1014 519 938 572 q 1090 357 1090 467 q 1085 299 1090 326 q 976 104 1061 171 q 769 38 890 38 q 704 43 749 38 l 721 132 q 767 131 738 131 q 902 172 846 131 q 974 303 958 214 q 978 343 978 324 q 927 446 978 413 q 796 479 876 479 l 643 479 q 674 354 674 428 q 669 297 674 326 q 606 146 654 213 q 483 42 558 79 q 314 4 407 4 q 108 73 185 4 q 31 254 31 142 q 36 315 31 288 l 146 315 q 143 278 143 303 q 194 156 143 203 q 328 108 246 108 q 483 165 418 108 q 564 311 547 221 q 568 353 568 332 q 525 471 568 424 q 390 518 482 518 l 326 518 l 343 621 l 393 621 q 536 669 481 621 q 604 793 592 717 l 628 931 l 36 931 l 53 1028 l 1328 1028 l 1311 931 l 740 931 l 715 786 z "},"ऋ":{"ha":1418,"x_min":36,"x_max":1546,"o":"m 874 931 l 817 608 l 1065 608 q 1153 632 1121 608 q 1197 697 1186 656 l 1214 794 l 1315 794 l 1229 303 l 1203 303 q 1064 251 1115 303 q 1013 124 1013 199 q 1051 40 1013 67 q 1154 13 1090 13 q 1235 25 1185 13 l 1218 -69 q 1124 -81 1171 -81 q 960 -35 1022 -81 q 899 100 899 11 q 903 147 899 122 q 981 294 918 235 q 1140 371 1044 354 l 1171 547 q 1032 515 1110 515 l 800 515 l 710 0 l 601 0 l 668 382 l 222 0 l 78 0 l 79 8 l 690 503 l 690 504 q 638 637 689 586 q 497 688 586 688 q 303 616 385 688 q 201 426 221 544 l 85 426 q 160 615 104 533 q 300 742 217 697 q 482 786 383 786 q 630 750 571 786 q 715 650 689 714 l 765 931 l 36 931 l 53 1028 l 1546 1028 l 1529 931 l 874 931 z "},"ॠ":{"ha":1421,"x_min":36,"x_max":1547,"o":"m 872 931 l 815 608 l 1064 608 q 1197 701 1174 608 l 1204 736 l 1208 765 l 1214 794 l 1315 794 l 1228 300 l 1174 300 q 1076 276 1117 300 q 1024 197 1035 253 q 1022 178 1022 190 q 1055 115 1022 135 q 1143 96 1088 96 l 1207 96 l 1192 8 l 1126 8 q 1025 -16 1068 8 q 972 -97 982 -40 q 971 -118 971 -104 q 1006 -180 971 -160 q 1097 -200 1040 -200 q 1172 -193 1133 -200 q 1236 -178 1210 -186 l 1221 -265 q 1149 -284 1192 -276 q 1064 -292 1106 -292 q 915 -255 974 -292 q 856 -143 856 -218 q 901 -17 856 -68 q 1011 49 946 35 l 1013 51 q 938 92 965 63 q 911 171 911 122 q 914 203 911 181 q 994 326 929 286 q 1140 368 1060 367 l 1171 549 q 1031 515 1111 515 l 800 515 l 710 0 l 601 0 l 669 383 l 222 0 l 76 0 l 78 8 l 690 504 q 638 636 689 585 q 497 688 586 688 q 302 617 383 688 q 200 426 221 546 l 83 426 q 159 615 103 533 q 299 742 215 697 q 481 786 382 786 q 630 750 571 786 q 715 649 689 714 l 765 931 l 36 931 l 53 1028 l 1547 1028 l 1531 931 l 872 931 z "},"ऌ":{"ha":1250,"x_min":32,"x_max":1374,"o":"m 1006 931 l 974 753 q 1099 674 1054 735 q 1143 517 1143 613 q 1136 439 1143 485 q 1089 300 1124 360 l 1079 300 q 928 249 982 300 q 875 122 875 199 q 915 38 875 65 q 1019 11 954 11 q 1101 22 1064 11 l 1085 -71 q 989 -83 1038 -83 q 825 -37 888 -83 q 763 99 763 10 q 767 147 763 122 q 847 294 782 233 q 1000 365 911 354 q 1021 440 1015 401 q 1026 499 1026 467 q 990 612 1026 569 q 883 654 954 654 q 729 585 790 654 q 653 401 668 517 l 647 376 l 551 376 l 554 401 q 560 476 560 436 q 422 654 560 654 q 273 594 332 654 q 197 438 214 535 q 192 376 192 408 q 239 247 192 293 q 375 200 286 200 q 417 203 383 200 l 399 101 q 350 100 379 100 q 143 170 214 100 q 72 360 72 240 q 79 439 72 393 q 199 673 106 588 q 422 758 293 758 q 571 699 521 758 q 625 556 621 639 l 629 556 q 719 685 660 629 q 863 754 778 740 l 894 931 l 32 931 l 50 1028 l 1374 1028 l 1356 931 l 1006 931 z "},"ॡ":{"ha":1263,"x_min":39,"x_max":1386,"o":"m 1006 931 l 974 751 q 1098 673 1053 735 q 1143 517 1143 611 q 1136 439 1143 474 q 1090 300 1125 368 l 1039 300 q 941 276 982 300 q 889 197 900 253 q 888 178 888 190 q 921 116 888 136 q 1008 96 954 96 l 1074 96 l 1057 8 l 992 8 q 890 -16 932 8 q 836 -97 847 -40 q 835 -115 835 -104 q 871 -180 835 -160 q 963 -200 907 -200 q 1038 -193 999 -200 q 1101 -178 1078 -186 l 1086 -265 q 1015 -284 1058 -276 q 931 -292 972 -292 q 780 -254 839 -292 q 721 -140 721 -217 q 767 -16 721 -67 q 876 49 813 35 l 878 51 q 803 92 831 63 q 776 171 776 122 q 779 203 776 181 q 859 325 796 285 q 1000 368 922 365 q 1021 440 1014 400 q 1026 499 1026 467 q 990 612 1026 569 q 883 654 954 654 q 729 585 790 654 q 653 401 668 517 l 647 376 l 551 376 l 554 401 q 560 476 560 436 q 422 654 560 654 q 273 594 332 654 q 197 438 214 535 q 192 376 192 408 q 239 247 192 293 q 375 200 286 200 q 417 203 383 200 l 399 101 q 350 100 379 100 q 143 170 214 100 q 72 360 72 240 q 79 439 72 393 q 199 673 106 588 q 422 758 293 758 q 571 699 521 758 q 625 556 621 639 l 629 556 q 719 685 661 631 q 864 754 778 740 l 894 931 l 39 931 l 56 1028 l 1386 1028 l 1368 931 l 1006 931 z "},"ए":{"ha":904,"x_min":35,"x_max":1031,"o":"m 1014 931 l 858 931 l 831 769 q 739 557 806 626 q 550 488 672 488 q 494 490 514 488 l 511 593 q 540 592 521 592 q 658 635 617 592 q 718 772 700 678 l 746 931 l 329 931 l 232 376 q 225 307 225 335 q 274 174 225 221 q 414 126 322 126 q 572 183 511 126 q 651 344 633 240 l 764 344 q 645 110 739 193 q 404 26 551 26 q 184 98 260 26 q 108 294 108 169 q 117 379 108 336 l 213 931 l 35 931 l 51 1028 l 1031 1028 l 1014 931 z "},"ऐ":{"ha":904,"x_min":35,"x_max":1031,"o":"m 1014 931 l 858 931 l 831 769 q 739 557 806 626 q 550 488 672 488 q 494 490 514 488 l 511 593 q 540 592 521 592 q 658 635 617 592 q 718 772 700 678 l 746 931 l 329 931 l 232 376 q 225 307 225 335 q 274 174 225 221 q 414 126 322 126 q 572 183 511 126 q 651 344 633 240 l 764 344 q 645 110 739 193 q 404 26 551 26 q 184 98 260 26 q 108 294 108 169 q 117 379 108 336 l 213 931 l 35 931 l 51 1028 l 758 1028 q 669 1189 707 1139 q 592 1253 632 1239 q 476 1268 551 1268 l 419 1268 l 436 1363 l 493 1363 q 649 1342 593 1363 q 754 1252 704 1322 q 868 1028 804 1182 l 1031 1028 l 1014 931 z "},"ओ":{"ha":1554,"x_min":68,"x_max":1682,"o":"m 1682 1028 l 1665 931 l 1483 931 l 1319 0 l 1203 0 l 1367 931 l 1076 931 l 911 0 l 796 0 l 875 454 l 656 456 q 665 389 665 425 q 661 342 665 365 q 549 147 639 219 q 332 74 460 74 q 140 136 211 74 q 68 303 68 199 q 72 356 68 329 l 182 356 q 179 322 179 333 q 224 215 179 256 q 342 174 268 174 q 484 222 426 174 q 556 351 542 271 q 558 385 558 363 q 543 456 558 426 l 539 456 l 539 463 q 393 528 497 528 l 338 528 l 354 622 l 410 622 q 524 650 476 622 q 595 722 571 678 q 619 810 619 765 q 578 906 619 871 q 474 942 538 942 q 338 898 397 942 q 268 782 279 854 l 160 782 q 273 970 181 900 q 492 1040 365 1040 q 664 986 600 1040 q 728 840 728 932 q 724 793 728 818 q 656 657 710 714 q 517 579 603 600 l 515 576 q 586 550 554 571 l 893 550 l 976 1028 l 1458 1028 q 1369 1189 1407 1139 q 1292 1253 1332 1239 q 1178 1268 1251 1268 l 1119 1268 l 1136 1363 l 1193 1363 q 1349 1342 1293 1363 q 1454 1252 1404 1322 q 1568 1028 1504 1182 l 1682 1028 z "},"औ":{"ha":1554,"x_min":68,"x_max":1682,"o":"m 1682 1028 l 1665 931 l 1483 931 l 1319 0 l 1203 0 l 1367 931 l 1076 931 l 911 0 l 796 0 l 875 454 l 656 456 q 665 389 665 425 q 661 342 665 365 q 549 147 639 219 q 332 74 460 74 q 140 136 211 74 q 68 303 68 199 q 72 356 68 329 l 182 356 q 179 322 179 333 q 224 215 179 256 q 342 174 268 174 q 484 222 426 174 q 556 351 542 271 q 558 385 558 363 q 543 456 558 426 l 539 456 l 539 463 q 393 528 497 528 l 338 528 l 354 622 l 410 622 q 524 650 476 622 q 595 722 571 678 q 619 810 619 765 q 578 906 619 871 q 474 942 538 942 q 338 898 397 942 q 268 782 279 854 l 160 782 q 273 970 181 900 q 492 1040 365 1040 q 664 986 600 1040 q 728 840 728 932 q 724 793 728 818 q 656 657 710 714 q 517 579 603 600 l 515 576 q 586 550 554 571 l 893 550 l 976 1028 l 1465 1028 q 1353 1119 1394 1093 q 1272 1152 1313 1144 q 1150 1160 1231 1160 l 1090 1160 l 1104 1235 l 1161 1235 q 1282 1229 1242 1235 q 1363 1200 1322 1224 q 1460 1121 1403 1176 q 1378 1290 1417 1238 q 1301 1356 1340 1343 q 1190 1369 1261 1369 l 1129 1369 l 1142 1446 l 1200 1446 q 1353 1424 1303 1446 q 1452 1315 1404 1401 q 1568 1028 1500 1229 l 1682 1028 z "},"ऍ":{"ha":906,"x_min":0,"x_max":996,"o":"m 536 1163 q 352 1218 413 1163 q 292 1361 292 1274 q 296 1408 292 1386 l 396 1408 q 393 1381 393 1389 q 432 1288 393 1325 q 551 1251 471 1251 q 695 1298 640 1251 q 761 1408 750 1344 l 860 1408 q 808 1286 849 1342 q 699 1197 768 1231 q 536 1163 629 1163 m 979 931 l 824 931 l 796 769 q 704 557 771 626 q 515 488 638 488 q 460 490 479 488 l 476 593 q 506 592 486 592 q 624 635 582 592 q 683 772 665 678 l 711 931 l 294 931 l 197 376 q 190 307 190 335 q 239 174 190 221 q 379 126 288 126 q 538 183 476 126 q 617 344 599 240 l 729 344 q 610 110 704 193 q 369 26 517 26 q 149 98 225 26 q 74 294 74 169 q 82 379 74 336 l 178 931 l 0 931 l 17 1028 l 996 1028 l 979 931 z "},"ॲ":{"ha":1149,"x_min":68,"x_max":1479,"o":"m 1275 1028 l 1258 931 l 1076 931 l 911 0 l 796 0 l 875 454 l 656 456 q 665 389 665 425 q 661 342 665 365 q 549 147 639 219 q 332 74 460 74 q 140 136 211 74 q 68 303 68 199 q 72 356 68 329 l 182 356 q 179 322 179 333 q 224 215 179 256 q 342 174 268 174 q 484 222 426 174 q 556 351 542 271 q 558 385 558 363 q 543 456 558 426 l 539 456 l 539 463 q 393 528 497 528 l 338 528 l 354 622 l 410 622 q 524 650 476 622 q 595 722 571 678 q 619 810 619 765 q 578 906 619 871 q 474 942 538 942 q 338 898 397 942 q 268 782 279 854 l 160 782 q 273 970 181 900 q 492 1040 365 1040 q 664 986 600 1040 q 728 840 728 932 q 724 793 728 818 q 656 657 710 714 q 517 579 603 600 l 515 576 q 586 550 554 571 l 893 550 l 976 1028 l 1275 1028 m 1479 1411 q 1379 1237 1460 1307 q 1161 1167 1299 1167 q 974 1223 1038 1167 q 910 1367 910 1279 q 914 1411 910 1389 l 1014 1411 q 1011 1382 1011 1392 q 1050 1292 1011 1328 q 1168 1256 1089 1256 q 1313 1301 1257 1256 q 1379 1411 1368 1347 l 1479 1411 z "},"ऑ":{"ha":1554,"x_min":68,"x_max":1682,"o":"m 1665 931 l 1483 931 l 1319 0 l 1203 0 l 1367 931 l 1076 931 l 911 0 l 796 0 l 875 454 l 656 456 q 665 389 665 425 q 661 342 665 365 q 549 147 639 219 q 332 74 460 74 q 140 136 211 74 q 68 303 68 199 q 72 356 68 329 l 182 356 q 179 322 179 333 q 224 215 179 256 q 342 174 268 174 q 484 222 426 174 q 556 351 542 271 q 558 385 558 363 q 543 456 558 426 l 539 456 l 539 463 q 393 528 497 528 l 338 528 l 354 622 l 410 622 q 524 650 476 622 q 595 722 571 678 q 619 810 619 765 q 578 906 619 871 q 474 942 538 942 q 338 898 397 942 q 268 782 279 854 l 160 782 q 273 970 181 900 q 492 1040 365 1040 q 664 986 600 1040 q 728 840 728 932 q 724 793 728 818 q 656 657 710 714 q 517 579 603 600 l 515 576 q 586 550 554 571 l 893 550 l 976 1028 l 1682 1028 l 1665 931 m 1672 1407 q 1572 1233 1653 1303 q 1354 1163 1492 1163 q 1167 1219 1231 1163 q 1103 1363 1103 1275 q 1107 1407 1103 1385 l 1207 1407 q 1204 1378 1204 1388 q 1243 1288 1204 1324 q 1361 1251 1282 1251 q 1506 1297 1450 1251 q 1572 1407 1561 1343 l 1672 1407 z "},"ा":{"ha":408,"x_min":36,"x_max":535,"o":"m 56 0 l 219 931 l 36 931 l 53 1028 l 535 1028 l 518 931 l 336 931 l 172 0 l 56 0 z "},"ि":{"ha":408,"x_min":36,"x_max":1308,"o":"m 833 1383 q 1073 1350 965 1383 q 1244 1249 1181 1317 q 1308 1081 1308 1181 q 1303 1024 1308 1063 l 1299 1000 l 1183 1000 l 1186 1022 q 1190 1064 1190 1043 q 1079 1233 1190 1179 q 817 1288 968 1288 q 508 1230 642 1288 q 350 1028 375 1172 l 535 1028 l 518 931 l 336 931 l 171 0 l 54 0 l 219 931 l 36 931 l 53 1028 l 236 1028 q 346 1230 258 1150 q 560 1347 433 1310 q 833 1383 686 1383 z "},"ी":{"ha":407,"x_min":-178,"x_max":535,"o":"m 535 1028 l 518 931 l 336 931 l 171 0 l 56 0 l 219 931 l 36 931 l 53 1028 l 240 1028 l 250 1086 q 257 1153 257 1124 q 229 1249 257 1213 q 138 1286 201 1286 q -49 1086 -8 1286 l -65 1000 l -178 1000 l -162 1081 q -60 1301 -137 1218 q 154 1383 18 1383 q 371 1172 371 1383 q 363 1081 371 1129 l 353 1028 l 535 1028 z "},"ु":{"ha":0,"x_min":-712,"x_max":-117,"o":"m -119 -182 q -220 -354 -136 -292 q -433 -417 -304 -417 q -633 -360 -554 -417 q -712 -193 -712 -304 q -706 -125 -712 -154 l -601 -125 q -607 -178 -607 -151 q -557 -288 -607 -251 q -424 -325 -507 -325 q -287 -287 -342 -325 q -221 -179 -232 -249 q -218 -153 -218 -162 q -247 -80 -218 -108 q -328 -51 -275 -51 l -361 -51 l -344 40 l -311 40 q -168 -10 -219 40 q -117 -142 -117 -61 q -119 -182 -117 -168 z "},"ू":{"ha":0,"x_min":-596,"x_max":-6,"o":"m -347 -403 q -389 -404 -360 -404 q -536 -358 -476 -404 q -596 -229 -596 -311 q -592 -187 -596 -208 q -494 -22 -574 -82 q -297 38 -415 38 q -83 -42 -160 38 q -6 -256 -6 -122 q -15 -350 -6 -303 l -26 -396 l -122 -396 l -111 -339 q -103 -262 -103 -297 q -157 -108 -103 -165 q -306 -51 -211 -51 q -444 -97 -387 -51 q -500 -215 -500 -142 q -465 -291 -500 -262 q -375 -319 -429 -319 q -332 -317 -362 -319 l -347 -403 z "},"ृ":{"ha":0,"x_min":-583,"x_max":-218,"o":"m -235 -412 q -357 -431 -289 -431 q -467 -407 -415 -431 q -551 -337 -519 -383 q -583 -228 -583 -292 q -579 -183 -583 -207 q -481 -22 -561 -82 q -276 38 -401 38 l -231 38 l -243 -44 l -282 -44 q -419 -91 -368 -44 q -469 -211 -469 -137 q -427 -303 -469 -269 q -324 -336 -385 -336 q -218 -322 -265 -336 l -235 -412 z "},"ॄ":{"ha":0,"x_min":-606,"x_max":-222,"o":"m -239 -596 q -310 -614 -267 -607 q -394 -621 -354 -621 q -544 -583 -483 -621 q -606 -469 -606 -544 q -560 -346 -606 -396 q -447 -282 -514 -296 l -447 -278 q -522 -238 -494 -267 q -549 -162 -549 -210 q -546 -128 -549 -140 q -464 -3 -531 -43 q -315 38 -397 38 l -231 38 l -242 -29 l -287 -29 q -384 -53 -343 -29 q -435 -132 -425 -78 q -437 -153 -437 -146 q -404 -215 -437 -194 q -317 -235 -371 -235 l -251 -235 l -268 -321 l -332 -321 q -434 -345 -390 -321 q -487 -424 -478 -369 q -490 -444 -490 -437 q -454 -508 -490 -487 q -361 -529 -418 -529 q -285 -523 -325 -529 q -222 -508 -246 -517 l -239 -596 z "},"ॢ":{"ha":0,"x_min":-732,"x_max":54,"o":"m 8 -364 q -101 -399 -61 -364 q -140 -489 -140 -435 q -111 -549 -140 -529 q -37 -569 -82 -569 q 24 -560 -6 -569 l 10 -636 q -61 -643 -22 -643 q -184 -608 -137 -643 q -231 -507 -231 -574 q -181 -377 -231 -432 q -56 -311 -132 -322 q -44 -264 -50 -297 q -40 -221 -40 -242 q -65 -140 -40 -169 q -140 -111 -90 -111 q -245 -160 -204 -111 q -303 -290 -286 -208 l -306 -308 l -383 -308 l -381 -290 q -374 -231 -374 -256 q -399 -143 -374 -175 q -474 -111 -425 -111 q -580 -153 -539 -111 q -633 -265 -621 -196 q -637 -306 -637 -286 q -604 -397 -637 -364 q -507 -431 -571 -431 q -478 -428 -486 -431 l -493 -508 q -526 -510 -503 -510 q -680 -458 -628 -510 q -732 -318 -732 -407 q -728 -264 -732 -293 q -637 -92 -707 -154 q -472 -29 -567 -29 q -365 -72 -400 -29 q -325 -175 -329 -114 l -321 -175 q -242 -72 -294 -114 q -112 -29 -190 -29 q 10 -76 -35 -29 q 54 -206 54 -122 q 49 -264 54 -236 q 17 -364 40 -314 l 8 -364 z "},"ॣ":{"ha":0,"x_min":-732,"x_max":54,"o":"m -24 -364 q -99 -385 -68 -364 q -129 -451 -129 -406 q -106 -494 -129 -481 q -44 -508 -83 -508 l 3 -508 l -10 -579 l -54 -579 q -168 -653 -154 -579 l -169 -665 q -144 -710 -169 -696 q -78 -724 -119 -724 q -22 -719 -50 -724 q 22 -708 7 -714 l 11 -779 q -103 -794 -37 -794 q -214 -769 -171 -794 q -257 -687 -257 -743 q -224 -593 -257 -631 q -143 -547 -190 -556 l -143 -544 q -197 -513 -176 -536 q -217 -456 -217 -490 q -214 -432 -217 -449 q -158 -342 -203 -372 q -56 -308 -112 -311 q -43 -264 -47 -285 q -39 -222 -39 -242 q -65 -141 -39 -171 q -140 -111 -90 -111 q -244 -160 -204 -111 q -301 -290 -285 -208 l -304 -308 l -383 -308 l -381 -290 q -374 -231 -374 -256 q -399 -143 -374 -175 q -474 -111 -425 -111 q -580 -153 -539 -111 q -633 -265 -621 -196 q -637 -306 -637 -286 q -604 -397 -637 -364 q -507 -431 -571 -431 q -478 -428 -486 -431 l -492 -508 q -526 -510 -503 -510 q -679 -459 -626 -510 q -732 -321 -732 -408 q -726 -264 -732 -303 q -637 -92 -707 -154 q -472 -29 -567 -29 q -364 -72 -400 -29 q -324 -175 -328 -114 l -321 -175 q -242 -72 -294 -114 q -112 -29 -190 -29 q 10 -76 -35 -29 q 54 -204 54 -122 q 49 -264 54 -236 q 17 -364 40 -314 l -24 -364 z "},"े":{"ha":0,"x_min":-508,"x_max":-57,"o":"m -167 1022 q -257 1187 -219 1136 q -335 1253 -294 1238 q -450 1268 -375 1268 l -508 1268 l -492 1363 l -435 1363 q -278 1342 -333 1363 q -172 1250 -222 1321 q -57 1022 -122 1179 l -167 1022 z "},"ै":{"ha":0,"x_min":-540,"x_max":-61,"o":"m -431 1446 q -276 1423 -328 1446 q -178 1314 -225 1400 q -61 1024 -131 1228 l -161 1024 q -276 1117 -235 1090 q -358 1152 -317 1144 q -481 1160 -399 1160 l -540 1160 l -526 1235 l -469 1235 q -349 1229 -389 1235 q -268 1200 -308 1224 q -171 1121 -228 1176 q -252 1290 -214 1238 q -330 1356 -290 1343 q -440 1369 -369 1369 l -501 1369 l -489 1446 l -431 1446 z "},"ो":{"ha":408,"x_min":-100,"x_max":535,"o":"m 535 1028 l 518 931 l 336 931 l 171 0 l 56 0 l 219 931 l 36 931 l 54 1028 l 239 1028 q 150 1189 188 1139 q 72 1253 113 1239 q -42 1268 32 1268 l -100 1268 l -83 1363 l -28 1363 q 129 1342 74 1363 q 235 1252 185 1322 q 349 1028 285 1182 l 535 1028 z "},"ौ":{"ha":408,"x_min":-167,"x_max":499,"o":"m 499 1028 l 481 931 l 297 931 l 135 0 l 19 0 l 182 931 l -1 931 l 17 1028 l 208 1028 q 96 1118 138 1092 q 13 1152 54 1144 q -108 1160 -28 1160 l -167 1160 l -153 1235 l -97 1235 q 23 1229 -18 1235 q 104 1200 64 1224 q 201 1121 144 1176 q 120 1290 158 1238 q 42 1356 82 1343 q -69 1369 1 1369 l -129 1369 l -117 1446 l -58 1446 q 95 1424 43 1446 q 195 1315 147 1401 q 311 1028 243 1229 l 499 1028 z "},"ॅ":{"ha":0,"x_min":-339,"x_max":231,"o":"m 231 1381 q 131 1206 211 1276 q -87 1136 50 1136 q -275 1192 -211 1136 q -339 1336 -339 1249 q -335 1381 -339 1358 l -235 1381 q -237 1351 -237 1361 q -199 1261 -237 1297 q -81 1225 -160 1225 q 64 1271 8 1225 q 131 1381 119 1317 l 231 1381 z "},"ॉ":{"ha":408,"x_min":36,"x_max":640,"o":"m 640 1381 q 540 1206 621 1276 q 322 1136 460 1136 q 135 1192 199 1136 q 71 1336 71 1249 q 75 1381 71 1358 l 175 1381 q 172 1351 172 1361 q 211 1261 172 1297 q 329 1225 250 1225 q 474 1271 418 1225 q 540 1381 529 1317 l 640 1381 m 56 0 l 219 931 l 36 931 l 53 1028 l 535 1028 l 518 931 l 336 931 l 172 0 l 56 0 z "},"क":{"ha":1382,"x_min":36,"x_max":1508,"o":"m 828 931 l 775 635 q 883 738 817 699 q 1036 776 950 776 q 1213 708 1146 776 q 1281 526 1281 639 q 1274 457 1281 496 q 1152 225 1247 308 q 928 142 1057 142 q 844 151 878 142 l 860 243 q 918 238 882 238 q 1072 297 1004 238 q 1158 458 1140 357 q 1163 504 1163 482 q 1115 630 1163 583 q 990 676 1068 676 q 832 617 894 676 q 746 469 769 557 l 664 0 l 553 0 l 601 279 q 490 175 558 214 q 333 136 422 136 q 151 204 221 136 q 81 389 81 272 q 88 461 81 419 q 155 627 104 556 q 280 738 206 699 q 440 776 354 776 q 588 737 532 776 q 664 632 644 697 l 717 931 l 36 931 l 53 1028 l 1508 1028 l 1490 931 l 828 931 m 381 233 q 544 295 479 235 q 629 436 608 356 l 635 463 q 638 500 638 488 q 593 626 638 575 q 457 676 549 676 q 294 617 367 676 q 206 458 222 557 q 201 408 201 432 q 251 280 201 326 q 381 233 300 233 z "},"ख":{"ha":1296,"x_min":36,"x_max":1424,"o":"m 1424 1028 l 1406 931 l 1224 931 l 1061 0 l 944 0 l 997 303 q 901 220 958 251 q 769 189 844 189 q 718 194 740 189 q 571 51 660 106 q 371 -4 482 -4 q 156 65 233 -4 q 78 260 78 135 q 85 338 78 292 l 124 554 l 172 554 q 407 763 372 554 l 436 931 l 36 931 l 54 1028 l 1424 1028 m 1108 931 l 553 931 l 521 749 q 415 536 494 603 q 224 468 335 469 l 199 325 q 193 274 193 289 q 246 145 193 193 q 392 97 299 97 q 531 135 469 97 q 632 232 593 174 q 567 313 590 263 q 544 425 544 363 q 550 488 544 458 q 608 629 564 568 q 717 724 653 690 q 857 757 782 757 q 987 726 936 757 q 1058 643 1038 696 l 1108 931 m 807 279 q 928 316 878 279 q 1006 407 979 353 q 1032 513 1032 461 q 992 622 1032 578 q 871 667 951 667 q 728 615 790 667 q 650 476 665 564 q 646 433 646 454 q 691 320 646 361 q 807 279 736 279 z "},"ग":{"ha":1036,"x_min":36,"x_max":1163,"o":"m 1163 1028 l 1146 931 l 963 931 l 799 0 l 683 0 l 846 931 l 599 931 l 533 556 q 449 379 515 447 q 268 311 382 311 q 119 362 172 311 q 67 496 67 413 q 72 549 67 513 l 81 590 l 194 590 l 186 547 q 182 510 182 529 q 205 439 182 467 q 276 411 228 411 q 374 451 340 411 q 417 551 407 492 l 483 931 l 36 931 l 53 1028 l 1163 1028 z "},"घ":{"ha":986,"x_min":36,"x_max":1114,"o":"m 1096 931 l 915 931 l 751 0 l 635 0 l 689 307 q 547 188 632 231 q 361 146 461 146 q 165 201 240 146 q 90 353 90 256 q 94 400 90 375 q 173 543 110 488 q 317 613 236 599 l 317 615 q 222 663 257 625 q 188 768 188 700 q 193 824 188 796 l 211 931 l 36 931 l 53 1028 l 1114 1028 l 1096 931 m 799 931 l 328 931 l 308 829 q 306 789 306 815 q 344 694 306 726 q 469 663 383 663 l 535 663 l 518 568 l 444 568 q 270 515 329 568 q 211 379 211 461 q 263 276 211 311 q 403 242 315 242 q 547 274 479 242 q 662 366 615 307 q 722 500 708 425 l 799 931 z "},"ङ":{"ha":918,"x_min":39,"x_max":1044,"o":"m 1044 1028 l 1028 931 l 724 931 l 693 763 l 694 763 l 679 679 l 435 679 q 311 653 364 679 q 246 564 258 628 q 243 540 243 547 q 280 471 243 493 q 375 449 317 449 l 436 449 q 614 401 543 449 q 685 258 685 354 q 681 211 685 236 q 576 43 661 106 q 350 -19 490 -19 q 130 42 210 -19 q 50 207 50 104 q 53 249 50 235 l 168 249 q 165 217 165 226 q 215 110 165 150 q 358 69 264 69 q 515 120 457 69 q 572 247 572 171 q 524 338 572 310 q 401 365 476 365 l 346 365 q 192 405 257 365 q 128 529 128 444 q 131 567 128 553 q 228 715 149 668 q 415 763 308 763 l 582 763 l 611 931 l 39 931 l 56 1028 l 1044 1028 m 836 618 q 881 601 864 618 q 897 558 897 585 q 871 500 897 525 q 811 475 844 475 q 767 492 783 475 q 750 533 750 508 q 776 592 750 567 q 836 618 803 618 z "},"च":{"ha":1021,"x_min":36,"x_max":1147,"o":"m 1129 931 l 947 931 l 785 0 l 668 0 l 718 285 q 590 178 668 217 q 425 139 513 139 q 244 199 315 139 q 174 363 174 258 q 179 417 174 378 q 236 549 193 490 q 344 640 279 607 l 90 640 l 107 732 l 613 732 l 594 640 l 546 640 q 378 582 447 640 q 292 435 308 524 q 289 396 289 421 q 341 278 289 321 q 474 236 393 236 q 601 269 542 236 q 699 358 660 301 q 753 482 739 414 l 832 931 l 36 931 l 53 1028 l 1147 1028 l 1129 931 z "},"छ":{"ha":1132,"x_min":33,"x_max":1258,"o":"m 939 931 l 908 758 q 1025 691 982 744 q 1068 547 1068 638 q 1061 475 1068 517 q 955 242 1038 340 q 746 90 872 143 q 465 38 619 38 q 257 68 347 38 q 115 157 167 99 q 64 297 64 215 q 69 349 64 313 q 150 499 86 442 q 301 571 214 556 l 301 575 q 208 623 243 585 q 172 731 172 661 q 178 785 172 746 l 206 931 l 33 931 l 50 1028 l 1258 1028 l 1242 931 l 939 931 m 832 931 l 319 931 l 294 789 q 290 744 290 767 q 328 653 290 683 q 447 622 365 622 l 479 622 l 463 526 l 433 526 q 298 498 354 526 q 213 422 242 469 q 185 317 185 374 q 265 183 185 229 q 483 138 344 138 q 706 178 606 138 q 873 296 807 219 q 958 478 939 372 q 964 531 964 517 q 928 640 964 601 q 839 678 892 678 q 730 638 781 678 q 665 517 679 597 q 660 457 660 493 q 665 388 660 419 l 568 388 q 563 454 563 432 q 569 528 563 486 q 651 689 588 632 q 800 760 714 746 l 832 931 z "},"ज":{"ha":1167,"x_min":36,"x_max":1294,"o":"m 1276 931 l 1096 931 l 931 0 l 815 0 l 919 593 l 657 593 l 633 461 q 527 259 611 336 q 319 182 443 182 q 152 243 214 182 q 90 406 90 304 q 96 465 90 438 l 136 693 l 253 693 l 213 464 q 208 417 208 439 q 241 319 208 356 q 332 283 274 283 q 454 333 404 283 q 519 464 504 382 l 561 693 l 938 693 l 979 931 l 36 931 l 53 1028 l 1294 1028 l 1276 931 z "},"झ":{"ha":1189,"x_min":39,"x_max":1317,"o":"m 1299 931 l 1115 931 l 953 0 l 839 0 l 901 360 l 638 361 q 683 243 683 315 q 679 200 683 224 q 590 49 663 108 q 403 -10 518 -10 q 256 28 308 -10 q 188 107 204 67 l 150 -107 l 39 -107 l 101 238 l 206 238 q 248 123 203 168 q 386 78 293 78 q 528 126 479 78 q 576 243 576 174 q 533 333 576 301 q 406 365 489 365 l 332 365 q 187 409 244 368 q 129 529 129 450 q 133 569 129 549 q 231 718 150 672 q 422 764 313 764 l 586 764 l 617 931 l 46 931 l 64 1028 l 1317 1028 l 1299 931 m 1001 931 l 729 931 l 693 731 l 683 679 l 438 679 q 314 653 368 679 q 249 563 260 628 q 246 539 246 546 q 283 471 246 493 q 379 449 319 449 l 440 449 l 917 449 l 1001 931 z "},"ञ":{"ha":1125,"x_min":36,"x_max":1251,"o":"m 1235 931 l 1053 931 l 889 0 l 772 0 l 844 407 l 697 407 q 567 203 661 282 q 336 124 472 124 q 188 156 249 124 q 97 244 126 189 q 71 365 68 300 l 181 365 q 229 265 186 306 q 353 224 272 224 q 519 289 453 224 q 601 451 585 354 q 607 504 607 488 q 563 629 607 581 q 433 678 519 678 q 294 636 351 678 q 210 536 236 594 l 100 536 q 225 709 132 640 q 450 778 318 778 q 650 702 582 778 q 713 507 718 626 l 861 507 l 936 931 l 36 931 l 53 1028 l 1251 1028 l 1235 931 z "},"ट":{"ha":899,"x_min":32,"x_max":1025,"o":"m 528 671 q 306 603 400 671 q 189 410 213 536 q 185 361 185 385 q 247 215 185 271 q 408 160 308 160 q 606 233 524 160 q 707 421 688 306 l 818 421 q 742 232 800 314 q 595 105 685 150 q 394 60 506 60 q 224 96 299 60 q 108 198 149 132 q 67 350 67 264 q 72 414 67 385 q 230 678 104 588 q 538 769 356 769 l 571 769 l 600 931 l 32 931 l 50 1028 l 1025 1028 l 1008 931 l 714 931 l 667 671 l 528 671 z "},"ठ":{"ha":933,"x_min":31,"x_max":1061,"o":"m 593 931 l 563 760 q 751 667 679 743 q 824 474 824 590 q 818 407 824 439 q 738 226 800 304 q 585 107 676 149 q 389 65 493 65 q 224 101 297 65 q 110 204 151 138 q 69 357 69 271 q 75 422 69 393 q 205 655 101 565 q 449 761 308 744 l 479 931 l 31 931 l 49 1028 l 1061 1028 l 1043 931 l 593 931 m 703 411 q 707 461 707 436 q 648 608 707 551 q 490 665 589 665 q 354 634 418 665 q 247 547 290 603 q 190 418 203 490 q 186 368 186 393 q 245 221 186 278 q 401 164 304 164 q 538 195 474 164 q 647 283 603 226 q 703 411 690 339 z "},"ड":{"ha":799,"x_min":39,"x_max":926,"o":"m 435 679 q 311 653 364 679 q 246 564 258 628 q 243 540 243 547 q 280 471 243 493 q 375 449 317 449 l 436 449 q 614 401 543 449 q 685 258 685 354 q 681 211 685 236 q 576 43 661 106 q 350 -19 490 -19 q 130 42 210 -19 q 50 207 50 104 q 53 249 50 235 l 168 249 q 165 217 165 226 q 215 110 165 150 q 358 69 264 69 q 515 120 457 69 q 572 247 572 171 q 524 338 572 310 q 401 365 476 365 l 346 365 q 192 405 257 365 q 128 529 128 444 q 131 567 128 553 q 228 715 149 668 q 415 763 308 763 l 574 763 l 604 931 l 39 931 l 56 1028 l 926 1028 l 910 931 l 717 931 l 671 679 l 435 679 z "},"ढ":{"ha":889,"x_min":35,"x_max":1017,"o":"m 569 692 q 319 614 425 692 q 188 390 213 536 q 182 331 182 363 q 251 161 182 225 q 443 97 321 97 q 619 149 544 97 q 708 282 693 200 q 711 310 711 301 q 679 393 711 361 q 594 425 647 425 q 498 392 539 425 q 447 304 457 360 q 444 276 444 288 l 360 276 q 363 318 360 293 q 447 459 378 408 q 613 510 515 510 q 757 459 703 510 q 811 324 811 408 q 807 279 811 303 q 683 85 785 158 q 431 11 582 11 q 243 50 325 11 q 115 160 161 89 q 69 326 69 232 q 76 399 69 357 q 166 606 97 522 q 335 733 235 690 q 551 775 435 775 l 606 775 l 633 931 l 35 931 l 53 1028 l 1017 1028 l 999 931 l 743 931 l 701 692 l 569 692 z "},"ण":{"ha":1189,"x_min":36,"x_max":1315,"o":"m 1299 931 l 1115 931 l 951 0 l 836 0 l 1000 931 l 729 931 l 658 532 q 558 331 636 407 q 357 254 479 254 q 187 314 250 254 q 124 472 124 374 q 129 532 124 504 l 200 931 l 36 931 l 53 1028 l 1315 1028 l 1299 931 m 615 931 l 314 931 l 242 521 q 238 481 238 500 q 271 388 238 422 q 364 353 304 353 q 482 399 433 353 q 543 521 531 446 l 615 931 z "},"त":{"ha":964,"x_min":36,"x_max":1092,"o":"m 1074 931 l 890 931 l 728 0 l 611 0 l 715 592 l 513 592 q 292 529 379 592 q 183 344 206 467 q 178 285 178 317 q 235 144 178 193 q 400 96 292 96 l 429 96 l 414 3 l 378 3 q 147 74 235 3 q 60 276 60 144 q 67 349 60 307 q 219 606 97 521 q 524 692 342 692 l 732 692 l 775 931 l 36 931 l 53 1028 l 1092 1028 l 1074 931 z "},"थ":{"ha":1063,"x_min":100,"x_max":1190,"o":"m 1190 1028 l 1174 931 l 990 931 l 826 0 l 710 0 l 767 318 q 636 192 728 247 q 428 138 544 138 q 188 217 276 138 q 100 433 100 296 q 108 515 100 472 q 126 589 115 554 l 263 589 q 583 786 547 589 q 586 819 586 808 q 553 907 586 874 q 460 940 521 940 q 322 877 372 940 q 274 719 272 814 l 168 719 q 208 883 169 810 q 315 998 246 956 q 476 1040 385 1040 q 638 985 579 1040 q 697 836 697 929 q 693 783 697 811 q 560 574 668 644 q 289 504 451 504 l 219 504 q 214 443 214 476 q 278 291 214 347 q 461 235 342 235 q 613 270 540 235 q 737 372 686 306 q 803 526 788 439 l 890 1028 l 1190 1028 z "},"द":{"ha":849,"x_min":38,"x_max":975,"o":"m 508 678 q 309 620 393 678 q 206 453 225 563 q 201 407 201 428 q 251 278 201 326 q 386 231 300 231 q 483 251 435 231 q 569 315 532 272 q 617 419 606 357 l 722 419 l 646 -22 l 532 -22 l 579 247 q 478 167 542 197 q 340 138 414 138 q 155 206 226 138 q 83 392 83 275 q 89 460 83 428 q 234 698 117 618 q 515 778 351 778 l 615 778 l 642 931 l 38 931 l 56 1028 l 975 1028 l 957 931 l 758 931 l 714 678 l 508 678 z "},"ध":{"ha":992,"x_min":93,"x_max":1119,"o":"m 1103 931 l 922 931 l 758 0 l 642 0 l 696 306 q 551 181 640 226 q 354 136 463 136 q 167 190 240 136 q 93 338 93 243 q 97 381 93 358 q 173 518 114 468 q 303 579 232 568 l 303 583 q 201 645 242 599 q 161 765 161 692 q 165 814 161 789 q 256 978 182 915 q 436 1040 331 1040 q 583 992 531 1040 q 636 861 636 944 q 624 774 636 822 l 535 774 q 543 832 543 806 q 513 913 543 883 q 426 943 483 943 q 319 901 365 943 q 264 800 274 860 q 260 763 260 779 q 304 665 260 699 q 431 631 349 631 l 524 631 l 507 536 l 433 536 q 272 488 331 536 q 214 364 214 440 q 265 267 214 301 q 399 233 317 233 q 551 269 479 233 q 671 369 622 304 q 733 515 719 433 l 808 931 l 807 931 l 822 1028 l 1119 1028 l 1103 931 z "},"न":{"ha":1096,"x_min":36,"x_max":1224,"o":"m 1207 931 l 1024 931 l 860 0 l 744 0 l 851 603 l 579 603 q 626 467 626 546 q 622 418 626 443 q 565 283 610 340 q 454 194 519 225 q 314 163 389 163 q 136 224 204 163 q 68 386 68 286 q 72 436 68 411 q 187 631 94 561 q 413 700 279 700 l 868 700 l 908 931 l 36 931 l 53 1028 l 1224 1028 l 1207 931 m 533 467 q 494 565 533 528 q 388 603 454 603 q 251 555 308 603 q 178 431 193 507 q 175 399 175 408 q 216 299 175 336 q 328 261 257 261 q 430 289 382 261 q 506 364 478 317 q 533 467 533 411 z "},"प":{"ha":910,"x_min":36,"x_max":1036,"o":"m 1019 931 l 836 931 l 674 0 l 558 0 l 626 388 q 521 303 583 333 q 382 274 458 274 q 193 343 260 274 q 126 533 126 413 q 135 618 126 575 l 192 931 l 36 931 l 53 1028 l 1036 1028 l 1019 931 m 721 931 l 306 931 l 251 618 q 244 550 244 579 q 289 419 244 465 q 421 372 333 372 q 573 426 511 372 q 657 564 635 481 l 721 931 z "},"फ":{"ha":1368,"x_min":36,"x_max":1496,"o":"m 811 931 l 758 631 q 871 737 801 697 q 1031 776 940 776 q 1205 709 1139 776 q 1271 532 1271 642 q 1264 464 1271 503 q 1196 291 1246 364 q 1073 180 1146 218 q 917 142 1000 142 q 829 153 867 142 l 844 243 q 906 236 875 236 q 1061 296 994 236 q 1146 458 1128 356 q 1150 506 1150 483 q 1103 630 1150 583 q 979 676 1056 676 q 814 612 878 676 q 728 454 750 547 l 647 0 l 532 0 l 600 388 q 499 303 558 333 q 365 274 439 274 q 188 340 249 274 q 126 521 126 406 q 135 613 126 565 l 192 931 l 36 931 l 53 1028 l 1496 1028 l 1478 931 l 811 931 m 696 931 l 306 931 l 251 613 q 243 536 243 571 q 284 415 243 458 q 407 372 325 372 q 558 434 497 372 q 635 586 619 496 l 696 931 z "},"ब":{"ha":957,"x_min":36,"x_max":1083,"o":"m 1083 1028 l 1067 931 l 883 931 l 721 0 l 610 0 l 658 276 q 538 168 613 210 q 368 126 463 126 q 222 160 286 126 q 120 255 157 193 q 83 397 83 317 q 89 463 83 433 q 161 637 106 563 q 299 751 217 711 q 476 790 381 790 q 634 749 572 790 q 722 642 696 708 l 772 931 l 36 931 l 53 1028 l 1083 1028 m 696 461 q 700 507 700 485 q 645 652 700 593 q 488 711 590 711 q 303 649 385 711 l 626 315 q 696 461 682 382 m 190 458 q 186 408 186 432 q 247 265 186 317 q 403 213 307 213 q 585 275 506 213 l 261 608 q 190 458 204 544 z "},"भ":{"ha":1103,"x_min":78,"x_max":1231,"o":"m 1231 1028 l 1214 931 l 1031 931 l 865 0 l 750 0 l 844 535 l 617 535 l 599 428 q 497 215 574 289 q 299 140 419 140 q 138 194 197 140 q 78 339 78 249 q 82 386 78 361 q 189 566 103 501 q 394 631 275 631 l 524 631 l 547 761 q 553 824 553 790 q 451 940 553 940 q 353 901 394 940 q 299 794 313 863 q 296 742 294 768 l 181 742 q 183 799 179 768 q 277 974 203 908 q 463 1040 351 1040 q 613 986 564 1040 q 663 835 663 932 q 653 743 663 799 l 633 631 l 861 631 l 931 1028 l 1231 1028 m 507 535 l 382 535 q 256 495 308 535 q 190 386 203 456 q 188 354 188 364 q 222 270 188 301 q 311 239 256 239 q 426 288 379 239 q 488 422 472 336 l 507 535 z "},"म":{"ha":1092,"x_min":36,"x_max":1218,"o":"m 1201 931 l 1019 931 l 856 0 l 739 0 l 833 535 l 579 535 l 560 428 q 458 215 536 289 q 261 140 381 140 q 100 194 160 140 q 40 336 40 247 q 44 386 40 361 q 151 566 64 501 q 356 631 238 631 l 488 631 l 540 931 l 36 931 l 53 1028 l 1218 1028 l 1201 931 m 903 931 l 649 931 l 596 631 l 850 631 l 903 931 m 469 535 l 342 535 q 205 485 260 535 q 150 356 150 436 q 184 271 150 303 q 274 239 218 239 q 389 287 343 239 q 450 422 435 335 l 469 535 z "},"य":{"ha":1024,"x_min":36,"x_max":1151,"o":"m 1133 931 l 951 931 l 788 0 l 672 0 l 725 300 q 595 195 675 235 q 413 156 515 156 q 178 237 264 156 q 93 458 93 318 q 101 547 93 501 q 117 613 103 557 l 138 613 q 331 664 258 613 q 425 835 403 715 l 442 931 l 36 931 l 53 1028 l 1151 1028 l 1133 931 m 836 931 l 556 931 l 536 815 q 215 546 490 557 l 214 536 q 207 469 207 497 q 270 310 207 368 q 446 253 333 253 q 591 286 524 253 q 704 379 658 319 q 763 517 750 439 l 763 515 l 836 931 z "},"र":{"ha":744,"x_min":38,"x_max":872,"o":"m 854 931 l 690 931 l 667 797 q 544 556 638 640 q 293 471 451 471 l 224 471 l 190 281 q 185 226 185 254 q 219 125 185 163 q 321 88 254 88 q 441 136 393 88 q 503 267 489 185 l 507 293 l 619 293 l 617 269 q 515 63 594 139 q 313 -12 436 -12 q 133 50 197 -12 q 69 215 69 113 q 76 288 69 257 l 125 565 l 271 565 q 550 797 508 565 l 574 931 l 38 931 l 54 1028 l 872 1028 l 854 931 z "},"ल":{"ha":1247,"x_min":28,"x_max":1375,"o":"m 1015 931 l 982 746 q 1101 663 1058 725 q 1143 507 1143 600 q 1136 429 1143 475 q 1010 188 1110 279 q 756 96 911 96 l 699 99 l 717 200 q 757 197 742 197 q 931 263 861 197 q 1019 433 1000 328 q 1025 490 1025 472 q 988 607 1025 563 q 879 651 950 651 q 728 583 788 651 q 647 397 668 514 l 643 376 l 547 376 l 549 397 q 558 483 558 451 q 522 606 558 561 q 415 651 486 651 q 267 592 325 651 q 192 433 210 532 q 186 375 186 406 q 233 245 186 293 q 372 197 281 197 q 411 200 383 197 l 393 99 q 351 96 360 96 q 141 169 214 96 q 68 364 68 243 q 75 440 68 396 q 192 671 100 588 q 413 754 283 754 q 567 695 515 754 q 624 553 618 636 l 626 553 q 720 685 660 629 q 869 751 781 740 l 901 931 l 28 931 l 46 1028 l 1375 1028 l 1357 931 l 1015 931 z "},"व":{"ha":936,"x_min":36,"x_max":1064,"o":"m 1064 1028 l 1046 931 l 864 931 l 700 0 l 588 0 l 636 276 q 517 172 589 211 q 354 133 444 133 q 157 203 231 133 q 83 393 83 272 q 90 469 83 436 q 158 635 107 564 q 287 744 210 706 q 454 782 364 782 q 609 744 547 782 q 700 642 671 706 l 750 931 l 36 931 l 53 1028 l 1064 1028 m 393 226 q 528 260 469 226 q 622 347 586 294 q 667 456 657 400 q 671 503 671 479 q 622 635 671 582 q 474 688 572 688 q 297 625 374 688 q 201 458 219 563 q 197 410 197 433 q 251 275 197 324 q 393 226 304 226 z "},"श":{"ha":1131,"x_min":79,"x_max":1258,"o":"m 508 1040 q 690 978 619 1040 q 760 808 760 915 q 753 743 760 781 q 616 521 725 597 q 353 444 507 444 l 229 444 l 203 292 q 197 236 197 265 q 233 128 197 168 q 343 89 269 89 q 476 144 422 89 q 544 293 529 199 l 658 293 q 556 72 639 154 q 336 -11 474 -11 q 147 53 214 -11 q 79 228 79 117 q 86 300 79 258 l 129 543 l 332 543 q 533 597 449 543 q 638 754 618 650 q 642 796 642 775 q 603 901 642 863 q 497 939 564 939 q 345 869 403 939 q 288 694 288 799 l 172 694 q 219 876 175 797 q 338 997 263 954 q 508 1040 413 1040 m 1258 1028 l 1240 931 l 1058 931 l 894 0 l 778 0 l 958 1028 l 1258 1028 z "},"ष":{"ha":918,"x_min":36,"x_max":1046,"o":"m 1028 931 l 846 931 l 682 0 l 568 0 l 636 385 q 528 298 592 329 q 385 267 465 267 q 195 339 264 267 q 126 533 126 411 q 135 618 126 575 l 192 931 l 36 931 l 53 1028 l 1046 1028 l 1028 931 m 732 931 l 304 931 l 671 585 l 671 588 l 732 931 m 422 365 q 554 403 497 365 q 643 504 611 442 l 288 840 l 247 615 q 242 550 242 583 q 289 415 242 464 q 422 365 336 365 z "},"स":{"ha":1138,"x_min":36,"x_max":1265,"o":"m 1247 931 l 1065 931 l 901 0 l 786 0 l 871 485 l 225 485 l 189 282 q 185 231 185 256 q 219 126 185 164 q 324 88 254 88 q 449 141 401 88 q 510 283 497 194 l 622 283 q 525 68 606 149 q 314 -12 444 -12 q 133 52 197 -12 q 69 225 69 117 q 75 293 69 261 l 125 571 l 254 571 q 442 633 371 571 q 532 804 513 696 l 554 931 l 36 931 l 54 1028 l 1265 1028 l 1247 931 m 950 931 l 669 931 l 647 804 q 522 581 622 661 l 888 581 l 950 931 z "},"ह":{"ha":826,"x_min":50,"x_max":954,"o":"m 954 1028 l 938 931 l 740 931 l 713 768 l 696 683 l 443 683 q 331 656 378 683 q 275 571 285 629 q 272 549 272 557 q 293 492 272 515 q 351 457 314 469 q 429 464 393 464 q 581 430 519 464 q 671 344 642 396 q 699 235 700 292 l 586 235 q 538 329 582 288 q 413 371 494 371 q 251 310 318 371 q 168 161 185 250 q 164 114 164 136 q 210 -3 164 40 q 340 -47 256 -47 q 477 -8 419 -47 q 560 86 535 32 l 671 86 q 605 -28 651 25 q 488 -112 558 -81 q 331 -144 418 -144 q 125 -74 199 -144 q 51 108 51 -4 q 57 168 51 140 q 122 320 71 253 q 250 424 174 388 q 185 478 210 444 q 161 560 161 513 q 164 593 161 571 q 249 724 181 679 q 421 768 318 768 l 600 768 l 631 931 l 50 931 l 67 1028 l 954 1028 z "},"ळ":{"ha":1375,"x_min":25,"x_max":1501,"o":"m 1111 931 l 1079 754 q 1218 671 1167 735 q 1269 510 1269 607 q 1264 444 1269 474 q 1196 282 1249 353 q 1066 172 1143 211 q 901 132 989 132 q 729 186 796 132 q 650 326 663 240 l 646 326 q 520 186 604 240 q 332 132 436 132 q 141 201 214 132 q 68 382 68 269 q 74 444 68 415 q 143 611 90 539 q 273 723 196 683 q 438 763 350 763 q 605 710 540 763 q 690 571 669 657 l 693 571 q 808 700 738 649 q 968 761 878 751 l 999 931 l 25 931 l 43 1028 l 1501 1028 l 1483 931 l 1111 931 m 611 444 q 615 490 615 468 q 567 615 615 568 q 438 663 519 663 q 274 602 344 663 q 188 443 204 542 q 183 399 183 421 q 233 277 183 322 q 363 232 282 232 q 525 291 456 232 q 611 444 594 350 m 1151 443 q 1156 489 1156 467 q 1107 615 1156 568 q 976 663 1058 663 q 813 601 882 663 q 726 444 744 540 q 722 400 722 422 q 769 278 722 324 q 900 232 817 232 q 1064 291 993 232 q 1151 443 1135 350 z "},"क़":{"ha":1382,"x_min":36,"x_max":1508,"o":"m 828 931 l 775 635 q 883 738 817 699 q 1036 776 950 776 q 1213 708 1146 776 q 1281 526 1281 639 q 1274 457 1281 496 q 1152 225 1247 308 q 928 142 1057 142 q 844 151 878 142 l 860 243 q 918 238 882 238 q 1072 297 1004 238 q 1158 458 1140 357 q 1163 504 1163 482 q 1115 630 1163 583 q 990 676 1068 676 q 832 617 894 676 q 746 469 769 557 l 664 0 l 553 0 l 601 279 q 490 175 558 214 q 333 136 422 136 q 151 204 221 136 q 81 389 81 272 q 88 461 81 419 q 155 627 104 556 q 280 738 206 699 q 440 776 354 776 q 588 737 532 776 q 664 632 644 697 l 717 931 l 36 931 l 53 1028 l 1508 1028 l 1490 931 l 828 931 m 381 233 q 544 295 479 235 q 629 436 608 356 l 635 463 q 638 500 638 488 q 593 626 638 575 q 457 676 549 676 q 294 617 367 676 q 206 458 222 557 q 201 408 201 432 q 251 280 201 326 q 381 233 300 233 m 353 -42 q 325 -106 353 -79 q 261 -132 297 -132 q 213 -114 231 -132 q 194 -68 194 -96 q 222 -3 194 -31 q 288 24 250 24 q 335 5 317 24 q 353 -42 353 -14 z "},"ख़":{"ha":1296,"x_min":36,"x_max":1424,"o":"m 1424 1028 l 1406 931 l 1224 931 l 1061 0 l 944 0 l 997 303 q 901 220 958 251 q 769 189 844 189 q 718 194 740 189 q 571 51 660 106 q 371 -4 482 -4 q 156 65 233 -4 q 78 260 78 135 q 85 338 78 292 l 124 554 l 172 554 q 407 763 372 554 l 436 931 l 36 931 l 54 1028 l 1424 1028 m 1108 931 l 553 931 l 521 749 q 415 536 494 603 q 224 468 335 469 l 199 325 q 193 274 193 289 q 246 145 193 193 q 392 97 299 97 q 531 135 469 97 q 632 232 593 174 q 567 313 590 263 q 544 425 544 363 q 550 488 544 458 q 608 629 564 568 q 717 724 653 690 q 857 757 782 757 q 987 726 936 757 q 1058 643 1038 696 l 1108 931 m 807 279 q 928 316 878 279 q 1006 407 979 353 q 1032 513 1032 461 q 992 622 1032 578 q 871 667 951 667 q 728 615 790 667 q 650 476 665 564 q 646 433 646 454 q 691 320 646 361 q 807 279 736 279 m 393 -178 q 365 -242 393 -215 q 301 -268 338 -268 q 253 -250 271 -268 q 235 -204 235 -232 q 263 -140 235 -167 q 328 -112 290 -112 q 375 -131 357 -112 q 393 -178 393 -150 z "},"ग़":{"ha":1036,"x_min":36,"x_max":1163,"o":"m 1163 1028 l 1146 931 l 963 931 l 799 0 l 683 0 l 846 931 l 599 931 l 533 556 q 449 379 515 447 q 268 311 382 311 q 119 362 172 311 q 67 496 67 413 q 72 549 67 513 l 81 590 l 194 590 l 186 547 q 182 510 182 529 q 205 439 182 467 q 276 411 228 411 q 374 451 340 411 q 417 551 407 492 l 483 931 l 36 931 l 53 1028 l 1163 1028 m 314 129 q 286 65 314 92 q 222 39 258 39 q 174 57 192 39 q 156 103 156 75 q 183 167 156 140 q 249 194 211 194 q 296 176 278 194 q 314 129 314 157 z "},"ज़":{"ha":1167,"x_min":36,"x_max":1294,"o":"m 1276 931 l 1096 931 l 931 0 l 815 0 l 919 593 l 657 593 l 633 461 q 527 259 611 336 q 319 182 443 182 q 152 243 214 182 q 90 406 90 304 q 96 465 90 438 l 136 693 l 253 693 l 213 464 q 208 417 208 439 q 241 319 208 356 q 332 283 274 283 q 454 333 404 283 q 519 464 504 382 l 561 693 l 938 693 l 979 931 l 36 931 l 53 1028 l 1294 1028 l 1276 931 m 365 7 q 338 -57 365 -31 q 274 -83 310 -83 q 225 -65 243 -83 q 207 -19 207 -47 q 235 45 207 18 q 300 72 263 72 q 347 53 329 72 q 365 7 365 35 z "},"ड़":{"ha":799,"x_min":39,"x_max":926,"o":"m 435 679 q 311 653 364 679 q 246 564 258 628 q 243 540 243 547 q 280 471 243 493 q 375 449 317 449 l 436 449 q 614 401 543 449 q 685 258 685 354 q 681 211 685 236 q 576 43 661 106 q 350 -19 490 -19 q 130 42 210 -19 q 50 207 50 104 q 53 249 50 235 l 168 249 q 165 217 165 226 q 215 110 165 150 q 358 69 264 69 q 515 120 457 69 q 572 247 572 171 q 524 338 572 310 q 401 365 476 365 l 346 365 q 192 405 257 365 q 128 529 128 444 q 131 567 128 553 q 228 715 149 668 q 415 763 308 763 l 574 763 l 604 931 l 39 931 l 56 1028 l 926 1028 l 910 931 l 717 931 l 671 679 l 435 679 m 385 -196 q 357 -260 385 -233 q 293 -286 329 -286 q 244 -268 263 -286 q 226 -222 226 -250 q 254 -158 226 -185 q 319 -131 282 -131 q 367 -149 349 -131 q 385 -196 385 -168 z "},"ढ़":{"ha":889,"x_min":35,"x_max":1017,"o":"m 569 692 q 319 614 425 692 q 188 390 213 536 q 182 331 182 363 q 251 161 182 225 q 443 97 321 97 q 619 149 544 97 q 708 282 693 200 q 711 310 711 301 q 679 393 711 361 q 594 425 647 425 q 498 392 539 425 q 447 304 457 360 q 444 276 444 288 l 360 276 q 363 318 360 293 q 447 459 378 408 q 613 510 515 510 q 757 459 703 510 q 811 324 811 408 q 807 279 811 303 q 683 85 785 158 q 431 11 582 11 q 243 50 325 11 q 115 160 161 89 q 69 326 69 232 q 76 399 69 357 q 166 606 97 522 q 335 733 235 690 q 551 775 435 775 l 606 775 l 633 931 l 35 931 l 53 1028 l 1017 1028 l 999 931 l 743 931 l 701 692 l 569 692 m 438 -164 q 410 -228 438 -201 q 346 -254 382 -254 q 297 -236 315 -254 q 279 -190 279 -218 q 307 -126 279 -153 q 372 -99 335 -99 q 419 -117 401 -99 q 438 -164 438 -136 z "},"फ़":{"ha":1368,"x_min":36,"x_max":1496,"o":"m 811 931 l 758 631 q 871 737 801 697 q 1031 776 940 776 q 1205 709 1139 776 q 1271 532 1271 642 q 1264 464 1271 503 q 1196 291 1246 364 q 1073 180 1146 218 q 917 142 1000 142 q 829 153 867 142 l 844 243 q 906 236 875 236 q 1061 296 994 236 q 1146 458 1128 356 q 1150 506 1150 483 q 1103 630 1150 583 q 979 676 1056 676 q 814 612 878 676 q 728 454 750 547 l 647 0 l 532 0 l 600 388 q 499 303 558 333 q 365 274 439 274 q 188 340 249 274 q 126 521 126 406 q 135 613 126 565 l 192 931 l 36 931 l 53 1028 l 1496 1028 l 1478 931 l 811 931 m 696 931 l 306 931 l 251 613 q 243 536 243 571 q 284 415 243 458 q 407 372 325 372 q 558 434 497 372 q 635 586 619 496 l 696 931 m 365 103 q 338 39 365 65 q 274 13 310 13 q 225 31 243 13 q 207 76 207 49 q 235 141 207 114 q 300 168 263 168 q 347 149 329 168 q 365 103 365 131 z "},"ऱ":{"ha":744,"x_min":-26,"x_max":872,"o":"m 854 931 l 690 931 l 667 797 q 544 556 638 640 q 293 471 451 471 l 224 471 l 190 281 q 185 226 185 254 q 219 125 185 163 q 321 88 254 88 q 441 136 393 88 q 503 267 489 185 l 507 293 l 619 293 l 617 269 q 515 63 594 139 q 313 -12 436 -12 q 133 50 197 -12 q 69 215 69 113 q 76 288 69 257 l 125 565 l 271 565 q 550 797 508 565 l 574 931 l 38 931 l 54 1028 l 872 1028 l 854 931 m 132 -132 q 104 -196 132 -169 q 40 -222 76 -222 q -8 -204 10 -222 q -26 -158 -26 -186 q 1 -94 -26 -121 q 67 -67 29 -67 q 114 -85 96 -67 q 132 -132 132 -104 z "},"ं":{"ha":0,"x_min":-157,"x_max":1,"o":"m 1 1251 q -26 1187 1 1214 q -90 1160 -54 1160 q -139 1178 -121 1160 q -157 1225 -157 1197 q -129 1288 -157 1261 q -65 1315 -101 1315 q -17 1297 -36 1315 q 1 1251 1 1279 z "},"ँ":{"ha":0,"x_min":-339,"x_max":231,"o":"m 13 1421 q -11 1381 8 1397 q -56 1364 -31 1364 q -91 1377 -78 1364 q -104 1410 -104 1390 q -83 1458 -104 1438 q -35 1479 -62 1479 q 1 1466 -12 1479 q 14 1433 14 1453 q 13 1421 14 1425 m 231 1381 q 129 1206 211 1275 q -87 1136 47 1136 q -272 1193 -206 1136 q -339 1338 -339 1250 q -335 1381 -339 1360 l -242 1381 q -243 1356 -243 1372 q -203 1260 -243 1299 q -82 1221 -162 1221 q 67 1269 8 1221 q 136 1381 125 1317 l 231 1381 z "},"ः":{"ha":322,"x_min":44,"x_max":278,"o":"m 278 696 q 250 632 278 658 q 185 606 222 606 q 138 624 157 606 q 119 668 119 642 q 147 733 119 706 q 213 761 175 761 q 260 742 242 761 q 278 696 278 724 m 203 275 q 175 211 203 239 q 111 183 147 183 q 63 202 82 183 q 44 249 44 221 q 73 312 44 285 q 138 339 101 339 q 184 321 165 339 q 203 275 203 303 z "},"ऽ":{"ha":800,"x_min":31,"x_max":753,"o":"m 31 85 l 49 185 l 381 185 q 465 209 433 185 q 503 272 497 233 q 504 290 504 278 q 475 369 504 331 q 385 468 446 408 q 268 601 308 543 q 228 728 228 658 q 232 767 228 746 q 313 893 247 853 q 471 933 378 933 l 753 933 l 736 835 l 482 835 q 394 816 432 835 q 347 750 356 797 q 346 732 346 744 q 376 649 346 689 q 467 549 406 608 q 548 463 518 497 q 599 384 578 428 q 621 292 621 340 q 560 144 621 204 q 390 85 499 85 l 31 85 z "},"्":{"ha":0,"x_min":-361,"x_max":-124,"o":"m -242 -361 l -361 -85 l -246 -85 l -124 -361 l -242 -361 z "},"़":{"ha":0,"x_min":-578,"x_max":-419,"o":"m -419 -115 q -447 -179 -419 -153 q -511 -206 -475 -206 q -560 -187 -542 -206 q -578 -142 -578 -169 q -550 -77 -578 -104 q -485 -50 -522 -50 q -437 -69 -456 -50 q -419 -115 -419 -87 z "},"०":{"ha":872,"x_min":86,"x_max":822,"o":"m 106 504 q 248 874 147 740 q 543 1007 349 1007 q 758 926 693 1007 q 822 699 822 844 q 803 504 822 613 q 660 133 761 267 q 365 0 560 0 q 151 81 215 0 q 86 310 86 163 q 106 504 86 396 m 679 504 q 699 686 699 618 q 659 838 699 785 q 524 892 619 892 q 371 841 429 892 q 281 707 313 790 q 229 504 250 624 q 210 321 210 390 q 249 169 210 222 q 385 115 289 115 q 538 166 479 115 q 626 300 596 217 q 679 504 657 383 z "},"१":{"ha":444,"x_min":115,"x_max":417,"o":"m 135 869 l 156 985 l 417 985 l 243 0 l 115 0 l 268 869 l 135 869 z "},"२":{"ha":799,"x_min":1,"x_max":772,"o":"m 18 101 q 336 334 219 244 q 538 522 453 424 q 640 713 624 619 q 644 763 644 738 q 607 865 644 828 q 488 903 569 903 q 332 844 394 903 q 247 686 269 785 l 125 686 q 263 926 158 842 q 507 1011 367 1011 q 702 950 632 1011 q 772 781 772 889 q 767 718 772 747 q 659 499 747 607 q 468 308 571 390 q 211 117 365 226 l 689 117 l 671 11 l 1 11 l 18 101 z "},"३":{"ha":818,"x_min":47,"x_max":783,"o":"m 144 751 q 279 951 176 879 q 524 1024 382 1024 q 717 966 650 1024 q 783 814 783 908 q 779 765 783 790 q 704 617 764 679 q 561 536 644 554 l 561 529 q 676 460 635 511 q 717 329 717 410 q 711 271 717 313 q 592 71 689 149 q 344 -7 496 -7 q 128 60 208 -7 q 47 250 47 126 q 49 289 47 275 l 171 289 q 215 153 165 206 q 361 100 264 100 q 518 151 457 100 q 593 282 579 201 q 597 324 597 306 q 535 441 597 404 q 347 478 472 478 l 314 478 l 333 583 l 368 583 q 568 626 496 585 q 656 753 640 667 q 658 786 658 775 q 618 881 658 846 q 500 915 578 915 q 353 871 414 915 q 268 751 292 826 l 144 751 z "},"४":{"ha":874,"x_min":24,"x_max":822,"o":"m 24 224 l 40 319 l 647 994 l 799 994 l 683 333 l 822 333 l 801 224 l 663 224 l 624 0 l 499 0 l 539 224 l 24 224 m 657 863 l 190 333 l 564 333 l 657 863 z "},"५":{"ha":872,"x_min":76,"x_max":833,"o":"m 815 894 l 326 894 l 271 578 q 378 651 311 622 q 517 679 444 679 q 724 607 660 679 q 789 424 789 535 q 782 347 789 389 q 649 95 754 193 q 376 -3 544 -3 q 153 72 231 -3 q 79 272 76 147 l 201 272 q 257 149 206 193 q 396 104 308 104 q 574 170 506 104 q 661 344 642 236 q 667 404 667 372 q 620 528 667 485 q 481 571 574 571 q 345 535 406 571 q 249 439 285 500 l 129 439 l 229 1006 l 833 1006 l 815 894 z "},"६":{"ha":882,"x_min":101,"x_max":833,"o":"m 710 765 q 669 880 707 840 q 547 919 631 919 q 346 824 424 919 q 231 511 268 729 q 357 624 275 583 q 531 665 439 665 q 722 599 653 665 q 792 413 792 533 q 785 331 792 367 q 718 161 768 236 q 586 42 668 86 q 397 -3 504 -3 q 169 77 238 -3 q 101 307 101 157 q 122 515 101 403 q 568 1025 213 1025 q 769 951 704 1025 q 826 765 833 878 l 710 765 m 485 558 q 368 534 425 558 q 270 460 311 510 q 217 340 229 411 q 211 286 211 301 q 261 153 211 203 q 410 103 311 103 q 576 163 507 103 q 663 326 644 224 q 668 388 668 354 q 622 513 668 468 q 485 558 575 558 z "},"७":{"ha":758,"x_min":108,"x_max":811,"o":"m 793 906 l 247 0 l 108 0 l 668 894 l 133 894 l 151 1001 l 811 1001 l 793 906 z "},"८":{"ha":876,"x_min":56,"x_max":836,"o":"m 293 533 q 200 606 232 560 q 168 714 168 651 q 172 763 168 738 q 235 899 186 839 q 364 995 283 960 q 550 1031 444 1031 q 763 969 689 1031 q 836 811 836 908 q 832 763 836 788 q 764 622 818 682 q 629 533 710 561 q 739 458 700 510 q 778 329 778 406 q 774 276 778 304 q 700 115 757 183 q 556 9 643 46 q 363 -28 468 -28 q 138 38 221 -28 q 56 218 56 104 q 61 276 56 249 q 140 440 78 374 q 293 533 203 507 m 531 925 q 372 879 436 925 q 292 747 307 833 q 289 717 289 725 q 338 613 289 651 q 469 574 386 574 q 593 601 538 574 q 680 676 649 628 q 711 785 711 724 q 663 888 711 851 q 531 925 615 925 m 451 478 q 274 428 349 478 q 183 281 200 379 q 179 240 179 260 q 233 122 179 165 q 382 78 286 78 q 561 133 489 78 q 649 281 633 189 q 653 324 653 304 q 598 439 653 400 q 451 478 543 478 z "},"९":{"ha":875,"x_min":107,"x_max":825,"o":"m 225 269 q 269 147 226 189 q 399 104 313 104 q 584 194 513 104 q 690 499 656 285 q 575 401 650 436 q 417 365 500 365 q 219 431 293 365 q 146 618 146 497 q 153 693 146 649 q 281 933 179 842 q 543 1024 383 1024 q 759 947 693 1024 q 825 722 825 871 q 804 521 825 643 q 723 232 774 346 q 587 58 672 118 q 372 -1 501 -1 q 173 66 239 -1 q 107 242 107 133 q 108 269 107 260 l 225 269 m 457 472 q 620 530 550 472 q 707 686 690 588 q 713 742 713 725 q 665 871 713 824 q 526 918 617 918 q 361 857 429 918 q 275 696 293 796 q 271 643 271 669 q 317 518 271 564 q 457 472 364 472 z "},"ॐ":{"ha":1467,"x_min":36,"x_max":1343,"o":"m 899 1261 q 861 1278 875 1261 q 851 1319 847 1294 q 874 1360 854 1343 q 918 1378 894 1378 q 954 1364 940 1378 q 968 1329 968 1350 q 947 1281 968 1301 q 899 1261 926 1261 m 874 1033 q 682 1090 749 1033 q 615 1235 615 1147 q 619 1278 615 1257 l 714 1278 q 711 1253 711 1261 q 754 1158 711 1197 q 879 1119 797 1119 q 1025 1166 971 1119 q 1090 1278 1079 1213 l 1185 1278 q 1089 1102 1168 1171 q 874 1033 1010 1033 m 1122 953 q 1343 726 1343 953 q 1332 610 1343 676 l 1299 421 q 1163 131 1264 228 q 878 35 1061 35 q 743 49 824 35 l 760 146 q 876 135 829 135 q 1090 207 1019 135 q 1186 424 1161 279 l 1222 624 q 1231 711 1231 672 q 1201 817 1231 781 q 1104 854 1171 854 q 979 806 1024 854 q 921 678 935 758 q 826 483 896 542 q 624 425 756 425 l 622 425 q 636 344 636 389 q 632 293 636 321 q 518 92 610 168 q 297 17 426 17 q 106 78 176 17 q 36 244 36 140 q 40 299 36 272 l 150 299 q 147 263 147 286 q 192 157 147 197 q 310 117 236 117 q 452 169 393 117 q 526 304 511 221 q 529 336 529 326 q 488 442 529 399 q 361 485 447 485 l 307 485 l 325 583 l 379 583 q 521 632 465 583 q 588 747 576 681 q 590 783 590 760 q 549 883 590 846 q 444 919 508 919 q 312 876 369 919 q 242 761 254 832 l 132 761 q 246 948 154 878 q 464 1018 338 1018 q 638 963 572 1018 q 703 811 703 907 q 699 763 703 788 q 628 618 682 678 q 489 539 574 558 l 489 535 q 542 517 521 528 l 625 517 q 749 553 701 517 q 813 679 796 590 q 910 881 836 810 q 1122 953 983 953 z "},"॰":{"ha":685,"x_min":108,"x_max":578,"o":"m 383 708 q 525 658 472 708 q 578 525 578 607 q 574 482 578 506 q 482 322 556 385 q 308 260 408 260 q 163 310 218 260 q 108 442 108 360 q 113 485 108 463 q 206 646 131 583 q 383 708 281 708 m 372 636 q 278 613 321 636 q 209 548 235 589 q 183 456 183 507 q 220 367 183 401 q 319 333 257 333 q 447 385 394 333 q 500 513 500 436 q 465 602 500 568 q 372 636 431 636 z "},"।":{"ha":392,"x_min":128,"x_max":422,"o":"m 422 1029 l 242 0 l 128 0 l 308 1029 l 422 1029 z "},"॥":{"ha":685,"x_min":128,"x_max":715,"o":"m 422 1029 l 242 0 l 128 0 l 308 1029 l 422 1029 m 715 1029 l 535 0 l 419 0 l 600 1029 l 715 1029 z "},"₨":{"ha":1540,"x_min":36,"x_max":1442,"o":"m 521 968 q 738 906 665 968 q 810 740 810 843 q 804 683 810 722 q 710 503 786 579 q 504 406 635 426 l 697 0 l 543 0 l 358 400 l 235 400 l 163 0 l 36 0 l 208 968 l 521 968 m 675 683 q 679 729 679 707 q 503 868 679 868 l 317 868 l 251 500 l 438 500 q 601 549 542 500 q 675 683 660 599 m 1311 532 q 1282 634 1317 596 q 1174 672 1247 672 q 1057 640 1103 672 q 1000 554 1011 607 q 999 535 999 547 q 1022 480 999 501 q 1078 447 1044 458 q 1171 422 1113 436 q 1289 389 1244 406 q 1365 338 1333 372 q 1396 247 1396 304 q 1392 206 1396 229 q 1336 93 1381 143 q 1224 15 1292 43 q 1075 -12 1156 -12 q 885 44 954 -12 q 815 201 815 100 q 817 231 815 221 l 947 231 q 979 128 940 167 q 1093 89 1018 89 q 1212 122 1165 89 q 1268 208 1258 156 q 1269 228 1269 215 q 1246 284 1269 263 q 1188 317 1222 306 q 1093 343 1153 329 q 978 376 1022 360 q 903 426 933 393 q 872 513 872 458 q 914 642 872 582 q 1031 738 956 701 q 1200 774 1106 774 q 1378 718 1314 774 q 1442 565 1442 663 q 1440 532 1442 543 l 1311 532 z "},"₹":{"ha":882,"x_min":104,"x_max":926,"o":"m 708 750 l 704 726 l 883 726 l 867 635 l 682 635 q 600 485 651 539 q 465 407 549 431 q 249 383 381 383 l 229 274 q 224 217 224 246 q 361 86 224 86 q 553 267 521 86 l 671 267 q 560 57 644 128 q 342 -14 475 -14 q 164 42 224 -14 q 104 203 104 99 q 111 276 104 232 l 146 472 q 382 483 304 472 q 501 527 460 493 q 564 635 542 561 l 111 635 l 128 726 l 586 726 l 590 751 l 613 876 l 154 876 l 171 969 l 926 969 l 910 876 l 731 876 l 708 750 z "},"‌":{"ha":0,"x_min":-32,"x_max":33,"o":"m -32 -319 l -32 1126 l 33 1126 l 33 -319 l -32 -319 z "},"‍":{"ha":0,"x_min":-178,"x_max":178,"o":"m 132 778 l 32 882 l 32 -319 l -33 -319 l -33 882 l -129 781 l -175 826 l -46 956 l -178 1088 l -132 1133 l 0 1001 l 133 1133 l 178 1089 l 44 956 l 178 824 l 132 778 z "},"◌":{"ha":904,"x_min":69,"x_max":835,"o":"m 478 692 q 461 649 478 665 q 418 633 444 633 q 375 649 392 633 q 358 692 358 665 q 375 734 358 718 q 418 750 392 750 q 461 734 444 750 q 478 692 478 718 m 646 671 q 629 628 646 644 q 586 613 613 613 q 543 628 560 613 q 526 671 526 644 q 543 713 526 697 q 586 729 560 729 q 629 713 613 729 q 646 671 646 697 m 315 633 q 299 591 315 607 q 256 575 282 575 q 213 591 229 575 q 196 633 196 607 q 213 676 196 660 q 256 692 229 692 q 299 676 282 692 q 315 633 315 660 m 774 568 q 757 526 774 542 q 714 510 740 510 q 671 526 688 510 q 654 568 654 542 q 671 610 654 594 q 714 626 688 626 q 757 610 740 626 q 774 568 774 594 m 210 496 q 193 453 210 469 q 150 438 176 438 q 107 453 124 438 q 90 496 90 469 q 107 538 90 522 q 150 554 124 554 q 193 538 176 554 q 210 496 210 522 m 835 410 q 818 367 835 383 q 775 351 801 351 q 732 367 749 351 q 715 410 715 383 q 732 452 715 436 q 775 468 749 468 q 818 452 801 468 q 835 410 835 436 m 189 328 q 172 285 189 301 q 129 269 156 269 q 86 285 103 269 q 69 328 69 301 q 86 370 69 354 q 129 386 103 386 q 172 370 156 386 q 189 328 189 354 m 821 243 q 804 201 821 217 q 761 185 788 185 q 718 201 735 185 q 701 243 701 217 q 718 285 701 269 q 761 301 735 301 q 804 285 788 301 q 821 243 821 269 m 251 171 q 235 128 251 144 q 192 113 218 113 q 149 128 165 113 q 132 171 132 144 q 149 213 132 197 q 192 229 165 229 q 235 213 218 229 q 251 171 251 197 m 719 110 q 703 67 719 83 q 660 51 686 51 q 617 67 633 51 q 600 110 600 83 q 617 152 600 136 q 660 168 633 168 q 703 152 686 168 q 719 110 719 136 m 388 65 q 371 23 388 39 q 328 7 354 7 q 285 23 301 7 q 268 65 268 39 q 285 108 268 92 q 328 124 301 124 q 371 108 354 124 q 388 65 388 92 m 560 46 q 543 3 560 19 q 500 -12 526 -12 q 457 3 474 -12 q 440 46 440 19 q 457 88 440 72 q 500 104 474 104 q 543 88 526 104 q 560 46 560 72 z "},"!":{"ha":414,"x_min":64,"x_max":371,"o":"m 371 968 l 233 274 l 128 274 l 236 968 l 371 968 m 136 -8 q 84 11 104 -8 q 64 63 64 31 q 94 134 64 104 q 167 164 125 164 q 218 144 199 164 q 238 93 238 125 q 207 22 238 51 q 136 -8 176 -8 z "},"\"":{"ha":406,"x_min":142,"x_max":479,"o":"m 293 1106 l 229 829 l 142 829 l 174 1106 l 293 1106 m 479 1106 l 417 829 l 329 829 l 361 1106 l 479 1106 z "},"#":{"ha":1167,"x_min":25,"x_max":1153,"o":"m 917 639 l 818 389 l 1011 389 l 990 278 l 775 278 l 667 0 l 546 0 l 654 278 l 363 278 l 254 0 l 133 0 l 242 278 l 25 278 l 44 389 l 285 389 l 383 639 l 167 639 l 188 750 l 426 750 l 535 1028 l 656 1028 l 547 750 l 839 750 l 947 1028 l 1068 1028 l 960 750 l 1153 750 l 1133 639 l 917 639 m 796 639 l 504 639 l 406 389 l 697 389 l 796 639 z "},"$":{"ha":864,"x_min":56,"x_max":785,"o":"m 643 732 q 617 819 646 779 q 531 871 588 858 l 471 533 q 597 493 547 514 q 680 431 646 472 q 714 321 714 389 q 708 265 714 293 q 653 138 697 199 q 538 38 610 78 q 375 -8 467 -3 l 356 -121 l 281 -121 l 300 -8 q 122 60 188 1 q 56 210 56 118 q 58 251 56 238 l 193 251 q 219 150 189 193 q 318 96 250 107 l 379 443 q 251 485 300 465 q 167 547 201 506 q 133 656 133 588 q 139 711 133 685 q 249 898 157 825 q 474 979 342 971 l 494 1094 l 569 1094 l 549 979 q 725 903 665 968 q 778 732 785 838 l 643 732 m 268 718 q 265 686 265 696 q 301 605 265 635 q 400 554 336 575 l 456 875 q 331 829 382 869 q 268 718 281 789 m 581 258 q 583 289 583 281 q 549 371 583 342 q 451 422 515 400 l 393 94 q 519 149 469 104 q 581 258 568 193 z "},"%":{"ha":938,"x_min":53,"x_max":913,"o":"m 124 778 q 207 926 140 871 q 363 982 274 982 q 487 939 440 982 q 533 821 533 896 q 529 778 533 801 q 445 628 513 685 q 290 572 378 572 q 166 615 213 572 q 119 733 119 658 q 124 778 119 756 m 913 969 l 179 0 l 53 0 l 788 969 l 913 969 m 349 904 q 267 872 300 904 q 224 778 233 839 q 219 740 219 757 q 242 674 219 697 q 304 651 264 651 q 385 684 351 651 q 429 778 418 717 q 432 813 432 790 q 410 881 432 857 q 349 904 388 904 m 440 192 q 524 342 457 286 q 679 397 590 397 q 802 354 756 397 q 849 236 849 311 q 844 192 849 215 q 761 42 828 99 q 607 -14 694 -14 q 483 29 529 -14 q 436 147 436 72 q 440 192 436 169 m 664 318 q 583 286 617 318 q 539 192 550 254 q 535 156 535 171 q 558 90 535 113 q 619 67 581 67 q 700 99 667 67 q 744 192 733 131 q 747 228 747 204 q 725 295 747 272 q 664 318 703 318 z "},"&":{"ha":1042,"x_min":29,"x_max":990,"o":"m 842 306 q 769 218 804 254 l 949 0 l 785 0 l 681 128 q 510 19 597 54 q 324 -17 424 -17 q 108 49 188 -17 q 29 231 29 115 q 107 438 29 347 q 315 579 185 529 q 274 654 288 619 q 261 725 261 689 q 299 861 261 801 q 403 954 336 921 q 556 988 469 988 q 710 938 653 988 q 767 810 767 888 q 764 772 767 797 l 638 772 q 639 793 639 779 q 610 859 639 835 q 536 883 582 883 q 432 843 474 883 q 390 746 390 803 q 407 678 390 713 q 460 596 424 644 l 699 306 l 731 346 l 854 503 l 990 503 l 842 306 m 342 92 q 481 121 415 92 q 613 213 546 150 l 379 497 q 217 397 276 460 q 158 249 158 333 q 208 135 158 179 q 342 92 258 92 z "},"'":{"ha":221,"x_min":143,"x_max":296,"o":"m 296 1106 l 231 829 l 143 829 l 174 1106 l 296 1106 z "},"(":{"ha":632,"x_min":153,"x_max":746,"o":"m 319 -258 q 196 -24 239 -161 q 153 276 153 114 q 208 660 153 468 q 368 1019 264 853 q 614 1297 472 1185 l 746 1297 l 744 1285 q 497 1010 603 1169 q 335 667 392 850 q 278 301 278 485 q 322 6 278 146 q 453 -246 367 -135 l 451 -258 l 319 -258 z "},")":{"ha":631,"x_min":-44,"x_max":524,"o":"m -44 -258 l -43 -246 q 282 192 164 -65 q 400 718 400 450 q 352 1028 400 882 q 206 1285 304 1174 l 208 1297 l 340 1297 q 477 1054 431 1197 q 524 740 524 911 q 471 368 524 556 q 319 17 418 181 q 88 -258 219 -146 l -44 -258 z "},"*":{"ha":675,"x_min":133,"x_max":665,"o":"m 631 931 l 665 840 l 457 760 l 636 679 l 571 588 l 422 710 l 408 500 l 306 500 l 363 710 l 171 586 l 133 681 l 342 761 l 164 840 l 229 931 l 381 808 l 396 1019 l 500 1019 l 439 808 l 631 931 z "},"+":{"ha":949,"x_min":131,"x_max":858,"o":"m 838 451 l 544 451 l 492 154 l 371 154 l 424 451 l 131 451 l 150 564 l 443 564 l 496 863 l 617 863 l 564 564 l 858 564 l 838 451 z "},",":{"ha":275,"x_min":-108,"x_max":197,"o":"m 197 175 l -24 -199 l -108 -199 l 58 175 l 197 175 z "},"-":{"ha":765,"x_min":90,"x_max":664,"o":"m 664 563 l 644 456 l 90 456 l 110 563 l 664 563 z "},".":{"ha":292,"x_min":3,"x_max":176,"o":"m 75 -8 q 23 11 43 -8 q 3 63 3 31 q 33 134 3 104 q 106 164 64 164 q 157 144 138 164 q 176 93 176 125 q 146 22 176 51 q 75 -8 115 -8 z "},"/":{"ha":661,"x_min":-39,"x_max":739,"o":"m 739 1308 l 86 -236 l -39 -236 l 613 1308 l 739 1308 z "},":":{"ha":296,"x_min":3,"x_max":176,"o":"m 75 -8 q 23 11 43 -8 q 3 63 3 31 q 33 134 3 104 q 106 164 64 164 q 157 144 138 164 q 176 93 176 125 q 146 22 176 51 q 75 -8 115 -8 m 75 586 q 23 606 43 586 q 3 657 3 625 q 33 728 3 699 q 106 758 64 758 q 157 739 138 758 q 176 688 176 719 q 146 616 176 646 q 75 586 115 586 z "},";":{"ha":367,"x_min":-74,"x_max":322,"o":"m 221 588 q 169 607 189 588 q 149 658 149 626 q 179 730 149 700 q 251 760 210 760 q 303 740 283 760 q 322 689 322 721 q 292 617 322 647 q 221 588 261 588 m 232 175 l 11 -199 l -74 -199 l 93 175 l 232 175 z "},"<":{"ha":771,"x_min":136,"x_max":686,"o":"m 415 189 l 136 508 l 526 826 l 686 826 l 294 508 l 574 189 l 415 189 z "},"=":{"ha":1004,"x_min":124,"x_max":918,"o":"m 918 714 l 899 601 l 176 601 l 196 714 l 918 714 m 865 415 l 846 303 l 124 303 l 143 415 l 865 415 z "},">":{"ha":749,"x_min":94,"x_max":644,"o":"m 207 826 l 365 826 l 644 508 l 254 189 l 94 189 l 486 508 l 207 826 z "},"?":{"ha":728,"x_min":104,"x_max":719,"o":"m 457 981 q 649 920 578 981 q 719 754 719 860 q 714 694 719 722 q 585 478 688 549 q 329 408 482 408 l 300 276 l 190 276 l 224 496 l 264 496 q 488 538 403 496 q 593 694 572 579 q 597 735 597 715 q 556 838 597 800 q 440 875 514 875 q 296 828 354 875 q 224 701 238 782 l 104 701 q 167 848 118 785 q 292 946 217 911 q 457 981 368 981 m 194 -8 q 142 11 163 -8 q 122 63 122 31 q 153 134 122 104 q 225 164 183 164 q 276 144 257 164 q 296 93 296 125 q 265 22 296 51 q 194 -8 235 -8 z "},"@":{"ha":1404,"x_min":96,"x_max":1301,"o":"m 797 890 q 1065 832 951 890 q 1240 669 1179 774 q 1301 426 1301 564 q 1265 216 1301 317 q 1160 53 1229 115 q 1000 -10 1092 -10 q 893 25 931 -10 q 849 119 856 60 q 740 25 806 60 q 601 -10 675 -10 q 435 55 496 -10 q 375 229 375 119 q 419 424 375 333 q 540 569 463 514 q 715 624 618 624 q 893 524 847 624 l 908 610 l 1019 610 l 949 208 q 944 160 944 183 q 1018 76 944 76 q 1116 129 1075 76 q 1178 262 1157 182 q 1199 419 1199 342 q 1089 701 1199 601 q 781 801 979 801 q 484 722 617 801 q 276 503 351 642 q 200 196 200 364 q 310 -87 200 13 q 619 -186 421 -186 q 849 -139 750 -186 l 867 -225 q 593 -276 742 -276 q 332 -220 444 -276 q 158 -59 219 -164 q 96 185 96 46 q 186 542 96 381 q 437 797 276 703 q 797 890 597 890 m 639 89 q 753 125 701 89 q 836 224 806 161 q 867 361 867 286 q 828 481 867 435 q 715 526 789 526 q 598 487 649 526 q 520 383 547 447 q 493 249 493 319 q 530 132 493 175 q 639 89 567 89 z "},"A":{"ha":936,"x_min":-25,"x_max":819,"o":"m 647 215 l 224 215 l 108 0 l -25 0 l 494 963 l 640 963 l 819 0 l 686 0 l 647 215 m 629 314 l 540 808 l 276 314 l 629 314 z "},"B":{"ha":851,"x_min":36,"x_max":821,"o":"m 817 722 q 745 580 801 636 q 608 499 689 524 q 719 433 676 488 q 763 303 763 378 q 758 260 763 281 q 698 127 746 186 q 572 34 650 68 q 397 0 494 0 l 36 0 l 208 968 l 556 968 q 753 913 686 968 q 821 768 821 857 q 817 722 821 746 m 686 707 q 689 742 689 719 q 647 835 689 801 q 526 868 606 868 l 317 868 l 260 547 l 472 547 q 617 590 560 547 q 686 707 674 632 m 633 272 q 638 308 638 292 q 590 410 638 372 q 461 447 543 447 l 242 447 l 181 100 l 404 100 q 558 146 497 100 q 633 272 619 192 z "},"C":{"ha":1072,"x_min":67,"x_max":1043,"o":"m 75 485 q 184 740 100 626 q 390 917 268 853 q 644 981 511 981 q 908 904 803 981 q 1043 688 1013 828 l 892 688 q 799 819 867 772 q 625 865 731 865 q 435 819 524 865 q 286 685 347 772 q 204 485 225 599 q 197 401 197 449 q 277 185 197 265 q 490 106 357 106 q 681 151 596 106 q 819 282 765 197 l 971 282 q 760 67 892 143 q 471 -8 629 -8 q 261 41 353 -8 q 118 180 169 90 q 67 386 67 269 q 75 485 67 435 z "},"D":{"ha":982,"x_min":36,"x_max":946,"o":"m 510 968 q 831 868 717 968 q 946 590 946 768 q 936 482 946 535 q 828 224 910 333 q 622 58 747 115 q 338 0 496 0 l 36 0 l 208 968 l 510 968 m 356 97 q 658 199 542 97 q 807 482 775 301 q 815 576 815 532 q 733 790 815 714 q 492 865 651 865 l 317 865 l 181 97 l 356 97 z "},"E":{"ha":713,"x_min":36,"x_max":728,"o":"m 317 869 l 258 538 l 610 538 l 593 440 l 242 440 l 181 100 l 575 100 l 557 0 l 36 0 l 208 969 l 728 969 l 710 869 l 317 869 z "},"F":{"ha":700,"x_min":36,"x_max":754,"o":"m 754 968 l 736 869 l 317 869 l 258 538 l 600 538 l 582 439 l 240 439 l 163 0 l 36 0 l 208 968 l 754 968 z "},"G":{"ha":1081,"x_min":67,"x_max":1043,"o":"m 75 485 q 184 740 100 626 q 390 916 268 853 q 647 979 513 979 q 908 903 803 979 q 1043 688 1013 826 l 892 688 q 798 819 867 772 q 628 865 729 865 q 437 819 526 865 q 286 685 347 772 q 204 485 225 599 q 197 401 197 449 q 278 185 197 265 q 493 106 358 106 q 743 191 636 106 q 890 422 850 276 l 504 422 l 522 522 l 1043 522 l 1025 425 q 912 206 993 306 q 716 49 831 107 q 474 -8 601 -8 q 262 41 354 -8 q 118 181 169 90 q 67 388 67 271 q 75 485 67 435 z "},"H":{"ha":960,"x_min":36,"x_max":953,"o":"m 953 968 l 782 0 l 656 0 l 733 442 l 242 442 l 163 0 l 36 0 l 208 968 l 335 968 l 258 540 l 751 540 l 826 968 l 953 968 z "},"I":{"ha":342,"x_min":36,"x_max":335,"o":"m 335 968 l 163 0 l 36 0 l 208 968 l 335 968 z "},"J":{"ha":736,"x_min":28,"x_max":694,"o":"m 694 968 l 568 253 q 460 61 546 132 q 254 -10 375 -10 q 88 46 149 -10 q 28 200 28 101 q 33 263 28 233 l 160 263 q 156 221 156 242 q 185 135 156 167 q 275 103 214 103 q 387 145 344 103 q 442 253 429 188 l 567 968 l 694 968 z "},"K":{"ha":832,"x_min":36,"x_max":893,"o":"m 369 483 l 726 0 l 561 0 l 242 442 l 163 0 l 36 0 l 208 968 l 335 968 l 256 521 l 735 968 l 893 968 l 369 483 z "},"L":{"ha":600,"x_min":36,"x_max":519,"o":"m 181 97 l 519 97 l 501 0 l 36 0 l 208 968 l 335 968 l 181 97 z "},"M":{"ha":1196,"x_min":36,"x_max":1188,"o":"m 1188 961 l 1018 0 l 892 0 l 1018 717 l 572 0 l 483 0 l 289 714 l 163 0 l 36 0 l 207 961 l 343 961 l 558 167 l 1053 961 l 1188 961 z "},"N":{"ha":976,"x_min":36,"x_max":969,"o":"m 797 0 l 671 0 l 300 771 l 163 0 l 36 0 l 208 969 l 335 969 l 707 200 l 843 969 l 969 969 l 797 0 z "},"O":{"ha":1092,"x_min":72,"x_max":1050,"o":"m 478 -10 q 265 41 357 -10 q 123 183 174 92 q 72 393 72 275 q 147 691 72 557 q 351 902 221 825 q 643 979 482 979 q 858 928 765 979 q 1000 787 950 878 q 1050 578 1050 696 q 976 278 1050 413 q 771 67 901 144 q 478 -10 640 -10 m 496 104 q 715 167 618 104 q 865 338 811 231 q 919 569 919 444 q 840 786 919 707 q 625 865 761 865 q 406 802 503 865 q 256 633 310 739 q 203 401 203 526 q 281 184 203 264 q 496 104 360 104 z "},"P":{"ha":804,"x_min":36,"x_max":810,"o":"m 804 685 q 686 484 783 564 q 421 404 589 404 l 235 404 l 163 0 l 36 0 l 208 968 l 521 968 q 738 906 665 968 q 810 742 810 844 q 804 685 810 724 m 439 504 q 601 552 543 504 q 675 685 660 600 q 679 731 679 710 q 503 868 679 868 l 317 868 l 253 504 l 439 504 z "},"Q":{"ha":1094,"x_min":72,"x_max":1050,"o":"m 1050 578 q 968 265 1050 404 q 746 54 886 126 l 944 -183 l 781 -183 l 624 8 q 478 -10 557 -10 q 265 41 357 -10 q 123 183 174 92 q 72 393 72 275 q 147 691 72 557 q 351 902 221 825 q 643 979 482 979 q 858 928 765 979 q 1000 787 950 878 q 1050 578 1050 696 m 203 401 q 281 184 203 264 q 496 104 360 104 q 715 167 618 104 q 865 338 811 231 q 919 569 919 444 q 840 786 919 707 q 625 865 761 865 q 406 802 503 865 q 256 633 310 739 q 203 401 203 526 z "},"R":{"ha":844,"x_min":36,"x_max":811,"o":"m 519 968 q 738 906 664 968 q 811 739 811 843 q 806 683 811 722 q 717 507 788 583 q 526 406 646 431 l 697 0 l 546 0 l 385 396 l 233 396 l 163 0 l 36 0 l 208 968 l 519 968 m 675 683 q 679 729 679 708 q 635 832 679 796 q 501 868 592 868 l 317 868 l 251 497 l 438 497 q 600 548 540 497 q 675 683 660 599 z "},"S":{"ha":808,"x_min":64,"x_max":761,"o":"m 367 -10 q 148 55 232 -10 q 64 228 64 119 q 65 258 64 249 l 190 258 q 232 142 186 190 q 372 93 278 93 q 522 136 467 93 q 578 257 578 179 q 551 337 578 304 q 484 391 524 369 q 376 439 444 413 q 242 501 293 472 q 157 581 192 531 q 125 707 122 631 q 168 850 125 788 q 287 947 211 913 q 460 981 363 981 q 623 949 554 981 q 726 860 692 917 q 757 732 761 803 l 625 732 q 609 801 628 768 q 551 856 590 835 q 453 876 511 876 q 308 834 363 876 q 253 718 253 792 q 278 644 253 675 q 343 591 304 613 q 450 540 382 569 q 584 476 532 506 q 672 396 636 446 q 708 271 708 346 q 667 127 708 190 q 547 27 625 64 q 367 -10 469 -10 z "},"T":{"ha":751,"x_min":131,"x_max":803,"o":"m 803 968 l 785 869 l 521 869 l 368 0 l 242 0 l 394 869 l 131 869 l 149 968 l 803 968 z "},"U":{"ha":938,"x_min":89,"x_max":935,"o":"m 332 968 l 224 357 q 217 289 217 315 q 269 149 217 194 q 417 103 322 103 q 603 166 529 103 q 700 357 676 229 l 808 968 l 935 968 l 826 357 q 742 153 806 236 q 589 31 679 71 q 396 -10 499 -10 q 174 61 258 -10 q 89 269 89 132 q 97 357 89 311 l 206 968 l 332 968 z "},"V":{"ha":939,"x_min":131,"x_max":1008,"o":"m 267 968 l 421 136 l 872 968 l 1008 968 l 471 0 l 325 0 l 131 968 l 267 968 z "},"W":{"ha":1356,"x_min":132,"x_max":1424,"o":"m 1424 968 l 972 0 l 831 0 l 743 779 l 374 0 l 232 -1 l 132 968 l 268 968 l 335 150 l 711 968 l 854 968 l 932 153 l 1288 968 l 1424 968 z "},"X":{"ha":863,"x_min":-8,"x_max":901,"o":"m 518 483 l 729 0 l 586 0 l 421 379 l 133 0 l -8 0 l 375 485 l 164 968 l 306 968 l 471 590 l 760 968 l 901 968 l 518 483 z "},"Y":{"ha":811,"x_min":126,"x_max":886,"o":"m 886 968 l 464 365 l 399 0 l 272 0 l 338 365 l 126 968 l 268 968 l 419 481 l 743 968 l 886 968 z "},"Z":{"ha":751,"x_min":-7,"x_max":783,"o":"m 163 110 l 636 110 l 615 0 l -7 0 l 11 100 l 614 858 l 149 858 l 169 968 l 783 968 l 765 868 l 163 110 z "},"[":{"ha":588,"x_min":69,"x_max":594,"o":"m 594 1308 l 576 1203 l 444 1203 l 208 -142 l 339 -142 l 319 -247 l 69 -247 l 344 1308 l 594 1308 z "},"\\":{"ha":707,"x_min":247,"x_max":492,"o":"m 368 -236 l 247 1308 l 372 1308 l 492 -236 l 368 -236 z "},"]":{"ha":588,"x_min":40,"x_max":564,"o":"m 290 -258 l 40 -258 l 58 -153 l 189 -153 l 428 1193 l 296 1193 l 314 1297 l 564 1297 l 290 -258 z "},"^":{"ha":874,"x_min":22,"x_max":794,"o":"m 153 235 l 22 235 l 478 963 l 594 963 l 794 235 l 663 235 l 511 807 l 153 235 z "},"_":{"ha":1018,"x_min":46,"x_max":806,"o":"m 806 -53 l 785 -169 l 46 -169 l 65 -53 l 806 -53 z "},"`":{"ha":357,"x_min":126,"x_max":410,"o":"m 410 913 l 393 818 l 126 976 l 146 1086 l 410 913 z "},"a":{"ha":939,"x_min":47,"x_max":896,"o":"m 56 383 q 140 588 76 500 q 294 725 203 676 q 488 774 385 774 q 653 731 588 774 q 743 622 718 688 l 768 761 l 896 761 l 761 0 l 633 0 l 660 142 q 528 31 610 75 q 347 -12 446 -12 q 190 26 258 -12 q 85 135 122 64 q 47 299 47 206 q 56 383 47 340 m 701 382 q 707 444 707 411 q 647 605 707 546 q 493 664 586 664 q 358 631 422 664 q 247 533 293 597 q 186 383 201 469 q 181 319 181 354 q 240 158 181 217 q 393 99 300 99 q 528 133 464 99 q 640 231 593 167 q 701 382 686 296 z "},"b":{"ha":939,"x_min":36,"x_max":885,"o":"m 272 619 q 406 731 324 688 q 583 774 488 774 q 802 692 719 774 q 885 469 885 610 q 876 383 885 429 q 792 178 856 268 q 638 38 729 88 q 446 -12 547 -12 q 281 31 347 -12 q 188 140 214 74 l 163 0 l 36 0 l 218 1028 l 344 1028 l 272 619 m 747 383 q 753 447 753 413 q 693 606 753 549 q 539 664 633 664 q 404 630 469 664 q 292 531 339 596 q 231 382 246 467 q 225 318 225 353 q 285 158 225 217 q 439 99 346 99 q 574 133 510 99 q 685 231 639 167 q 747 383 732 296 z "},"c":{"ha":843,"x_min":47,"x_max":803,"o":"m 56 382 q 140 588 76 500 q 296 725 203 676 q 497 774 389 774 q 716 706 638 774 q 803 517 794 638 l 667 517 q 610 626 660 586 q 478 667 561 667 q 290 592 369 667 q 186 382 210 518 q 179 306 179 336 q 233 149 179 204 q 378 94 288 94 q 523 133 461 94 q 618 244 585 172 l 754 244 q 600 58 704 128 q 358 -12 496 -12 q 131 69 215 -12 q 47 293 47 151 q 56 382 47 336 z "},"d":{"ha":939,"x_min":47,"x_max":943,"o":"m 56 383 q 140 588 76 500 q 294 725 203 676 q 489 774 386 774 q 646 733 576 774 q 744 625 715 692 l 815 1028 l 943 1028 l 761 0 l 633 0 l 660 143 q 529 31 611 75 q 349 -12 447 -12 q 192 26 260 -12 q 85 135 124 64 q 47 299 47 206 q 56 383 47 340 m 701 382 q 707 444 707 411 q 647 605 707 546 q 493 664 586 664 q 358 631 422 664 q 247 533 293 597 q 186 383 201 469 q 181 319 181 354 q 240 158 181 217 q 393 99 300 99 q 528 133 464 99 q 640 231 593 167 q 701 382 686 296 z "},"e":{"ha":861,"x_min":47,"x_max":811,"o":"m 501 774 q 667 737 597 774 q 774 634 738 700 q 811 483 811 568 q 804 413 811 454 q 786 338 799 376 l 178 338 q 175 297 175 310 q 233 148 175 201 q 383 94 290 94 q 527 133 465 94 q 621 235 589 171 l 757 235 q 603 56 707 125 q 364 -12 500 -12 q 134 70 221 -12 q 47 296 47 153 q 56 382 47 336 q 140 589 76 500 q 298 726 204 678 q 501 774 392 774 m 676 429 q 681 481 681 457 q 624 618 681 569 q 478 667 568 667 q 301 603 381 667 q 194 429 222 540 l 676 429 z "},"f":{"ha":457,"x_min":60,"x_max":525,"o":"m 507 956 q 383 923 422 956 q 331 815 343 890 l 321 761 l 481 761 l 463 657 l 303 657 l 186 0 l 60 0 l 175 657 l 78 657 l 96 761 l 193 761 l 203 815 q 303 1002 226 943 q 525 1061 379 1061 l 507 956 z "},"g":{"ha":939,"x_min":7,"x_max":896,"o":"m 488 774 q 653 731 586 774 q 743 622 719 688 l 768 761 l 896 761 l 758 -17 q 681 -202 740 -121 q 532 -329 622 -283 q 332 -375 442 -375 q 94 -303 182 -375 q 10 -111 7 -232 l 136 -111 q 202 -223 144 -181 q 351 -265 260 -265 q 533 -200 456 -265 q 632 -17 611 -135 l 660 143 q 528 32 610 76 q 349 -12 447 -12 q 192 26 260 -12 q 85 135 124 64 q 47 299 47 206 q 56 383 47 340 q 140 588 76 500 q 294 725 203 676 q 488 774 385 774 m 701 382 q 707 444 707 411 q 647 605 707 546 q 493 664 586 664 q 358 631 422 664 q 247 533 293 597 q 186 383 201 469 q 181 319 181 354 q 240 158 181 217 q 393 99 300 99 q 528 133 464 99 q 640 231 593 167 q 701 382 686 296 z "},"h":{"ha":889,"x_min":36,"x_max":804,"o":"m 551 775 q 735 712 665 775 q 804 529 804 649 q 797 449 804 485 l 718 0 l 593 0 l 669 431 q 675 492 675 460 q 628 621 675 576 q 499 665 582 665 q 328 603 399 665 q 238 421 258 540 l 238 424 l 163 0 l 36 0 l 218 1028 l 344 1028 l 278 651 q 398 742 325 710 q 551 775 471 775 z "},"i":{"ha":342,"x_min":36,"x_max":358,"o":"m 257 885 q 206 905 226 885 q 186 956 186 925 q 217 1027 186 997 q 288 1057 247 1057 q 339 1038 319 1057 q 358 986 358 1018 q 328 915 358 944 q 257 885 297 885 m 297 761 l 163 0 l 36 0 l 171 761 l 297 761 z "},"j":{"ha":344,"x_min":-172,"x_max":361,"o":"m 261 885 q 209 904 229 885 q 189 956 189 924 q 219 1027 189 997 q 290 1057 250 1057 q 342 1038 322 1057 q 361 986 361 1018 q 331 915 361 944 q 261 885 300 885 m 138 -165 q 61 -314 121 -267 q -97 -361 1 -361 l -172 -361 l -153 -254 l -100 -254 q -22 -233 -47 -254 q 11 -162 3 -212 l 175 761 l 301 761 l 138 -165 z "},"k":{"ha":715,"x_min":36,"x_max":765,"o":"m 342 381 l 633 0 l 461 0 l 222 335 l 163 0 l 36 0 l 218 1028 l 344 1028 l 238 425 l 590 761 l 765 761 l 342 381 z "},"l":{"ha":342,"x_min":36,"x_max":344,"o":"m 344 1028 l 163 0 l 36 0 l 218 1028 l 344 1028 z "},"m":{"ha":1431,"x_min":36,"x_max":1346,"o":"m 1089 775 q 1276 712 1206 775 q 1346 528 1346 649 q 1339 449 1346 483 l 1260 0 l 1135 0 l 1211 431 q 1217 493 1217 460 q 1172 622 1217 578 q 1044 665 1126 665 q 883 608 950 665 q 790 442 815 550 l 711 0 l 586 0 l 663 431 q 668 494 668 463 q 623 622 668 578 q 496 665 578 665 q 328 602 397 665 q 238 419 258 539 l 238 422 l 163 0 l 36 0 l 171 761 l 297 761 l 278 651 q 394 743 325 711 q 540 775 464 775 q 702 732 636 775 q 789 606 768 689 q 917 731 836 686 q 1089 775 999 775 z "},"n":{"ha":889,"x_min":36,"x_max":804,"o":"m 544 775 q 733 712 663 775 q 804 528 804 649 q 797 449 804 483 l 718 0 l 593 0 l 669 431 q 675 492 675 460 q 628 621 675 576 q 499 665 582 665 q 328 603 399 665 q 238 421 258 540 l 238 424 l 163 0 l 36 0 l 171 761 l 297 761 l 278 651 q 396 743 325 711 q 544 775 467 775 z "},"o":{"ha":889,"x_min":49,"x_max":833,"o":"m 371 -12 q 202 27 275 -12 q 89 138 129 67 q 49 304 49 210 q 108 541 49 433 q 273 711 168 649 q 507 774 378 774 q 677 734 603 774 q 792 623 751 694 q 833 456 833 551 q 772 219 833 326 q 606 50 711 113 q 371 -12 500 -12 m 386 94 q 549 144 476 94 q 662 274 621 193 q 703 449 703 356 q 642 610 703 554 q 489 667 581 667 q 328 617 399 667 q 218 486 257 568 q 179 310 179 404 q 238 151 179 207 q 386 94 296 94 z "},"p":{"ha":939,"x_min":-26,"x_max":885,"o":"m 272 621 q 404 730 322 686 q 583 774 486 774 q 741 737 672 774 q 847 631 810 700 q 885 469 885 563 q 876 383 885 429 q 792 178 856 268 q 638 38 729 88 q 446 -12 547 -12 q 283 31 349 -12 q 188 140 217 75 l 100 -361 l -26 -361 l 171 761 l 297 761 l 272 621 m 747 383 q 753 447 753 413 q 693 606 753 549 q 539 664 633 664 q 404 630 469 664 q 292 531 339 596 q 231 382 246 467 q 225 318 225 353 q 285 158 225 217 q 439 99 346 99 q 574 133 510 99 q 685 231 639 167 q 747 383 732 296 z "},"q":{"ha":939,"x_min":47,"x_max":896,"o":"m 56 383 q 140 588 76 500 q 294 725 203 676 q 489 774 386 774 q 653 730 588 774 q 743 622 719 686 l 768 761 l 896 761 l 697 -361 l 571 -361 l 658 140 q 529 32 613 76 q 346 -12 446 -12 q 190 26 258 -12 q 85 135 122 64 q 47 299 47 206 q 56 383 47 340 m 701 382 q 707 444 707 411 q 647 605 707 546 q 493 664 586 664 q 358 631 422 664 q 247 533 293 597 q 186 383 201 469 q 181 319 181 354 q 240 158 181 217 q 393 99 300 99 q 528 133 464 99 q 640 231 593 167 q 701 382 686 296 z "},"r":{"ha":518,"x_min":36,"x_max":546,"o":"m 272 617 q 388 733 318 692 q 546 775 457 775 l 522 644 l 489 644 q 324 592 390 644 q 236 414 258 539 l 163 0 l 36 0 l 171 761 l 297 761 l 272 617 z "},"s":{"ha":725,"x_min":32,"x_max":657,"o":"m 304 -12 q 108 44 185 -12 q 32 197 32 101 q 33 224 32 215 l 157 224 q 192 126 151 164 q 311 89 233 89 q 437 119 389 89 q 485 203 485 149 q 446 275 485 249 q 326 332 407 301 q 210 382 256 358 q 132 448 164 406 q 100 556 100 490 q 137 669 100 619 q 240 747 174 719 q 390 774 306 774 q 582 715 507 774 q 657 563 657 657 q 656 535 657 544 l 535 535 l 536 551 q 494 640 536 607 q 382 672 451 672 q 270 642 314 672 q 226 560 226 611 q 267 483 226 511 q 392 422 307 456 q 506 372 463 394 q 579 308 549 349 q 610 207 610 268 q 570 90 610 140 q 461 14 531 40 q 304 -12 392 -12 z "},"t":{"ha":506,"x_min":82,"x_max":524,"o":"m 228 208 q 224 172 224 188 q 245 122 224 138 q 315 107 267 107 l 408 107 l 389 0 l 275 0 q 140 35 185 0 q 94 149 94 69 q 100 208 94 179 l 179 657 l 82 657 l 100 761 l 199 761 l 232 953 l 360 953 l 326 761 l 524 761 l 506 657 l 307 657 l 228 208 z "},"u":{"ha":889,"x_min":78,"x_max":846,"o":"m 846 761 l 711 0 l 585 0 l 604 111 q 488 21 558 53 q 340 -11 417 -11 q 149 53 221 -11 q 78 239 78 118 q 85 315 78 269 l 164 761 l 289 761 l 214 332 q 208 271 208 303 q 255 142 208 186 q 385 99 301 99 q 555 161 485 99 q 644 343 625 224 l 644 339 l 719 761 l 846 761 z "},"v":{"ha":779,"x_min":81,"x_max":826,"o":"m 340 119 l 690 761 l 826 761 l 393 0 l 244 0 l 81 761 l 217 761 l 340 119 z "},"w":{"ha":1139,"x_min":81,"x_max":1185,"o":"m 1185 761 l 813 0 l 682 0 l 607 606 l 315 0 l 185 0 l 81 761 l 210 761 l 272 122 l 572 761 l 703 761 l 775 126 l 1060 761 l 1185 761 z "},"x":{"ha":665,"x_min":-54,"x_max":710,"o":"m 399 385 l 576 0 l 433 0 l 303 283 l 79 0 l -54 0 l 260 378 l 82 761 l 225 761 l 354 481 l 576 761 l 710 761 l 399 385 z "},"y":{"ha":782,"x_min":39,"x_max":826,"o":"m 221 761 l 350 147 l 696 761 l 826 761 l 171 -358 l 39 -358 l 254 8 l 81 761 l 221 761 z "},"z":{"ha":632,"x_min":-14,"x_max":635,"o":"m 150 104 l 524 104 l 504 0 l -14 0 l 4 104 l 472 658 l 106 658 l 124 761 l 635 761 l 617 658 l 150 104 z "},"{":{"ha":642,"x_min":161,"x_max":708,"o":"m 179 568 q 347 714 325 593 q 365 892 357 767 q 386 1092 374 1021 q 468 1244 403 1192 q 628 1297 533 1297 l 708 1297 l 689 1188 l 632 1188 q 548 1163 579 1188 q 507 1083 517 1139 q 495 985 500 1043 q 489 910 490 928 q 468 710 481 779 q 288 521 440 550 l 286 518 q 377 471 349 503 q 406 386 406 439 q 392 290 406 351 q 351 126 378 229 q 319 1 333 61 q 306 -82 306 -58 q 397 -150 306 -150 l 454 -150 l 433 -260 l 353 -260 q 226 -219 272 -260 q 179 -103 179 -179 q 194 -3 179 -65 q 236 157 208 60 q 271 292 260 244 q 282 364 282 339 q 253 433 282 408 q 161 469 224 458 l 179 568 z "},"|":{"ha":404,"x_min":42,"x_max":390,"o":"m 168 -147 l 42 -147 l 264 1104 l 390 1104 l 168 -147 z "},"}":{"ha":642,"x_min":-18,"x_max":529,"o":"m 511 469 q 394 417 435 456 q 344 324 353 379 q 325 140 332 260 q 304 -54 317 17 q 222 -207 288 -154 q 63 -260 156 -260 l -18 -260 l 1 -150 l 58 -150 q 142 -126 111 -150 q 182 -46 172 -101 q 195 58 190 -3 q 201 135 200 119 q 208 215 203 151 q 222 328 213 279 q 281 451 235 401 q 406 518 326 501 l 407 521 q 285 667 285 546 q 289 710 285 688 q 336 900 297 761 q 382 1083 372 1031 q 385 1113 385 1106 q 362 1170 385 1153 q 293 1188 339 1188 l 238 1188 l 256 1297 l 336 1297 q 465 1257 418 1297 q 511 1140 511 1217 q 507 1092 511 1117 q 458 900 492 1013 q 413 714 421 764 q 410 685 410 694 q 529 568 410 592 l 511 469 z "},"~":{"ha":721,"x_min":42,"x_max":694,"o":"m 42 344 q 138 497 78 447 q 274 547 197 547 q 337 535 311 547 q 399 497 363 522 q 447 467 428 476 q 492 457 467 457 q 557 481 526 457 q 600 546 588 504 l 694 546 q 599 393 658 443 q 461 343 539 343 q 397 356 424 343 q 338 393 371 368 q 291 424 311 414 q 244 433 271 433 q 179 410 210 433 q 135 344 149 386 l 42 344 z "}," ":{"ha":414,"x_min":0,"x_max":0,"o":""},"¡":{"ha":465,"x_min":64,"x_max":371,"o":"m 299 783 q 351 764 331 783 q 371 713 371 744 q 340 641 371 671 q 268 611 310 611 q 217 631 238 611 q 197 682 197 651 q 228 753 197 724 q 299 783 258 783 m 64 -193 l 201 501 l 307 501 l 199 -193 l 64 -193 z "},"¢":{"ha":924,"x_min":76,"x_max":792,"o":"m 486 618 q 303 551 381 618 q 203 364 225 483 q 197 303 197 336 q 251 161 197 211 q 397 111 306 111 q 541 149 482 111 q 629 256 600 188 l 747 256 q 626 85 715 153 q 413 7 536 17 l 389 -124 l 314 -124 l 338 7 q 144 94 211 18 q 76 288 76 169 q 83 364 76 319 q 210 609 108 511 q 463 721 311 707 l 485 849 l 560 849 l 538 721 q 725 644 658 711 q 785 474 792 576 l 667 474 q 617 580 663 542 q 486 618 571 618 z "},"£":{"ha":861,"x_min":57,"x_max":811,"o":"m 692 710 q 694 747 694 735 q 656 853 694 814 q 540 892 618 892 q 400 844 460 892 q 324 700 340 797 q 318 633 318 668 q 331 517 318 585 l 600 517 l 585 428 l 343 428 q 340 342 346 378 q 199 103 315 208 l 704 103 l 686 -3 l 67 -3 l 57 69 q 167 194 128 135 q 221 342 206 254 q 225 393 225 369 q 224 428 225 417 l 67 428 l 82 517 l 208 517 q 197 624 197 581 q 204 706 197 654 q 326 919 228 839 q 558 999 424 999 q 748 933 685 999 q 811 761 811 867 q 807 710 811 738 l 692 710 z "},"¤":{"ha":746,"x_min":68,"x_max":721,"o":"m 622 672 q 646 571 646 629 q 642 524 646 549 q 571 376 628 443 l 639 294 l 571 236 l 501 319 q 349 278 429 278 q 214 318 267 278 l 117 236 l 68 294 l 165 376 q 146 471 146 419 q 150 524 146 497 q 219 672 164 611 l 150 756 l 219 814 l 289 729 q 438 769 357 769 q 574 729 518 769 l 674 814 l 721 756 l 622 672 m 251 524 q 247 479 247 501 q 279 387 247 419 q 363 354 311 354 q 474 399 422 354 q 539 524 525 444 q 543 564 543 544 q 510 659 543 625 q 424 693 476 693 q 314 648 363 693 q 251 524 265 603 z "},"¥":{"ha":826,"x_min":42,"x_max":894,"o":"m 589 532 l 779 532 l 764 440 l 524 438 l 472 365 l 463 311 l 740 311 l 724 218 l 446 218 l 407 0 l 281 0 l 319 218 l 42 218 l 58 311 l 336 311 l 346 365 l 321 438 l 82 440 l 97 532 l 288 532 l 135 968 l 276 968 l 428 481 l 751 968 l 894 968 l 589 532 z "},"¦":{"ha":404,"x_min":42,"x_max":390,"o":"m 264 1104 l 390 1104 l 297 579 l 171 579 l 264 1104 m 168 -147 l 42 -147 l 136 379 l 263 379 l 168 -147 z "},"§":{"ha":799,"x_min":36,"x_max":749,"o":"m 619 758 q 591 859 625 819 q 479 899 557 899 q 357 869 404 899 q 300 782 310 839 q 299 761 299 775 q 341 688 299 718 q 494 618 383 657 q 673 528 614 578 q 732 400 732 478 q 671 237 732 308 q 496 132 610 165 q 583 67 551 104 q 615 -21 615 31 q 574 -145 615 -87 q 460 -237 533 -203 q 292 -272 386 -272 q 106 -222 175 -272 q 36 -81 36 -172 q 39 -43 36 -68 l 165 -43 q 194 -144 160 -106 q 308 -183 229 -183 q 428 -153 382 -183 q 485 -64 475 -124 q 486 -43 486 -57 q 444 28 486 -1 q 290 97 401 58 q 111 190 171 139 q 51 318 51 240 q 115 481 51 408 q 289 583 178 554 q 200 650 232 614 q 168 739 168 686 q 210 863 168 806 q 326 955 251 921 q 494 989 400 989 q 680 938 611 989 q 749 794 749 886 q 746 758 749 783 l 619 758 m 601 385 q 553 480 601 443 q 418 517 504 517 q 295 491 349 517 q 212 423 242 465 q 182 333 182 381 q 231 236 182 274 q 367 199 281 199 q 490 225 436 199 q 572 294 543 251 q 601 385 601 338 z "},"¨":{"ha":436,"x_min":125,"x_max":500,"o":"m 188 864 q 142 881 160 864 q 125 924 125 897 q 151 984 125 958 q 213 1010 178 1010 q 256 992 239 1010 q 274 950 274 975 q 247 890 274 915 q 188 864 221 864 m 414 864 q 369 881 386 864 q 351 924 351 897 q 378 984 351 958 q 439 1010 404 1010 q 483 992 465 1010 q 500 950 500 975 q 474 890 500 915 q 414 864 447 864 z "},"©":{"ha":1100,"x_min":74,"x_max":1057,"o":"m 653 978 q 867 929 776 978 q 1008 792 958 881 q 1057 588 1057 704 q 1047 485 1057 535 q 942 230 1022 342 q 740 55 861 118 q 479 -8 619 -8 q 264 40 356 -8 q 123 178 172 89 q 74 383 74 267 q 83 485 74 424 q 190 740 108 628 q 391 915 271 853 q 653 978 511 978 m 644 924 q 410 869 515 924 q 235 715 304 814 q 143 485 165 615 q 135 386 135 433 q 228 137 135 229 q 489 44 322 44 q 722 100 617 44 q 896 255 826 156 q 988 485 965 354 q 997 586 997 533 q 904 833 997 742 q 644 924 811 924 m 621 807 q 462 768 538 807 q 333 656 386 729 q 263 486 281 583 q 256 417 256 444 q 326 232 256 300 q 507 164 396 164 q 697 220 611 164 q 828 371 783 276 l 711 371 q 524 256 650 256 q 412 299 454 256 q 369 424 369 343 q 375 485 369 456 q 458 656 394 596 q 604 715 522 715 q 705 685 665 715 q 751 600 744 656 l 868 600 q 792 753 858 699 q 621 807 726 807 z "},"ª":{"ha":625,"x_min":100,"x_max":661,"o":"m 106 736 q 158 865 118 808 q 257 953 199 922 q 381 985 315 985 q 490 956 447 985 q 544 878 532 926 l 561 976 l 661 976 l 576 490 l 476 490 l 493 589 q 412 511 464 540 q 293 482 360 482 q 153 538 207 482 q 100 682 100 593 q 106 736 100 700 m 518 733 q 522 775 522 757 q 486 871 522 836 q 393 906 450 906 q 275 860 328 906 q 208 735 222 814 q 204 696 204 714 q 240 597 204 633 q 332 561 276 561 q 452 608 399 561 q 518 733 506 654 z "},"«":{"ha":640,"x_min":64,"x_max":615,"o":"m 154 167 l 64 410 l 240 653 l 364 653 l 183 410 l 279 167 l 154 167 m 404 167 l 314 410 l 490 653 l 615 653 l 435 410 l 529 167 l 404 167 z "},"¬":{"ha":1025,"x_min":81,"x_max":989,"o":"m 989 600 l 936 306 l 811 306 l 846 500 l 81 500 l 99 600 l 989 600 z "},"­":{"ha":765,"x_min":90,"x_max":664,"o":"m 664 563 l 644 456 l 90 456 l 110 563 l 664 563 z "},"®":{"ha":707,"x_min":122,"x_max":696,"o":"m 461 981 q 632 917 568 981 q 696 753 696 854 q 692 697 696 726 q 628 551 676 617 q 510 449 581 486 q 360 413 440 413 q 187 476 251 413 q 122 640 122 539 q 128 697 122 671 q 190 842 142 778 q 308 944 238 907 q 461 981 379 981 m 633 697 q 638 747 638 722 q 588 878 638 829 q 451 926 539 926 q 278 863 350 926 q 188 697 206 799 q 183 647 183 671 q 233 517 183 565 q 369 468 282 468 q 542 532 469 468 q 633 697 615 596 m 458 849 q 522 828 499 849 q 546 774 546 808 q 524 706 546 733 q 464 667 501 678 l 521 551 l 435 550 l 386 661 l 364 661 l 343 550 l 271 550 l 324 849 l 458 849 m 469 758 q 440 782 469 782 l 385 782 l 375 724 l 431 724 q 456 731 446 724 q 469 753 467 739 l 469 758 z "},"¯":{"ha":538,"x_min":111,"x_max":617,"o":"m 617 985 l 600 890 l 111 890 l 128 985 l 617 985 z "},"°":{"ha":569,"x_min":93,"x_max":592,"o":"m 97 728 q 197 904 117 838 q 386 971 278 971 q 536 919 481 971 q 592 779 592 868 q 588 728 592 756 q 487 550 568 618 q 297 482 406 482 q 149 534 204 482 q 93 675 93 586 q 97 728 93 701 m 485 728 q 489 771 489 751 q 456 864 489 831 q 371 897 424 897 q 261 852 310 897 q 199 728 213 807 q 194 683 194 703 q 226 590 194 622 q 310 558 257 558 q 422 603 372 558 q 485 728 471 647 z "},"±":{"ha":953,"x_min":81,"x_max":871,"o":"m 558 519 l 514 274 l 807 274 l 788 161 l 81 161 l 100 274 l 393 274 l 438 519 l 143 519 l 164 633 l 457 633 l 499 867 l 619 867 l 578 633 l 871 633 l 850 519 l 558 519 z "},"²":{"ha":458,"x_min":60,"x_max":476,"o":"m 474 833 q 426 740 464 781 q 311 649 388 699 l 188 571 l 432 571 l 417 489 l 60 489 l 72 561 l 246 683 q 328 756 299 722 q 367 829 358 789 q 368 847 368 836 q 351 892 368 876 q 308 908 335 908 q 253 890 275 908 q 221 838 231 871 l 119 838 q 189 945 135 904 q 325 986 243 986 q 436 950 396 986 q 476 858 476 914 q 474 833 476 850 z "},"³":{"ha":461,"x_min":72,"x_max":489,"o":"m 117 849 q 192 948 133 910 q 331 986 250 986 q 444 951 400 986 q 489 864 489 917 q 458 781 489 815 q 382 735 428 747 l 382 732 q 433 695 414 719 q 453 638 453 671 q 425 561 453 597 q 348 503 397 525 q 238 482 299 482 q 116 515 160 482 q 72 610 72 549 q 74 631 72 624 l 172 631 q 191 575 171 593 q 249 557 211 557 q 319 581 292 557 q 347 643 347 604 q 326 686 347 671 q 271 701 306 701 l 211 701 l 224 768 l 281 768 q 353 790 325 768 q 381 853 381 813 q 362 894 381 879 q 310 910 343 910 q 249 893 274 910 q 213 849 225 876 l 117 849 z "},"´":{"ha":343,"x_min":97,"x_max":442,"o":"m 422 976 l 97 818 l 114 913 l 442 1086 l 422 976 z "},"µ":{"ha":896,"x_min":-26,"x_max":853,"o":"m 853 761 l 718 0 l 592 0 l 617 138 q 494 26 568 64 q 338 -12 421 -12 q 240 8 283 -12 q 175 74 197 29 l 99 -361 l -26 -361 l 171 761 l 296 761 l 222 344 q 215 276 215 306 q 263 142 215 189 q 394 96 311 96 q 562 158 493 96 q 651 340 631 221 l 651 339 l 726 761 l 853 761 z "},"¶":{"ha":828,"x_min":88,"x_max":819,"o":"m 649 0 l 536 0 l 689 863 l 582 863 l 429 0 l 317 0 l 386 397 l 372 397 q 158 458 229 397 q 88 619 88 518 q 93 678 88 651 q 213 882 115 803 q 471 961 310 961 l 819 961 l 649 0 z "},"·":{"ha":294,"x_min":7,"x_max":181,"o":"m 79 388 q 27 407 47 388 q 7 458 7 426 q 38 530 7 500 q 110 560 68 560 q 161 540 142 560 q 181 489 181 521 q 150 417 181 447 q 79 388 119 388 z "},"¸":{"ha":378,"x_min":-110,"x_max":247,"o":"m 90 -81 q 205 -108 163 -79 q 247 -190 247 -136 q 190 -313 247 -265 q 50 -361 133 -361 l -110 -361 l -96 -279 l 39 -279 q 109 -265 85 -279 q 139 -218 133 -251 q 140 -204 140 -212 q 121 -169 140 -179 q 61 -158 101 -158 l -10 -158 l 21 10 l 106 10 l 90 -81 z "},"¹":{"ha":272,"x_min":122,"x_max":311,"o":"m 122 900 l 136 978 l 311 978 l 225 489 l 125 489 l 197 900 l 122 900 z "},"º":{"ha":606,"x_min":100,"x_max":622,"o":"m 104 733 q 208 916 125 847 q 403 985 292 985 q 562 931 501 985 q 622 785 622 876 q 618 733 622 761 q 563 601 606 658 q 456 513 519 544 q 319 481 392 481 q 160 536 221 481 q 100 685 100 592 q 104 733 100 708 m 515 732 q 519 775 519 756 q 483 873 519 838 q 390 908 446 908 q 274 862 325 908 q 208 732 224 815 q 204 689 204 710 q 240 592 204 626 q 332 558 276 558 q 449 604 396 558 q 515 732 501 650 z "},"»":{"ha":640,"x_min":28,"x_max":579,"o":"m 208 410 l 114 653 l 238 653 l 328 410 l 151 167 l 28 167 l 208 410 m 458 410 l 364 653 l 489 653 l 579 410 l 403 167 l 279 167 l 458 410 z "},"¼":{"ha":889,"x_min":15,"x_max":825,"o":"m 143 900 l 157 978 l 332 978 l 246 489 l 146 489 l 218 900 l 143 900 m 825 969 l 135 0 l 15 0 l 706 969 l 825 969 m 782 96 l 715 96 l 699 0 l 599 0 l 615 96 l 361 96 l 372 154 l 650 490 l 786 490 l 726 161 l 793 161 l 782 96 m 672 404 l 475 161 l 629 161 l 672 404 z "},"½":{"ha":938,"x_min":8,"x_max":953,"o":"m 219 900 l 144 900 l 158 978 l 333 978 l 247 489 l 147 489 l 219 900 m 808 969 l 129 0 l 8 0 l 688 969 l 808 969 m 950 343 q 902 249 940 290 q 788 158 864 208 l 664 81 l 908 81 l 893 -1 l 536 -1 l 549 71 l 722 193 q 805 265 775 232 q 843 339 835 299 q 844 357 844 346 q 828 402 844 386 q 785 418 811 418 q 729 399 751 418 q 697 347 707 381 l 596 347 q 665 455 611 414 q 801 496 719 496 q 913 460 872 496 q 953 368 953 424 q 950 343 953 360 z "},"¾":{"ha":960,"x_min":93,"x_max":942,"o":"m 138 849 q 213 948 154 910 q 351 986 271 986 q 465 951 421 986 q 510 864 510 917 q 479 781 510 815 q 403 735 449 747 l 403 732 q 454 695 435 719 q 474 638 474 671 q 446 561 474 597 q 369 503 418 525 q 258 482 319 482 q 137 515 181 482 q 93 610 93 549 q 94 631 93 624 l 193 631 q 212 575 192 593 q 269 557 232 557 q 340 581 313 557 q 368 643 368 604 q 347 686 368 671 q 292 701 326 701 l 232 701 l 244 768 l 301 768 q 374 790 346 768 q 401 853 401 813 q 383 894 401 879 q 331 910 364 910 q 270 893 294 910 q 233 849 246 876 l 138 849 m 942 969 l 231 0 l 111 0 l 822 969 l 942 969 m 865 96 l 799 96 l 782 0 l 682 0 l 699 96 l 446 96 l 456 154 l 733 490 l 869 490 l 811 161 l 876 161 l 865 96 m 756 404 l 558 161 l 713 161 l 756 404 z "},"¿":{"ha":721,"x_min":6,"x_max":621,"o":"m 531 772 q 583 753 563 772 q 603 701 603 733 q 572 630 603 660 q 500 600 542 600 q 449 620 469 600 q 429 671 429 640 q 460 742 429 713 q 531 772 490 772 m 268 -217 q 76 -156 147 -217 q 6 10 6 -96 q 11 69 6 42 q 140 285 38 215 q 396 356 243 356 l 425 488 l 535 488 l 501 268 l 461 268 q 238 226 322 268 q 132 69 153 185 q 128 29 128 49 q 169 -74 128 -36 q 285 -111 211 -111 q 429 -65 371 -111 q 501 63 488 -18 l 621 63 q 558 -84 607 -21 q 433 -182 508 -147 q 268 -217 357 -217 z "},"À":{"ha":936,"x_min":-25,"x_max":819,"o":"m 647 215 l 224 215 l 108 0 l -25 0 l 494 963 l 640 963 l 819 0 l 686 0 l 647 215 m 629 314 l 540 808 l 276 314 l 629 314 m 729 1114 l 713 1019 l 446 1178 l 465 1288 l 729 1114 z "},"Á":{"ha":936,"x_min":-25,"x_max":819,"o":"m 647 215 l 224 215 l 108 0 l -25 0 l 494 963 l 640 963 l 819 0 l 686 0 l 647 215 m 629 314 l 540 808 l 276 314 l 629 314 m 742 1178 l 417 1019 l 433 1114 l 761 1288 l 742 1178 z "},"Â":{"ha":936,"x_min":-25,"x_max":819,"o":"m 647 215 l 224 215 l 108 0 l -25 0 l 494 963 l 640 963 l 819 0 l 686 0 l 647 215 m 629 314 l 540 808 l 276 314 l 629 314 m 601 1156 l 389 1038 l 406 1138 l 619 1253 l 790 1138 l 772 1038 l 601 1156 z "},"Ã":{"ha":936,"x_min":-25,"x_max":835,"o":"m 647 215 l 224 215 l 108 0 l -25 0 l 494 963 l 640 963 l 819 0 l 686 0 l 647 215 m 629 314 l 540 808 l 276 314 l 629 314 m 379 1044 q 444 1153 400 1115 q 543 1190 488 1190 q 586 1182 569 1190 q 626 1156 603 1174 q 658 1134 643 1142 q 690 1126 672 1126 q 733 1142 714 1126 q 761 1186 751 1157 l 835 1186 q 769 1079 814 1117 q 669 1042 725 1042 q 624 1051 643 1042 q 583 1078 606 1060 q 552 1099 564 1092 q 522 1106 540 1106 q 481 1090 499 1106 q 453 1044 463 1075 l 379 1044 z "},"Ä":{"ha":936,"x_min":-25,"x_max":819,"o":"m 647 215 l 224 215 l 108 0 l -25 0 l 494 963 l 640 963 l 819 0 l 686 0 l 647 215 m 629 314 l 540 808 l 276 314 l 629 314 m 474 1065 q 428 1082 446 1065 q 411 1125 411 1099 q 438 1185 411 1160 q 499 1211 464 1211 q 542 1194 525 1211 q 560 1151 560 1176 q 533 1091 560 1117 q 474 1065 507 1065 m 700 1065 q 655 1082 672 1065 q 638 1125 638 1099 q 664 1185 638 1160 q 725 1211 690 1211 q 769 1194 751 1211 q 786 1151 786 1176 q 760 1091 786 1117 q 700 1065 733 1065 z "},"Å":{"ha":936,"x_min":-25,"x_max":819,"o":"m 647 215 l 224 215 l 108 0 l -25 0 l 494 963 l 640 963 l 819 0 l 686 0 l 647 215 m 629 314 l 540 808 l 276 314 l 629 314 m 463 1190 q 524 1297 475 1257 q 633 1336 572 1336 q 722 1305 689 1336 q 756 1221 756 1274 q 753 1190 756 1213 q 692 1084 740 1124 q 582 1044 644 1044 q 494 1076 528 1044 q 460 1161 460 1108 q 463 1190 460 1171 m 688 1207 q 669 1253 688 1236 q 621 1269 650 1269 q 557 1243 585 1269 q 529 1176 529 1217 q 547 1130 529 1147 q 593 1113 565 1113 q 659 1140 631 1113 q 688 1207 688 1167 z "},"Æ":{"ha":1250,"x_min":-56,"x_max":1265,"o":"m 854 869 l 796 538 l 1147 538 l 1131 440 l 779 440 l 719 100 l 1111 100 l 1093 0 l 575 0 l 613 215 l 243 215 l 83 0 l -56 0 l 665 969 l 1265 969 l 1247 869 l 854 869 m 729 874 l 315 314 l 631 314 l 729 874 z "},"Ç":{"ha":1072,"x_min":67,"x_max":1043,"o":"m 490 106 q 681 151 596 106 q 819 282 765 197 l 971 282 q 781 79 899 154 q 521 -7 664 4 l 508 -81 q 623 -108 581 -79 q 665 -190 665 -136 q 608 -313 665 -265 q 468 -361 551 -361 l 308 -361 l 322 -279 l 457 -279 q 527 -265 503 -279 q 557 -218 551 -251 q 558 -204 558 -212 q 539 -169 558 -179 q 479 -158 519 -158 l 408 -158 l 436 -7 q 242 51 326 0 q 113 190 158 103 q 67 388 67 276 q 75 485 67 435 q 184 740 100 626 q 390 917 268 853 q 644 981 511 981 q 908 904 803 981 q 1043 688 1013 828 l 892 688 q 799 819 867 772 q 625 865 731 865 q 435 819 524 865 q 286 685 347 772 q 204 485 225 599 q 197 401 197 449 q 277 185 197 265 q 490 106 357 106 z "},"È":{"ha":713,"x_min":36,"x_max":728,"o":"m 317 869 l 258 538 l 610 538 l 593 440 l 242 440 l 181 100 l 575 100 l 557 0 l 36 0 l 208 969 l 728 969 l 710 869 l 317 869 m 615 1114 l 599 1019 l 332 1178 l 351 1288 l 615 1114 z "},"É":{"ha":713,"x_min":36,"x_max":728,"o":"m 317 869 l 258 538 l 610 538 l 593 440 l 242 440 l 181 100 l 575 100 l 557 0 l 36 0 l 208 969 l 728 969 l 710 869 l 317 869 m 628 1178 l 303 1019 l 319 1114 l 647 1288 l 628 1178 z "},"Ê":{"ha":713,"x_min":36,"x_max":728,"o":"m 317 869 l 258 538 l 610 538 l 593 440 l 242 440 l 181 100 l 575 100 l 557 0 l 36 0 l 208 969 l 728 969 l 710 869 l 317 869 m 488 1156 l 275 1038 l 292 1138 l 506 1253 l 676 1138 l 658 1038 l 488 1156 z "},"Ë":{"ha":713,"x_min":36,"x_max":728,"o":"m 317 869 l 258 538 l 610 538 l 593 440 l 242 440 l 181 100 l 575 100 l 557 0 l 36 0 l 208 969 l 728 969 l 710 869 l 317 869 m 360 1065 q 315 1082 332 1065 q 297 1125 297 1099 q 324 1185 297 1160 q 385 1211 350 1211 q 428 1194 411 1211 q 446 1151 446 1176 q 419 1091 446 1117 q 360 1065 393 1065 m 586 1065 q 541 1082 558 1065 q 524 1125 524 1099 q 550 1185 524 1160 q 611 1211 576 1211 q 655 1194 638 1211 q 672 1151 672 1176 q 646 1091 672 1117 q 586 1065 619 1065 z "},"Ì":{"ha":342,"x_min":36,"x_max":432,"o":"m 335 968 l 163 0 l 36 0 l 208 968 l 335 968 m 432 1114 l 415 1019 l 149 1178 l 168 1288 l 432 1114 z "},"Í":{"ha":342,"x_min":36,"x_max":464,"o":"m 335 968 l 163 0 l 36 0 l 208 968 l 335 968 m 444 1178 l 119 1019 l 136 1114 l 464 1288 l 444 1178 z "},"Î":{"ha":342,"x_min":36,"x_max":493,"o":"m 335 968 l 163 0 l 36 0 l 208 968 l 335 968 m 304 1156 l 92 1038 l 108 1138 l 322 1253 l 493 1138 l 475 1038 l 304 1156 z "},"Ï":{"ha":342,"x_min":36,"x_max":489,"o":"m 335 968 l 163 0 l 36 0 l 208 968 l 335 968 m 176 1065 q 131 1082 149 1065 q 114 1125 114 1099 q 140 1185 114 1160 q 201 1211 167 1211 q 245 1194 228 1211 q 263 1151 263 1176 q 236 1091 263 1117 q 176 1065 210 1065 m 403 1065 q 358 1082 375 1065 q 340 1125 340 1099 q 367 1185 340 1160 q 428 1211 393 1211 q 472 1194 454 1211 q 489 1151 489 1176 q 463 1091 489 1117 q 403 1065 436 1065 z "},"Ð":{"ha":1007,"x_min":17,"x_max":971,"o":"m 535 968 q 856 868 742 968 q 971 590 971 768 q 961 482 971 535 q 853 224 935 333 q 647 58 772 115 q 364 0 521 0 l 63 0 l 138 424 l 17 424 l 39 540 l 158 540 l 233 968 l 535 968 m 832 482 q 840 576 840 532 q 758 790 840 714 q 517 865 676 865 l 343 865 l 286 540 l 551 540 l 531 424 l 265 424 l 207 97 l 382 97 q 684 199 568 97 q 832 482 800 301 z "},"Ñ":{"ha":976,"x_min":36,"x_max":969,"o":"m 797 0 l 671 0 l 300 771 l 163 0 l 36 0 l 208 969 l 335 969 l 707 200 l 843 969 l 969 969 l 797 0 m 400 1044 q 465 1153 421 1115 q 564 1190 508 1190 q 607 1182 590 1190 q 647 1156 624 1174 q 678 1134 664 1142 q 711 1126 693 1126 q 753 1142 735 1126 q 782 1186 772 1157 l 856 1186 q 790 1079 835 1117 q 690 1042 746 1042 q 645 1051 664 1042 q 604 1078 626 1060 q 573 1099 585 1092 q 543 1106 561 1106 q 501 1090 519 1106 q 474 1044 483 1075 l 400 1044 z "},"Ò":{"ha":1092,"x_min":72,"x_max":1050,"o":"m 478 -10 q 265 41 357 -10 q 123 183 174 92 q 72 393 72 275 q 147 691 72 557 q 351 902 221 825 q 643 979 482 979 q 858 928 765 979 q 1000 787 950 878 q 1050 578 1050 696 q 976 278 1050 413 q 771 67 901 144 q 478 -10 640 -10 m 496 104 q 715 167 618 104 q 865 338 811 231 q 919 569 919 444 q 840 786 919 707 q 625 865 761 865 q 406 802 503 865 q 256 633 310 739 q 203 401 203 526 q 281 184 203 264 q 496 104 360 104 m 808 1122 l 792 1028 l 525 1186 l 544 1296 l 808 1122 z "},"Ó":{"ha":1092,"x_min":72,"x_max":1050,"o":"m 478 -10 q 265 41 357 -10 q 123 183 174 92 q 72 393 72 275 q 147 691 72 557 q 351 902 221 825 q 643 979 482 979 q 858 928 765 979 q 1000 787 950 878 q 1050 578 1050 696 q 976 278 1050 413 q 771 67 901 144 q 478 -10 640 -10 m 496 104 q 715 167 618 104 q 865 338 811 231 q 919 569 919 444 q 840 786 919 707 q 625 865 761 865 q 406 802 503 865 q 256 633 310 739 q 203 401 203 526 q 281 184 203 264 q 496 104 360 104 m 821 1186 l 496 1028 l 513 1122 l 840 1296 l 821 1186 z "},"Ô":{"ha":1092,"x_min":72,"x_max":1050,"o":"m 478 -10 q 265 41 357 -10 q 123 183 174 92 q 72 393 72 275 q 147 691 72 557 q 351 902 221 825 q 643 979 482 979 q 858 928 765 979 q 1000 787 950 878 q 1050 578 1050 696 q 976 278 1050 413 q 771 67 901 144 q 478 -10 640 -10 m 496 104 q 715 167 618 104 q 865 338 811 231 q 919 569 919 444 q 840 786 919 707 q 625 865 761 865 q 406 802 503 865 q 256 633 310 739 q 203 401 203 526 q 281 184 203 264 q 496 104 360 104 m 679 1164 l 467 1046 l 483 1146 l 697 1261 l 868 1146 l 850 1046 l 679 1164 z "},"Õ":{"ha":1092,"x_min":72,"x_max":1050,"o":"m 478 -10 q 265 41 357 -10 q 123 183 174 92 q 72 393 72 275 q 147 691 72 557 q 351 902 221 825 q 643 979 482 979 q 858 928 765 979 q 1000 787 950 878 q 1050 578 1050 696 q 976 278 1050 413 q 771 67 901 144 q 478 -10 640 -10 m 496 104 q 715 167 618 104 q 865 338 811 231 q 919 569 919 444 q 840 786 919 707 q 625 865 761 865 q 406 802 503 865 q 256 633 310 739 q 203 401 203 526 q 281 184 203 264 q 496 104 360 104 m 457 1053 q 522 1161 478 1124 q 621 1199 565 1199 q 664 1190 647 1199 q 704 1164 681 1182 q 735 1142 721 1150 q 768 1135 750 1135 q 810 1150 792 1135 q 839 1194 829 1165 l 913 1194 q 847 1088 892 1125 q 747 1050 803 1050 q 702 1059 721 1050 q 661 1086 683 1068 q 630 1107 642 1100 q 600 1114 618 1114 q 558 1099 576 1114 q 531 1053 540 1083 l 457 1053 z "},"Ö":{"ha":1092,"x_min":72,"x_max":1050,"o":"m 478 -10 q 265 41 357 -10 q 123 183 174 92 q 72 393 72 275 q 147 691 72 557 q 351 902 221 825 q 643 979 482 979 q 858 928 765 979 q 1000 787 950 878 q 1050 578 1050 696 q 976 278 1050 413 q 771 67 901 144 q 478 -10 640 -10 m 496 104 q 715 167 618 104 q 865 338 811 231 q 919 569 919 444 q 840 786 919 707 q 625 865 761 865 q 406 802 503 865 q 256 633 310 739 q 203 401 203 526 q 281 184 203 264 q 496 104 360 104 m 551 1074 q 506 1090 524 1074 q 489 1133 489 1107 q 515 1194 489 1168 q 576 1219 542 1219 q 620 1202 603 1219 q 638 1160 638 1185 q 611 1099 638 1125 q 551 1074 585 1074 m 778 1074 q 733 1090 750 1074 q 715 1133 715 1107 q 742 1194 715 1168 q 803 1219 768 1219 q 847 1202 829 1219 q 864 1160 864 1185 q 838 1099 864 1125 q 778 1074 811 1074 z "},"×":{"ha":893,"x_min":124,"x_max":804,"o":"m 549 511 l 731 289 l 635 208 l 453 429 l 193 208 l 124 292 l 385 513 l 206 729 l 301 811 l 481 594 l 736 811 l 804 728 l 549 511 z "},"Ø":{"ha":1092,"x_min":-22,"x_max":1144,"o":"m 979 819 q 1050 578 1050 718 q 976 278 1050 413 q 771 67 901 144 q 478 -10 640 -10 q 315 18 389 -10 q 188 99 242 46 l 81 0 l -22 0 l 143 151 q 72 393 72 253 q 147 691 72 557 q 351 902 221 825 q 643 979 482 979 q 807 951 733 979 q 933 872 881 924 l 1040 969 l 1144 969 l 979 819 m 203 401 q 240 240 203 307 l 840 786 q 625 865 761 865 q 406 802 503 865 q 256 633 310 739 q 203 401 203 526 m 919 569 q 882 731 919 664 l 282 183 q 496 104 361 104 q 715 167 618 104 q 865 338 811 231 q 919 569 919 444 z "},"Ù":{"ha":938,"x_min":89,"x_max":935,"o":"m 332 968 l 224 357 q 217 289 217 315 q 269 149 217 194 q 417 103 322 103 q 603 166 529 103 q 700 357 676 229 l 808 968 l 935 968 l 826 357 q 742 153 806 236 q 589 31 679 71 q 396 -10 499 -10 q 174 61 258 -10 q 89 269 89 132 q 97 357 89 311 l 206 968 l 332 968 m 731 1114 l 714 1019 l 447 1178 l 467 1288 l 731 1114 z "},"Ú":{"ha":938,"x_min":89,"x_max":935,"o":"m 332 968 l 224 357 q 217 289 217 315 q 269 149 217 194 q 417 103 322 103 q 603 166 529 103 q 700 357 676 229 l 808 968 l 935 968 l 826 357 q 742 153 806 236 q 589 31 679 71 q 396 -10 499 -10 q 174 61 258 -10 q 89 269 89 132 q 97 357 89 311 l 206 968 l 332 968 m 743 1178 l 418 1019 l 435 1114 l 763 1288 l 743 1178 z "},"Û":{"ha":938,"x_min":89,"x_max":935,"o":"m 332 968 l 224 357 q 217 289 217 315 q 269 149 217 194 q 417 103 322 103 q 603 166 529 103 q 700 357 676 229 l 808 968 l 935 968 l 826 357 q 742 153 806 236 q 589 31 679 71 q 396 -10 499 -10 q 174 61 258 -10 q 89 269 89 132 q 97 357 89 311 l 206 968 l 332 968 m 601 1156 l 389 1038 l 406 1138 l 619 1253 l 790 1138 l 772 1038 l 601 1156 z "},"Ü":{"ha":938,"x_min":89,"x_max":935,"o":"m 332 968 l 224 357 q 217 289 217 315 q 269 149 217 194 q 417 103 322 103 q 603 166 529 103 q 700 357 676 229 l 808 968 l 935 968 l 826 357 q 742 153 806 236 q 589 31 679 71 q 396 -10 499 -10 q 174 61 258 -10 q 89 269 89 132 q 97 357 89 311 l 206 968 l 332 968 m 474 1065 q 428 1082 446 1065 q 411 1125 411 1099 q 438 1185 411 1160 q 499 1211 464 1211 q 542 1194 525 1211 q 560 1151 560 1176 q 533 1091 560 1117 q 474 1065 507 1065 m 700 1065 q 655 1082 672 1065 q 638 1125 638 1099 q 664 1185 638 1160 q 725 1211 690 1211 q 769 1194 751 1211 q 786 1151 786 1176 q 760 1091 786 1117 q 700 1065 733 1065 z "},"Ý":{"ha":811,"x_min":126,"x_max":886,"o":"m 886 968 l 464 365 l 399 0 l 272 0 l 338 365 l 126 968 l 268 968 l 419 481 l 743 968 l 886 968 m 681 1178 l 356 1019 l 372 1114 l 700 1288 l 681 1178 z "},"Þ":{"ha":804,"x_min":36,"x_max":775,"o":"m 769 485 q 650 283 747 363 q 385 203 553 203 l 199 203 l 163 0 l 36 0 l 208 969 l 333 969 l 297 768 l 485 768 q 702 706 629 768 q 775 540 775 644 q 769 485 775 524 m 403 304 q 566 352 507 304 q 640 485 625 400 q 644 529 644 508 q 468 668 644 668 l 282 668 l 217 304 l 403 304 z "},"ß":{"ha":915,"x_min":18,"x_max":840,"o":"m 154 779 q 274 990 178 908 q 531 1071 371 1071 q 729 1015 660 1071 q 799 875 799 960 q 775 776 799 821 q 719 701 751 732 q 635 629 686 669 q 567 572 589 594 q 546 525 546 549 q 573 481 546 500 q 682 432 600 461 q 803 359 765 404 q 840 242 840 314 q 801 110 840 168 q 692 19 761 51 q 536 -14 622 -14 q 357 44 422 -14 q 292 203 292 103 q 293 236 292 225 l 421 236 q 419 213 419 228 q 453 121 419 154 q 550 88 488 88 q 665 124 622 88 q 707 226 707 161 q 681 289 707 264 q 592 336 654 314 q 456 406 497 369 q 414 497 414 443 q 447 592 414 551 q 546 685 481 632 q 640 772 610 736 q 669 856 669 808 q 628 935 669 907 q 511 964 586 964 q 278 764 314 964 l 144 0 l 18 0 l 154 779 z "},"à":{"ha":939,"x_min":47,"x_max":896,"o":"m 56 383 q 140 588 76 500 q 294 725 203 676 q 488 774 385 774 q 653 731 588 774 q 743 622 718 688 l 768 761 l 896 761 l 761 0 l 633 0 l 660 142 q 528 31 610 75 q 347 -12 446 -12 q 190 26 258 -12 q 85 135 122 64 q 47 299 47 206 q 56 383 47 340 m 701 382 q 707 444 707 411 q 647 605 707 546 q 493 664 586 664 q 358 631 422 664 q 247 533 293 597 q 186 383 201 469 q 181 319 181 354 q 240 158 181 217 q 393 99 300 99 q 528 133 464 99 q 640 231 593 167 q 701 382 686 296 m 696 913 l 679 818 l 413 976 l 432 1086 l 696 913 z "},"á":{"ha":939,"x_min":47,"x_max":896,"o":"m 56 383 q 140 588 76 500 q 294 725 203 676 q 488 774 385 774 q 653 731 588 774 q 743 622 718 688 l 768 761 l 896 761 l 761 0 l 633 0 l 660 142 q 528 31 610 75 q 347 -12 446 -12 q 190 26 258 -12 q 85 135 122 64 q 47 299 47 206 q 56 383 47 340 m 701 382 q 707 444 707 411 q 647 605 707 546 q 493 664 586 664 q 358 631 422 664 q 247 533 293 597 q 186 383 201 469 q 181 319 181 354 q 240 158 181 217 q 393 99 300 99 q 528 133 464 99 q 640 231 593 167 q 701 382 686 296 m 708 976 l 383 818 l 400 913 l 728 1086 l 708 976 z "},"â":{"ha":939,"x_min":47,"x_max":896,"o":"m 56 383 q 140 588 76 500 q 294 725 203 676 q 488 774 385 774 q 653 731 588 774 q 743 622 718 688 l 768 761 l 896 761 l 761 0 l 633 0 l 660 142 q 528 31 610 75 q 347 -12 446 -12 q 190 26 258 -12 q 85 135 122 64 q 47 299 47 206 q 56 383 47 340 m 701 382 q 707 444 707 411 q 647 605 707 546 q 493 664 586 664 q 358 631 422 664 q 247 533 293 597 q 186 383 201 469 q 181 319 181 354 q 240 158 181 217 q 393 99 300 99 q 528 133 464 99 q 640 231 593 167 q 701 382 686 296 m 568 954 l 356 836 l 372 936 l 586 1051 l 757 936 l 739 836 l 568 954 z "},"ã":{"ha":939,"x_min":47,"x_max":896,"o":"m 56 383 q 140 588 76 500 q 294 725 203 676 q 488 774 385 774 q 653 731 588 774 q 743 622 718 688 l 768 761 l 896 761 l 761 0 l 633 0 l 660 142 q 528 31 610 75 q 347 -12 446 -12 q 190 26 258 -12 q 85 135 122 64 q 47 299 47 206 q 56 383 47 340 m 701 382 q 707 444 707 411 q 647 605 707 546 q 493 664 586 664 q 358 631 422 664 q 247 533 293 597 q 186 383 201 469 q 181 319 181 354 q 240 158 181 217 q 393 99 300 99 q 528 133 464 99 q 640 231 593 167 q 701 382 686 296 m 346 843 q 410 951 367 914 q 510 989 454 989 q 553 981 536 989 q 593 954 569 972 q 624 933 610 940 q 657 925 639 925 q 699 940 681 925 q 728 985 718 956 l 801 985 q 736 878 781 915 q 636 840 692 840 q 591 849 610 840 q 550 876 572 858 q 519 897 531 890 q 489 904 507 904 q 447 889 465 904 q 419 843 429 874 l 346 843 z "},"ä":{"ha":939,"x_min":47,"x_max":896,"o":"m 56 383 q 140 588 76 500 q 294 725 203 676 q 488 774 385 774 q 653 731 588 774 q 743 622 718 688 l 768 761 l 896 761 l 761 0 l 633 0 l 660 142 q 528 31 610 75 q 347 -12 446 -12 q 190 26 258 -12 q 85 135 122 64 q 47 299 47 206 q 56 383 47 340 m 701 382 q 707 444 707 411 q 647 605 707 546 q 493 664 586 664 q 358 631 422 664 q 247 533 293 597 q 186 383 201 469 q 181 319 181 354 q 240 158 181 217 q 393 99 300 99 q 528 133 464 99 q 640 231 593 167 q 701 382 686 296 m 440 864 q 395 881 413 864 q 378 924 378 897 q 404 984 378 958 q 465 1010 431 1010 q 509 992 492 1010 q 526 950 526 975 q 500 890 526 915 q 440 864 474 864 m 667 864 q 622 881 639 864 q 604 924 604 897 q 631 984 604 958 q 692 1010 657 1010 q 735 992 718 1010 q 753 950 753 975 q 726 890 753 915 q 667 864 700 864 z "},"å":{"ha":939,"x_min":47,"x_max":896,"o":"m 56 383 q 140 588 76 500 q 294 725 203 676 q 488 774 385 774 q 653 731 588 774 q 743 622 718 688 l 768 761 l 896 761 l 761 0 l 633 0 l 660 142 q 528 31 610 75 q 347 -12 446 -12 q 190 26 258 -12 q 85 135 122 64 q 47 299 47 206 q 56 383 47 340 m 701 382 q 707 444 707 411 q 647 605 707 546 q 493 664 586 664 q 358 631 422 664 q 247 533 293 597 q 186 383 201 469 q 181 319 181 354 q 240 158 181 217 q 393 99 300 99 q 528 133 464 99 q 640 231 593 167 q 701 382 686 296 m 429 989 q 490 1095 442 1056 q 600 1135 539 1135 q 689 1103 656 1135 q 722 1019 722 1072 q 719 989 722 1011 q 659 883 707 922 q 549 843 611 843 q 460 875 494 843 q 426 960 426 907 q 429 989 426 969 m 654 1006 q 635 1051 654 1035 q 588 1068 617 1068 q 524 1042 551 1068 q 496 975 496 1015 q 514 928 496 946 q 560 911 532 911 q 626 938 597 911 q 654 1006 654 965 z "},"æ":{"ha":1524,"x_min":47,"x_max":1475,"o":"m 1175 774 q 1336 736 1268 774 q 1440 633 1404 699 q 1475 483 1475 567 q 1468 413 1475 454 q 1449 338 1460 372 l 822 338 q 821 310 821 328 q 883 151 821 207 q 1035 94 946 94 q 1188 133 1124 94 q 1283 235 1253 171 l 1419 235 q 1269 56 1371 125 q 1036 -12 1168 -12 q 874 31 943 -12 q 779 147 804 74 l 754 0 l 635 0 l 661 146 q 525 31 607 75 q 349 -12 443 -12 q 192 26 260 -12 q 85 135 124 64 q 47 299 47 206 q 56 383 47 340 q 140 588 76 500 q 295 725 203 676 q 493 774 388 774 q 651 734 588 774 q 744 621 715 694 l 769 761 l 888 761 l 864 621 q 1175 774 983 774 m 1340 429 q 1344 479 1344 457 q 1286 617 1344 568 q 1136 667 1228 667 q 953 603 1036 667 q 839 429 869 539 l 1340 429 m 701 382 q 707 444 707 411 q 647 605 707 546 q 493 664 586 664 q 358 631 422 664 q 247 533 293 597 q 186 383 201 469 q 181 319 181 354 q 240 158 181 217 q 393 99 300 99 q 528 133 464 99 q 640 231 593 167 q 701 382 686 296 z "},"ç":{"ha":843,"x_min":47,"x_max":803,"o":"m 378 94 q 523 133 461 94 q 618 244 585 172 l 754 244 q 614 67 707 136 q 397 -11 521 -1 l 386 -81 q 501 -108 458 -79 q 543 -190 543 -136 q 486 -313 543 -265 q 346 -361 429 -361 l 186 -361 l 200 -279 l 335 -279 q 405 -265 381 -279 q 435 -218 429 -251 q 436 -204 436 -212 q 417 -169 436 -179 q 357 -158 397 -158 l 286 -158 l 313 -10 q 119 83 190 3 q 47 292 47 163 q 56 382 47 335 q 140 588 76 500 q 296 725 203 676 q 497 774 389 774 q 716 706 638 774 q 803 517 794 638 l 667 517 q 610 626 660 586 q 478 667 561 667 q 290 592 369 667 q 186 382 210 518 q 179 306 179 336 q 233 149 179 204 q 378 94 288 94 z "},"è":{"ha":861,"x_min":47,"x_max":811,"o":"m 501 774 q 667 737 597 774 q 774 634 738 700 q 811 483 811 568 q 804 413 811 454 q 786 338 799 376 l 178 338 q 175 297 175 310 q 233 148 175 201 q 383 94 290 94 q 527 133 465 94 q 621 235 589 171 l 757 235 q 603 56 707 125 q 364 -12 500 -12 q 134 70 221 -12 q 47 296 47 153 q 56 382 47 336 q 140 589 76 500 q 298 726 204 678 q 501 774 392 774 m 676 429 q 681 481 681 457 q 624 618 681 569 q 478 667 568 667 q 301 603 381 667 q 194 429 222 540 l 676 429 m 657 913 l 640 818 l 374 976 l 393 1086 l 657 913 z "},"é":{"ha":861,"x_min":47,"x_max":811,"o":"m 501 774 q 667 737 597 774 q 774 634 738 700 q 811 483 811 568 q 804 413 811 454 q 786 338 799 376 l 178 338 q 175 297 175 310 q 233 148 175 201 q 383 94 290 94 q 527 133 465 94 q 621 235 589 171 l 757 235 q 603 56 707 125 q 364 -12 500 -12 q 134 70 221 -12 q 47 296 47 153 q 56 382 47 336 q 140 589 76 500 q 298 726 204 678 q 501 774 392 774 m 676 429 q 681 481 681 457 q 624 618 681 569 q 478 667 568 667 q 301 603 381 667 q 194 429 222 540 l 676 429 m 669 976 l 344 818 l 361 913 l 689 1086 l 669 976 z "},"ê":{"ha":861,"x_min":47,"x_max":811,"o":"m 501 774 q 667 737 597 774 q 774 634 738 700 q 811 483 811 568 q 804 413 811 454 q 786 338 799 376 l 178 338 q 175 297 175 310 q 233 148 175 201 q 383 94 290 94 q 527 133 465 94 q 621 235 589 171 l 757 235 q 603 56 707 125 q 364 -12 500 -12 q 134 70 221 -12 q 47 296 47 153 q 56 382 47 336 q 140 589 76 500 q 298 726 204 678 q 501 774 392 774 m 676 429 q 681 481 681 457 q 624 618 681 569 q 478 667 568 667 q 301 603 381 667 q 194 429 222 540 l 676 429 m 529 954 l 317 836 l 333 936 l 547 1051 l 718 936 l 700 836 l 529 954 z "},"ë":{"ha":861,"x_min":47,"x_max":811,"o":"m 501 774 q 667 737 597 774 q 774 634 738 700 q 811 483 811 568 q 804 413 811 454 q 786 338 799 376 l 178 338 q 175 297 175 310 q 233 148 175 201 q 383 94 290 94 q 527 133 465 94 q 621 235 589 171 l 757 235 q 603 56 707 125 q 364 -12 500 -12 q 134 70 221 -12 q 47 296 47 153 q 56 382 47 336 q 140 589 76 500 q 298 726 204 678 q 501 774 392 774 m 676 429 q 681 481 681 457 q 624 618 681 569 q 478 667 568 667 q 301 603 381 667 q 194 429 222 540 l 676 429 m 400 864 q 355 881 372 864 q 338 924 338 897 q 364 984 338 958 q 425 1010 390 1010 q 469 992 451 1010 q 486 950 486 975 q 460 890 486 915 q 400 864 433 864 m 626 864 q 581 881 599 864 q 564 924 564 897 q 590 984 564 958 q 651 1010 617 1010 q 695 992 678 1010 q 713 950 713 975 q 686 890 713 915 q 626 864 660 864 z "},"ì":{"ha":342,"x_min":36,"x_max":396,"o":"m 297 761 l 163 0 l 36 0 l 171 761 l 297 761 m 396 913 l 379 818 l 113 976 l 132 1086 l 396 913 z "},"í":{"ha":342,"x_min":36,"x_max":428,"o":"m 297 761 l 163 0 l 36 0 l 171 761 l 297 761 m 408 976 l 83 818 l 100 913 l 428 1086 l 408 976 z "},"î":{"ha":342,"x_min":36,"x_max":457,"o":"m 297 761 l 163 0 l 36 0 l 171 761 l 297 761 m 268 954 l 56 836 l 72 936 l 286 1051 l 457 936 l 439 836 l 268 954 z "},"ï":{"ha":342,"x_min":36,"x_max":453,"o":"m 297 761 l 163 0 l 36 0 l 171 761 l 297 761 m 140 864 q 95 881 113 864 q 78 924 78 897 q 104 984 78 958 q 165 1010 131 1010 q 209 992 192 1010 q 226 950 226 975 q 200 890 226 915 q 140 864 174 864 m 367 864 q 322 881 339 864 q 304 924 304 897 q 331 984 304 958 q 392 1010 357 1010 q 435 992 418 1010 q 453 950 453 975 q 426 890 453 915 q 367 864 400 864 z "},"ð":{"ha":886,"x_min":49,"x_max":878,"o":"m 867 961 l 728 917 q 846 564 846 754 q 833 438 846 503 q 740 191 808 292 q 576 39 672 90 q 367 -12 479 -12 q 135 72 221 -12 q 49 299 49 156 q 57 386 49 340 q 142 590 78 501 q 299 726 206 678 q 499 775 393 775 q 726 647 664 775 q 629 886 707 779 l 438 825 l 450 894 l 588 939 q 503 1028 560 974 l 632 1028 q 686 971 669 990 l 878 1032 l 867 961 m 694 382 q 701 450 701 421 q 642 611 701 554 q 489 668 582 668 q 356 635 419 668 q 248 540 293 603 q 186 386 203 476 q 179 313 179 342 q 236 151 179 208 q 386 94 293 94 q 520 128 456 94 q 631 226 585 161 q 694 382 678 292 z "},"ñ":{"ha":889,"x_min":36,"x_max":804,"o":"m 544 775 q 733 712 663 775 q 804 528 804 649 q 797 449 804 483 l 718 0 l 593 0 l 669 431 q 675 492 675 460 q 628 621 675 576 q 499 665 582 665 q 328 603 399 665 q 238 421 258 540 l 238 424 l 163 0 l 36 0 l 171 761 l 297 761 l 278 651 q 396 743 325 711 q 544 775 467 775 m 322 843 q 387 951 343 914 q 486 989 431 989 q 529 981 513 989 q 569 954 546 972 q 601 933 586 940 q 633 925 615 925 q 676 940 657 925 q 704 985 694 956 l 778 985 q 713 878 757 915 q 613 840 668 840 q 567 849 586 840 q 526 876 549 858 q 495 897 507 890 q 465 904 483 904 q 424 889 442 904 q 396 843 406 874 l 322 843 z "},"ò":{"ha":889,"x_min":49,"x_max":833,"o":"m 371 -12 q 202 27 275 -12 q 89 138 129 67 q 49 304 49 210 q 108 541 49 433 q 273 711 168 649 q 507 774 378 774 q 677 734 603 774 q 792 623 751 694 q 833 456 833 551 q 772 219 833 326 q 606 50 711 113 q 371 -12 500 -12 m 386 94 q 549 144 476 94 q 662 274 621 193 q 703 449 703 356 q 642 610 703 554 q 489 667 581 667 q 328 617 399 667 q 218 486 257 568 q 179 310 179 404 q 238 151 179 207 q 386 94 296 94 m 669 925 l 653 831 l 386 989 l 406 1099 l 669 925 z "},"ó":{"ha":889,"x_min":49,"x_max":833,"o":"m 371 -12 q 202 27 275 -12 q 89 138 129 67 q 49 304 49 210 q 108 541 49 433 q 273 711 168 649 q 507 774 378 774 q 677 734 603 774 q 792 623 751 694 q 833 456 833 551 q 772 219 833 326 q 606 50 711 113 q 371 -12 500 -12 m 386 94 q 549 144 476 94 q 662 274 621 193 q 703 449 703 356 q 642 610 703 554 q 489 667 581 667 q 328 617 399 667 q 218 486 257 568 q 179 310 179 404 q 238 151 179 207 q 386 94 296 94 m 682 989 l 357 831 l 374 925 l 701 1099 l 682 989 z "},"ô":{"ha":889,"x_min":49,"x_max":833,"o":"m 371 -12 q 202 27 275 -12 q 89 138 129 67 q 49 304 49 210 q 108 541 49 433 q 273 711 168 649 q 507 774 378 774 q 677 734 603 774 q 792 623 751 694 q 833 456 833 551 q 772 219 833 326 q 606 50 711 113 q 371 -12 500 -12 m 386 94 q 549 144 476 94 q 662 274 621 193 q 703 449 703 356 q 642 610 703 554 q 489 667 581 667 q 328 617 399 667 q 218 486 257 568 q 179 310 179 404 q 238 151 179 207 q 386 94 296 94 m 542 967 l 329 849 l 346 949 l 560 1064 l 731 949 l 713 849 l 542 967 z "},"õ":{"ha":889,"x_min":49,"x_max":833,"o":"m 371 -12 q 202 27 275 -12 q 89 138 129 67 q 49 304 49 210 q 108 541 49 433 q 273 711 168 649 q 507 774 378 774 q 677 734 603 774 q 792 623 751 694 q 833 456 833 551 q 772 219 833 326 q 606 50 711 113 q 371 -12 500 -12 m 386 94 q 549 144 476 94 q 662 274 621 193 q 703 449 703 356 q 642 610 703 554 q 489 667 581 667 q 328 617 399 667 q 218 486 257 568 q 179 310 179 404 q 238 151 179 207 q 386 94 296 94 m 319 856 q 384 964 340 926 q 483 1001 428 1001 q 526 993 510 1001 q 567 967 543 985 q 598 945 583 953 q 631 938 613 938 q 673 953 654 938 q 701 997 692 968 l 775 997 q 710 890 754 928 q 610 853 665 853 q 565 862 583 853 q 524 889 546 871 q 492 910 504 903 q 463 917 481 917 q 421 901 439 917 q 393 856 403 886 l 319 856 z "},"ö":{"ha":889,"x_min":49,"x_max":833,"o":"m 371 -12 q 202 27 275 -12 q 89 138 129 67 q 49 304 49 210 q 108 541 49 433 q 273 711 168 649 q 507 774 378 774 q 677 734 603 774 q 792 623 751 694 q 833 456 833 551 q 772 219 833 326 q 606 50 711 113 q 371 -12 500 -12 m 386 94 q 549 144 476 94 q 662 274 621 193 q 703 449 703 356 q 642 610 703 554 q 489 667 581 667 q 328 617 399 667 q 218 486 257 568 q 179 310 179 404 q 238 151 179 207 q 386 94 296 94 m 414 876 q 369 893 386 876 q 351 936 351 910 q 378 997 351 971 q 439 1022 404 1022 q 483 1005 465 1022 q 500 963 500 988 q 474 902 500 928 q 414 876 447 876 m 640 876 q 595 893 613 876 q 578 936 578 910 q 604 997 578 971 q 665 1022 631 1022 q 709 1005 692 1022 q 726 963 726 988 q 700 902 726 928 q 640 876 674 876 z "},"÷":{"ha":913,"x_min":117,"x_max":846,"o":"m 506 722 q 453 742 474 722 q 433 793 433 761 q 464 865 433 835 q 536 894 494 894 q 588 875 568 894 q 607 824 607 856 q 576 752 607 782 q 506 722 546 722 m 846 564 l 825 453 l 117 453 l 138 564 l 846 564 m 401 126 q 349 146 369 126 q 329 197 329 165 q 360 269 329 239 q 432 299 390 299 q 483 279 464 299 q 503 228 503 260 q 472 156 503 186 q 401 126 442 126 z "},"ø":{"ha":889,"x_min":-18,"x_max":901,"o":"m 776 647 q 833 456 833 567 q 772 219 833 326 q 606 50 711 113 q 371 -12 500 -12 q 245 8 303 -12 q 146 67 188 29 l 72 0 l -18 0 l 104 113 q 49 304 49 192 q 108 541 49 433 q 273 711 168 649 q 507 774 378 774 q 635 753 576 774 q 736 693 693 732 l 811 761 l 901 761 l 776 647 m 179 310 q 201 201 179 250 l 644 608 q 489 667 585 667 q 328 617 399 667 q 218 486 257 568 q 179 310 179 404 m 703 449 q 679 558 703 511 l 238 151 q 386 94 294 94 q 549 144 476 94 q 662 274 621 193 q 703 449 703 356 z "},"ù":{"ha":889,"x_min":78,"x_max":846,"o":"m 846 761 l 711 0 l 585 0 l 604 111 q 488 21 558 53 q 340 -11 417 -11 q 149 53 221 -11 q 78 239 78 118 q 85 315 78 269 l 164 761 l 289 761 l 214 332 q 208 271 208 303 q 255 142 208 186 q 385 99 301 99 q 555 161 485 99 q 644 343 625 224 l 644 339 l 719 761 l 846 761 m 671 913 l 654 818 l 388 976 l 407 1086 l 671 913 z "},"ú":{"ha":889,"x_min":78,"x_max":846,"o":"m 846 761 l 711 0 l 585 0 l 604 111 q 488 21 558 53 q 340 -11 417 -11 q 149 53 221 -11 q 78 239 78 118 q 85 315 78 269 l 164 761 l 289 761 l 214 332 q 208 271 208 303 q 255 142 208 186 q 385 99 301 99 q 555 161 485 99 q 644 343 625 224 l 644 339 l 719 761 l 846 761 m 683 976 l 358 818 l 375 913 l 703 1086 l 683 976 z "},"û":{"ha":889,"x_min":78,"x_max":846,"o":"m 846 761 l 711 0 l 585 0 l 604 111 q 488 21 558 53 q 340 -11 417 -11 q 149 53 221 -11 q 78 239 78 118 q 85 315 78 269 l 164 761 l 289 761 l 214 332 q 208 271 208 303 q 255 142 208 186 q 385 99 301 99 q 555 161 485 99 q 644 343 625 224 l 644 339 l 719 761 l 846 761 m 543 954 l 331 836 l 347 936 l 561 1051 l 732 936 l 714 836 l 543 954 z "},"ü":{"ha":889,"x_min":78,"x_max":846,"o":"m 846 761 l 711 0 l 585 0 l 604 111 q 488 21 558 53 q 340 -11 417 -11 q 149 53 221 -11 q 78 239 78 118 q 85 315 78 269 l 164 761 l 289 761 l 214 332 q 208 271 208 303 q 255 142 208 186 q 385 99 301 99 q 555 161 485 99 q 644 343 625 224 l 644 339 l 719 761 l 846 761 m 415 864 q 370 881 388 864 q 353 924 353 897 q 379 984 353 958 q 440 1010 406 1010 q 484 992 467 1010 q 501 950 501 975 q 475 890 501 915 q 415 864 449 864 m 642 864 q 597 881 614 864 q 579 924 579 897 q 606 984 579 958 q 667 1010 632 1010 q 710 992 693 1010 q 728 950 728 975 q 701 890 728 915 q 642 864 675 864 z "},"ý":{"ha":782,"x_min":39,"x_max":826,"o":"m 221 761 l 350 147 l 696 761 l 826 761 l 171 -358 l 39 -358 l 254 8 l 81 761 l 221 761 m 629 976 l 304 818 l 321 913 l 649 1086 l 629 976 z "},"þ":{"ha":939,"x_min":-26,"x_max":885,"o":"m 269 600 q 401 726 319 678 q 583 774 483 774 q 741 737 672 774 q 847 631 810 700 q 885 469 885 563 q 876 383 885 429 q 792 178 856 268 q 638 38 729 88 q 446 -12 547 -12 q 281 37 346 -12 q 192 167 215 86 l 100 -361 l -26 -361 l 218 1028 l 344 1028 l 269 600 m 747 383 q 753 447 753 413 q 693 606 753 549 q 539 664 633 664 q 404 630 469 664 q 292 531 339 596 q 231 382 246 467 q 225 318 225 353 q 285 158 225 217 q 439 99 346 99 q 574 133 510 99 q 685 231 639 167 q 747 383 732 296 z "},"ÿ":{"ha":782,"x_min":39,"x_max":826,"o":"m 221 761 l 350 147 l 696 761 l 826 761 l 171 -358 l 39 -358 l 254 8 l 81 761 l 221 761 m 361 864 q 316 881 333 864 q 299 924 299 897 q 325 984 299 958 q 386 1010 351 1010 q 430 992 413 1010 q 447 950 447 975 q 421 890 447 915 q 361 864 394 864 m 588 864 q 542 881 560 864 q 525 924 525 897 q 551 984 525 958 q 613 1010 578 1010 q 656 992 639 1010 q 674 950 674 975 q 647 890 674 915 q 588 864 621 864 z "},"Ā":{"ha":936,"x_min":-25,"x_max":853,"o":"m 647 215 l 224 215 l 108 0 l -25 0 l 494 963 l 640 963 l 819 0 l 686 0 l 647 215 m 629 314 l 540 808 l 276 314 l 629 314 m 853 1186 l 836 1092 l 347 1092 l 364 1186 l 853 1186 z "},"ā":{"ha":939,"x_min":47,"x_max":896,"o":"m 56 383 q 140 588 76 500 q 294 725 203 676 q 488 774 385 774 q 653 731 588 774 q 743 622 718 688 l 768 761 l 896 761 l 761 0 l 633 0 l 660 142 q 528 31 610 75 q 347 -12 446 -12 q 190 26 258 -12 q 85 135 122 64 q 47 299 47 206 q 56 383 47 340 m 701 382 q 707 444 707 411 q 647 605 707 546 q 493 664 586 664 q 358 631 422 664 q 247 533 293 597 q 186 383 201 469 q 181 319 181 354 q 240 158 181 217 q 393 99 300 99 q 528 133 464 99 q 640 231 593 167 q 701 382 686 296 m 819 985 l 803 890 l 314 890 l 331 985 l 819 985 z "},"Ă":{"ha":936,"x_min":-25,"x_max":819,"o":"m 647 215 l 224 215 l 108 0 l -25 0 l 494 963 l 640 963 l 819 0 l 686 0 l 647 215 m 629 314 l 540 808 l 276 314 l 629 314 m 814 1229 q 739 1099 800 1150 q 585 1049 678 1049 q 459 1089 503 1049 q 415 1196 415 1129 q 418 1231 415 1206 l 422 1254 l 497 1254 q 494 1228 494 1235 q 601 1149 494 1149 q 699 1176 665 1149 q 743 1254 733 1203 l 818 1254 l 814 1229 z "},"ă":{"ha":939,"x_min":47,"x_max":896,"o":"m 56 383 q 140 588 76 500 q 294 725 203 676 q 488 774 385 774 q 653 731 588 774 q 743 622 718 688 l 768 761 l 896 761 l 761 0 l 633 0 l 660 142 q 528 31 610 75 q 347 -12 446 -12 q 190 26 258 -12 q 85 135 122 64 q 47 299 47 206 q 56 383 47 340 m 701 382 q 707 444 707 411 q 647 605 707 546 q 493 664 586 664 q 358 631 422 664 q 247 533 293 597 q 186 383 201 469 q 181 319 181 354 q 240 158 181 217 q 393 99 300 99 q 528 133 464 99 q 640 231 593 167 q 701 382 686 296 m 779 1028 q 704 898 765 949 q 550 847 643 847 q 424 888 468 847 q 381 994 381 928 q 383 1029 381 1004 l 388 1053 l 463 1053 q 460 1026 460 1033 q 567 947 460 947 q 665 974 631 947 q 708 1053 699 1001 l 783 1053 l 779 1028 z "},"Ą":{"ha":936,"x_min":-25,"x_max":819,"o":"m 636 -135 q 635 -147 635 -139 q 653 -187 635 -174 q 706 -201 672 -201 q 801 -183 744 -201 l 786 -267 q 676 -286 728 -286 q 570 -258 614 -286 q 526 -174 526 -231 q 563 -67 526 -119 q 682 26 600 -15 l 647 215 l 224 215 l 108 0 l -25 0 l 494 963 l 640 963 l 819 0 l 738 -37 q 636 -135 647 -78 m 629 314 l 540 808 l 276 314 l 629 314 z "},"ą":{"ha":939,"x_min":47,"x_max":896,"o":"m 679 -37 q 578 -135 589 -78 q 576 -147 576 -139 q 595 -187 576 -174 q 647 -201 614 -201 q 742 -183 688 -201 l 728 -267 q 617 -286 667 -286 q 512 -259 554 -286 q 469 -175 469 -232 q 508 -69 469 -118 q 638 24 547 -21 l 660 142 q 528 31 610 75 q 347 -12 446 -12 q 190 26 258 -12 q 85 135 122 64 q 47 299 47 206 q 56 383 47 340 q 140 588 76 500 q 294 725 203 676 q 488 774 385 774 q 653 731 588 774 q 743 622 718 688 l 768 761 l 896 761 l 761 0 l 679 -37 m 393 99 q 528 133 464 99 q 640 231 593 167 q 701 382 686 296 q 707 444 707 411 q 647 605 707 546 q 493 664 586 664 q 358 631 422 664 q 247 533 293 597 q 186 383 201 469 q 181 319 181 354 q 240 158 181 217 q 393 99 300 99 z "},"Ć":{"ha":1072,"x_min":67,"x_max":1043,"o":"m 75 485 q 184 740 100 626 q 390 917 268 853 q 644 981 511 981 q 908 904 803 981 q 1043 688 1013 828 l 892 688 q 799 819 867 772 q 625 865 731 865 q 435 819 524 865 q 286 685 347 772 q 204 485 225 599 q 197 401 197 449 q 277 185 197 265 q 490 106 357 106 q 681 151 596 106 q 819 282 765 197 l 971 282 q 760 67 892 143 q 471 -8 629 -8 q 261 41 353 -8 q 118 180 169 90 q 67 386 67 269 q 75 485 67 435 m 818 1178 l 493 1019 l 510 1114 l 838 1288 l 818 1178 z "},"ć":{"ha":843,"x_min":47,"x_max":803,"o":"m 56 382 q 140 588 76 500 q 296 725 203 676 q 497 774 389 774 q 716 706 638 774 q 803 517 794 638 l 667 517 q 610 626 660 586 q 478 667 561 667 q 290 592 369 667 q 186 382 210 518 q 179 306 179 336 q 233 149 179 204 q 378 94 288 94 q 523 133 461 94 q 618 244 585 172 l 754 244 q 600 58 704 128 q 358 -12 496 -12 q 131 69 215 -12 q 47 293 47 151 q 56 382 47 336 m 661 976 l 336 818 l 353 913 l 681 1086 l 661 976 z "},"Ċ":{"ha":1072,"x_min":67,"x_max":1043,"o":"m 75 485 q 184 740 100 626 q 390 917 268 853 q 644 981 511 981 q 908 904 803 981 q 1043 688 1013 828 l 892 688 q 799 819 867 772 q 625 865 731 865 q 435 819 524 865 q 286 685 347 772 q 204 485 225 599 q 197 401 197 449 q 277 185 197 265 q 490 106 357 106 q 681 151 596 106 q 819 282 765 197 l 971 282 q 760 67 892 143 q 471 -8 629 -8 q 261 41 353 -8 q 118 180 169 90 q 67 386 67 269 q 75 485 67 435 m 661 1057 q 616 1074 633 1057 q 599 1117 599 1090 q 626 1176 599 1150 q 686 1203 653 1203 q 730 1185 713 1203 q 747 1143 747 1168 q 721 1083 747 1108 q 661 1057 694 1057 z "},"ċ":{"ha":843,"x_min":47,"x_max":803,"o":"m 56 382 q 140 588 76 500 q 296 725 203 676 q 497 774 389 774 q 716 706 638 774 q 803 517 794 638 l 667 517 q 610 626 660 586 q 478 667 561 667 q 290 592 369 667 q 186 382 210 518 q 179 306 179 336 q 233 149 179 204 q 378 94 288 94 q 523 133 461 94 q 618 244 585 172 l 754 244 q 600 58 704 128 q 358 -12 496 -12 q 131 69 215 -12 q 47 293 47 151 q 56 382 47 336 m 503 857 q 458 874 475 857 q 440 917 440 890 q 467 976 440 950 q 528 1003 494 1003 q 572 985 554 1003 q 589 943 589 968 q 563 883 589 908 q 503 857 536 857 z "},"Č":{"ha":1072,"x_min":67,"x_max":1043,"o":"m 75 485 q 184 740 100 626 q 390 917 268 853 q 644 981 511 981 q 908 904 803 981 q 1043 688 1013 828 l 892 688 q 799 819 867 772 q 625 865 731 865 q 435 819 524 865 q 286 685 347 772 q 204 485 225 599 q 197 401 197 449 q 277 185 197 265 q 490 106 357 106 q 681 151 596 106 q 819 282 765 197 l 971 282 q 760 67 892 143 q 471 -8 629 -8 q 261 41 353 -8 q 118 180 169 90 q 67 386 67 269 q 75 485 67 435 m 869 1151 l 657 1036 l 485 1151 l 503 1251 l 675 1133 l 888 1251 l 869 1151 z "},"č":{"ha":843,"x_min":47,"x_max":803,"o":"m 56 382 q 140 588 76 500 q 296 725 203 676 q 497 774 389 774 q 716 706 638 774 q 803 517 794 638 l 667 517 q 610 626 660 586 q 478 667 561 667 q 290 592 369 667 q 186 382 210 518 q 179 306 179 336 q 233 149 179 204 q 378 94 288 94 q 523 133 461 94 q 618 244 585 172 l 754 244 q 600 58 704 128 q 358 -12 496 -12 q 131 69 215 -12 q 47 293 47 151 q 56 382 47 336 m 711 950 l 499 835 l 326 950 l 344 1050 l 517 932 l 729 1050 l 711 950 z "},"Ď":{"ha":982,"x_min":36,"x_max":946,"o":"m 510 968 q 831 868 717 968 q 946 590 946 768 q 936 482 946 535 q 828 224 910 333 q 622 58 747 115 q 338 0 496 0 l 36 0 l 208 968 l 510 968 m 356 97 q 658 199 542 97 q 807 482 775 301 q 815 576 815 532 q 733 790 815 714 q 492 865 651 865 l 317 865 l 181 97 l 356 97 m 813 1151 l 600 1036 l 428 1151 l 446 1251 l 618 1133 l 831 1251 l 813 1151 z "},"ď":{"ha":1047,"x_min":47,"x_max":1144,"o":"m 56 383 q 140 588 76 500 q 294 725 203 676 q 489 774 386 774 q 646 733 576 774 q 744 625 715 692 l 815 1028 l 943 1028 l 761 0 l 633 0 l 660 143 q 529 31 611 75 q 349 -12 447 -12 q 192 26 260 -12 q 85 135 124 64 q 47 299 47 206 q 56 383 47 340 m 1143 1028 q 1136 900 1144 960 q 967 743 1108 743 l 976 803 q 1031 821 1013 803 q 1057 876 1050 839 l 1063 908 l 994 908 l 1015 1028 l 1143 1028 m 701 382 q 707 444 707 411 q 647 605 707 546 q 493 664 586 664 q 358 631 422 664 q 247 533 293 597 q 186 383 201 469 q 181 319 181 354 q 240 158 181 217 q 393 99 300 99 q 528 133 464 99 q 640 231 593 167 q 701 382 686 296 z "},"Đ":{"ha":1007,"x_min":17,"x_max":971,"o":"m 535 968 q 856 868 742 968 q 971 590 971 768 q 961 482 971 535 q 853 224 935 333 q 647 58 772 115 q 364 0 521 0 l 63 0 l 138 424 l 17 424 l 39 540 l 158 540 l 233 968 l 535 968 m 832 482 q 840 576 840 532 q 758 790 840 714 q 517 865 676 865 l 343 865 l 286 540 l 551 540 l 531 424 l 265 424 l 207 97 l 382 97 q 684 199 568 97 q 832 482 800 301 z "},"đ":{"ha":938,"x_min":47,"x_max":1008,"o":"m 994 840 l 910 840 l 761 0 l 633 0 l 660 143 q 529 31 611 75 q 349 -12 447 -12 q 192 26 260 -12 q 85 135 124 64 q 47 299 47 206 q 56 383 47 340 q 140 588 76 500 q 294 725 203 676 q 489 774 386 774 q 646 733 576 774 q 744 625 715 692 l 782 840 l 626 840 l 640 915 l 796 915 l 815 1028 l 943 1028 l 924 915 l 1008 915 l 994 840 m 701 382 q 707 444 707 411 q 647 605 707 546 q 493 664 586 664 q 358 631 422 664 q 247 533 293 597 q 186 383 201 469 q 181 319 181 354 q 240 158 181 217 q 393 99 300 99 q 528 133 464 99 q 640 231 593 167 q 701 382 686 296 z "},"Ē":{"ha":713,"x_min":36,"x_max":738,"o":"m 317 869 l 258 538 l 610 538 l 593 440 l 242 440 l 181 100 l 575 100 l 557 0 l 36 0 l 208 969 l 728 969 l 710 869 l 317 869 m 738 1186 l 721 1092 l 232 1092 l 249 1186 l 738 1186 z "},"ē":{"ha":861,"x_min":47,"x_max":811,"o":"m 501 774 q 667 737 597 774 q 774 634 738 700 q 811 483 811 568 q 804 413 811 454 q 786 338 799 376 l 178 338 q 175 297 175 310 q 233 148 175 201 q 383 94 290 94 q 527 133 465 94 q 621 235 589 171 l 757 235 q 603 56 707 125 q 364 -12 500 -12 q 134 70 221 -12 q 47 296 47 153 q 56 382 47 336 q 140 589 76 500 q 298 726 204 678 q 501 774 392 774 m 676 429 q 681 481 681 457 q 624 618 681 569 q 478 667 568 667 q 301 603 381 667 q 194 429 222 540 l 676 429 m 779 985 l 763 890 l 274 890 l 290 985 l 779 985 z "},"Ĕ":{"ha":713,"x_min":36,"x_max":728,"o":"m 317 869 l 258 538 l 610 538 l 593 440 l 242 440 l 181 100 l 575 100 l 557 0 l 36 0 l 208 969 l 728 969 l 710 869 l 317 869 m 699 1229 q 624 1099 685 1150 q 469 1049 563 1049 q 344 1089 388 1049 q 300 1196 300 1129 q 303 1231 300 1206 l 307 1254 l 382 1254 q 379 1228 379 1235 q 486 1149 379 1149 q 584 1176 550 1149 q 628 1254 618 1203 l 703 1254 l 699 1229 z "},"ĕ":{"ha":861,"x_min":47,"x_max":811,"o":"m 501 774 q 667 737 597 774 q 774 634 738 700 q 811 483 811 568 q 804 413 811 454 q 786 338 799 376 l 178 338 q 175 297 175 310 q 233 148 175 201 q 383 94 290 94 q 527 133 465 94 q 621 235 589 171 l 757 235 q 603 56 707 125 q 364 -12 500 -12 q 134 70 221 -12 q 47 296 47 153 q 56 382 47 336 q 140 589 76 500 q 298 726 204 678 q 501 774 392 774 m 676 429 q 681 481 681 457 q 624 618 681 569 q 478 667 568 667 q 301 603 381 667 q 194 429 222 540 l 676 429 m 740 1028 q 665 898 726 949 q 511 847 604 847 q 385 888 429 847 q 342 994 342 928 q 344 1029 342 1004 l 349 1053 l 424 1053 q 421 1026 421 1033 q 528 947 421 947 q 626 974 592 947 q 669 1053 660 1001 l 744 1053 l 740 1028 z "},"Ė":{"ha":713,"x_min":36,"x_max":728,"o":"m 317 869 l 258 538 l 610 538 l 593 440 l 242 440 l 181 100 l 575 100 l 557 0 l 36 0 l 208 969 l 728 969 l 710 869 l 317 869 m 471 1057 q 426 1074 443 1057 q 408 1117 408 1090 q 435 1176 408 1150 q 496 1203 463 1203 q 540 1185 522 1203 q 557 1143 557 1168 q 531 1083 557 1108 q 471 1057 504 1057 z "},"ė":{"ha":861,"x_min":47,"x_max":811,"o":"m 501 774 q 667 737 597 774 q 774 634 738 700 q 811 483 811 568 q 804 413 811 454 q 786 338 799 376 l 178 338 q 175 297 175 310 q 233 148 175 201 q 383 94 290 94 q 527 133 465 94 q 621 235 589 171 l 757 235 q 603 56 707 125 q 364 -12 500 -12 q 134 70 221 -12 q 47 296 47 153 q 56 382 47 336 q 140 589 76 500 q 298 726 204 678 q 501 774 392 774 m 676 429 q 681 481 681 457 q 624 618 681 569 q 478 667 568 667 q 301 603 381 667 q 194 429 222 540 l 676 429 m 513 857 q 467 874 485 857 q 450 917 450 890 q 477 976 450 950 q 538 1003 504 1003 q 581 985 564 1003 q 599 943 599 968 q 572 883 599 908 q 513 857 546 857 z "},"Ę":{"ha":713,"x_min":36,"x_max":728,"o":"m 317 869 l 258 538 l 610 538 l 593 440 l 242 440 l 181 100 l 575 100 l 557 0 l 475 -37 q 374 -135 385 -78 q 372 -147 372 -139 q 391 -187 372 -174 q 443 -201 410 -201 q 538 -183 483 -201 l 524 -267 q 413 -286 463 -286 q 308 -259 350 -286 q 265 -175 265 -232 q 294 -82 265 -125 q 389 0 324 -39 l 36 0 l 208 969 l 728 969 l 710 869 l 317 869 z "},"ę":{"ha":861,"x_min":47,"x_max":811,"o":"m 501 774 q 667 737 597 774 q 774 634 738 700 q 811 483 811 568 q 804 413 811 454 q 786 338 799 376 l 178 338 q 175 297 175 310 q 233 148 175 201 q 383 94 290 94 q 527 133 465 94 q 621 235 589 171 l 757 235 q 646 88 718 150 q 478 1 574 26 l 435 -18 q 333 -115 344 -58 q 332 -128 332 -119 q 351 -168 332 -154 q 403 -182 369 -182 q 497 -164 443 -182 l 483 -247 q 372 -267 422 -267 q 267 -240 310 -267 q 225 -156 225 -212 q 307 -8 225 -71 q 117 88 188 7 q 47 296 47 168 q 56 382 47 336 q 140 589 76 500 q 298 726 204 678 q 501 774 392 774 m 676 429 q 681 481 681 457 q 624 618 681 569 q 478 667 568 667 q 301 603 381 667 q 194 429 222 540 l 676 429 z "},"Ě":{"ha":713,"x_min":36,"x_max":728,"o":"m 317 869 l 258 538 l 610 538 l 593 440 l 242 440 l 181 100 l 575 100 l 557 0 l 36 0 l 208 969 l 728 969 l 710 869 l 317 869 m 679 1151 l 467 1036 l 294 1151 l 313 1251 l 485 1133 l 697 1251 l 679 1151 z "},"ě":{"ha":861,"x_min":47,"x_max":811,"o":"m 501 774 q 667 737 597 774 q 774 634 738 700 q 811 483 811 568 q 804 413 811 454 q 786 338 799 376 l 178 338 q 175 297 175 310 q 233 148 175 201 q 383 94 290 94 q 527 133 465 94 q 621 235 589 171 l 757 235 q 603 56 707 125 q 364 -12 500 -12 q 134 70 221 -12 q 47 296 47 153 q 56 382 47 336 q 140 589 76 500 q 298 726 204 678 q 501 774 392 774 m 676 429 q 681 481 681 457 q 624 618 681 569 q 478 667 568 667 q 301 603 381 667 q 194 429 222 540 l 676 429 m 721 950 l 508 835 l 336 950 l 354 1050 l 526 932 l 739 1050 l 721 950 z "},"Ğ":{"ha":1081,"x_min":67,"x_max":1043,"o":"m 75 485 q 184 740 100 626 q 390 916 268 853 q 647 979 513 979 q 908 903 803 979 q 1043 688 1013 826 l 892 688 q 798 819 867 772 q 628 865 729 865 q 437 819 526 865 q 286 685 347 772 q 204 485 225 599 q 197 401 197 449 q 278 185 197 265 q 493 106 358 106 q 743 191 636 106 q 890 422 850 276 l 504 422 l 522 522 l 1043 522 l 1025 425 q 912 206 993 306 q 716 49 831 107 q 474 -8 601 -8 q 262 41 354 -8 q 118 181 169 90 q 67 388 67 271 q 75 485 67 435 m 889 1229 q 814 1099 875 1150 q 660 1049 753 1049 q 534 1089 578 1049 q 490 1196 490 1129 q 493 1231 490 1206 l 497 1254 l 572 1254 q 569 1228 569 1235 q 676 1149 569 1149 q 774 1176 740 1149 q 818 1254 808 1203 l 893 1254 l 889 1229 z "},"ğ":{"ha":939,"x_min":7,"x_max":896,"o":"m 488 774 q 653 731 586 774 q 743 622 719 688 l 768 761 l 896 761 l 758 -17 q 681 -202 740 -121 q 532 -329 622 -283 q 332 -375 442 -375 q 94 -303 182 -375 q 10 -111 7 -232 l 136 -111 q 202 -223 144 -181 q 351 -265 260 -265 q 533 -200 456 -265 q 632 -17 611 -135 l 660 143 q 528 32 610 76 q 349 -12 447 -12 q 192 26 260 -12 q 85 135 124 64 q 47 299 47 206 q 56 383 47 340 q 140 588 76 500 q 294 725 203 676 q 488 774 385 774 m 701 382 q 707 444 707 411 q 647 605 707 546 q 493 664 586 664 q 358 631 422 664 q 247 533 293 597 q 186 383 201 469 q 181 319 181 354 q 240 158 181 217 q 393 99 300 99 q 528 133 464 99 q 640 231 593 167 q 701 382 686 296 m 779 1028 q 704 898 765 949 q 550 847 643 847 q 424 888 468 847 q 381 994 381 928 q 383 1029 381 1004 l 388 1053 l 463 1053 q 460 1026 460 1033 q 567 947 460 947 q 665 974 631 947 q 708 1053 699 1001 l 783 1053 l 779 1028 z "},"Ġ":{"ha":1081,"x_min":67,"x_max":1043,"o":"m 75 485 q 184 740 100 626 q 390 916 268 853 q 647 979 513 979 q 908 903 803 979 q 1043 688 1013 826 l 892 688 q 798 819 867 772 q 628 865 729 865 q 437 819 526 865 q 286 685 347 772 q 204 485 225 599 q 197 401 197 449 q 278 185 197 265 q 493 106 358 106 q 743 191 636 106 q 890 422 850 276 l 504 422 l 522 522 l 1043 522 l 1025 425 q 912 206 993 306 q 716 49 831 107 q 474 -8 601 -8 q 262 41 354 -8 q 118 181 169 90 q 67 388 67 271 q 75 485 67 435 m 661 1057 q 616 1074 633 1057 q 599 1117 599 1090 q 626 1176 599 1150 q 686 1203 653 1203 q 730 1185 713 1203 q 747 1143 747 1168 q 721 1083 747 1108 q 661 1057 694 1057 z "},"ġ":{"ha":939,"x_min":7,"x_max":896,"o":"m 488 774 q 653 731 586 774 q 743 622 719 688 l 768 761 l 896 761 l 758 -17 q 681 -202 740 -121 q 532 -329 622 -283 q 332 -375 442 -375 q 94 -303 182 -375 q 10 -111 7 -232 l 136 -111 q 202 -223 144 -181 q 351 -265 260 -265 q 533 -200 456 -265 q 632 -17 611 -135 l 660 143 q 528 32 610 76 q 349 -12 447 -12 q 192 26 260 -12 q 85 135 124 64 q 47 299 47 206 q 56 383 47 340 q 140 588 76 500 q 294 725 203 676 q 488 774 385 774 m 701 382 q 707 444 707 411 q 647 605 707 546 q 493 664 586 664 q 358 631 422 664 q 247 533 293 597 q 186 383 201 469 q 181 319 181 354 q 240 158 181 217 q 393 99 300 99 q 528 133 464 99 q 640 231 593 167 q 701 382 686 296 m 551 857 q 506 874 524 857 q 489 917 489 890 q 516 976 489 950 q 576 1003 543 1003 q 620 985 603 1003 q 638 943 638 968 q 611 883 638 908 q 551 857 585 857 z "},"Ģ":{"ha":1081,"x_min":67,"x_max":1043,"o":"m 75 485 q 184 740 100 626 q 390 916 268 853 q 647 979 513 979 q 908 903 803 979 q 1043 688 1013 826 l 892 688 q 798 819 867 772 q 628 865 729 865 q 437 819 526 865 q 286 685 347 772 q 204 485 225 599 q 197 401 197 449 q 278 185 197 265 q 493 106 358 106 q 743 191 636 106 q 890 422 850 276 l 504 422 l 522 522 l 1043 522 l 1025 425 q 912 206 993 306 q 716 49 831 107 q 474 -8 601 -8 q 262 41 354 -8 q 118 181 169 90 q 67 388 67 271 q 75 485 67 435 m 519 -68 q 521 -108 521 -82 q 515 -183 521 -151 q 346 -343 485 -343 l 357 -285 q 436 -207 421 -285 l 440 -182 l 374 -182 l 394 -68 l 519 -68 z "},"ģ":{"ha":939,"x_min":7,"x_max":896,"o":"m 481 828 q 479 864 479 840 q 488 956 479 914 q 656 1113 515 1113 l 644 1054 q 591 1035 610 1054 q 565 979 572 1017 l 561 947 l 628 947 l 607 828 l 481 828 m 488 774 q 653 731 586 774 q 743 622 719 688 l 768 761 l 896 761 l 758 -17 q 681 -202 740 -121 q 532 -329 622 -283 q 332 -375 442 -375 q 94 -303 182 -375 q 10 -111 7 -232 l 136 -111 q 202 -223 144 -181 q 351 -265 260 -265 q 533 -200 456 -265 q 632 -17 611 -135 l 660 143 q 528 32 610 76 q 349 -12 447 -12 q 192 26 260 -12 q 85 135 124 64 q 47 299 47 206 q 56 383 47 340 q 140 588 76 500 q 294 725 203 676 q 488 774 385 774 m 701 382 q 707 444 707 411 q 647 605 707 546 q 493 664 586 664 q 358 631 422 664 q 247 533 293 597 q 186 383 201 469 q 181 319 181 354 q 240 158 181 217 q 393 99 300 99 q 528 133 464 99 q 640 231 593 167 q 701 382 686 296 z "},"Ĩ":{"ha":342,"x_min":36,"x_max":538,"o":"m 335 968 l 163 0 l 36 0 l 208 968 l 335 968 m 82 1044 q 147 1153 103 1115 q 246 1190 190 1190 q 289 1182 272 1190 q 329 1156 306 1174 q 360 1134 346 1142 q 393 1126 375 1126 q 435 1142 417 1126 q 464 1186 454 1157 l 538 1186 q 472 1079 517 1117 q 372 1042 428 1042 q 327 1051 346 1042 q 286 1078 308 1060 q 255 1099 267 1092 q 225 1106 243 1106 q 183 1090 201 1106 q 156 1044 165 1075 l 82 1044 z "},"ĩ":{"ha":342,"x_min":36,"x_max":501,"o":"m 297 761 l 163 0 l 36 0 l 171 761 l 297 761 m 46 843 q 110 951 67 914 q 210 989 154 989 q 253 981 236 989 q 293 954 269 972 q 324 933 310 940 q 357 925 339 925 q 399 940 381 925 q 428 985 418 956 l 501 985 q 436 878 481 915 q 336 840 392 840 q 291 849 310 840 q 250 876 272 858 q 219 897 231 890 q 189 904 207 904 q 147 889 165 904 q 119 843 129 874 l 46 843 z "},"Ī":{"ha":342,"x_min":36,"x_max":554,"o":"m 335 968 l 163 0 l 36 0 l 208 968 l 335 968 m 554 1186 l 538 1092 l 49 1092 l 65 1186 l 554 1186 z "},"ī":{"ha":342,"x_min":13,"x_max":518,"o":"m 297 761 l 163 0 l 36 0 l 171 761 l 297 761 m 518 985 l 501 890 l 13 890 l 29 985 l 518 985 z "},"Ĭ":{"ha":342,"x_min":36,"x_max":519,"o":"m 335 968 l 163 0 l 36 0 l 208 968 l 335 968 m 515 1229 q 440 1099 501 1150 q 286 1049 379 1049 q 160 1089 204 1049 q 117 1196 117 1129 q 119 1231 117 1206 l 124 1254 l 199 1254 q 196 1228 196 1235 q 303 1149 196 1149 q 401 1176 367 1149 q 444 1254 435 1203 l 519 1254 l 515 1229 z "},"ĭ":{"ha":342,"x_min":36,"x_max":483,"o":"m 297 761 l 163 0 l 36 0 l 171 761 l 297 761 m 479 1028 q 404 898 465 949 q 250 847 343 847 q 124 888 168 847 q 81 994 81 928 q 83 1029 81 1004 l 88 1053 l 163 1053 q 160 1026 160 1033 q 267 947 160 947 q 365 974 331 947 q 408 1053 399 1001 l 483 1053 l 479 1028 z "},"Į":{"ha":342,"x_min":-128,"x_max":335,"o":"m 164 1 l 163 1 l 163 0 l 161 0 l 82 -36 q -19 -133 -8 -76 q -21 -146 -21 -137 q -2 -186 -21 -172 q 50 -200 17 -200 q 144 -182 90 -200 l 131 -265 q 19 -285 69 -285 q -85 -258 -43 -285 q -128 -174 -128 -231 q -89 -68 -128 -117 q 40 25 -50 -19 l 208 968 l 335 968 l 163 4 l 164 1 z "},"į":{"ha":342,"x_min":-128,"x_max":358,"o":"m 288 1057 q 339 1038 319 1057 q 358 986 358 1018 q 328 915 358 944 q 257 885 297 885 q 206 905 226 885 q 186 956 186 925 q 217 1027 186 997 q 288 1057 247 1057 m 297 761 l 163 4 l 164 1 l 163 1 l 163 0 l 161 0 l 82 -36 q -19 -133 -8 -76 q -21 -146 -21 -137 q -2 -186 -21 -172 q 50 -200 17 -200 q 144 -182 90 -200 l 131 -265 q 19 -285 69 -285 q -85 -258 -43 -285 q -128 -174 -128 -231 q -89 -68 -128 -117 q 40 25 -50 -19 l 171 761 l 297 761 z "},"İ":{"ha":342,"x_min":36,"x_max":374,"o":"m 335 968 l 163 0 l 36 0 l 208 968 l 335 968 m 288 1057 q 242 1074 260 1057 q 225 1117 225 1090 q 252 1176 225 1150 q 313 1203 279 1203 q 356 1185 339 1203 q 374 1143 374 1168 q 347 1083 374 1108 q 288 1057 321 1057 z "},"ı":{"ha":342,"x_min":36,"x_max":297,"o":"m 297 761 l 163 0 l 36 0 l 171 761 l 297 761 z "},"Ķ":{"ha":832,"x_min":36,"x_max":893,"o":"m 369 483 l 726 0 l 561 0 l 242 442 l 163 0 l 36 0 l 208 968 l 335 968 l 256 521 l 735 968 l 893 968 l 369 483 m 392 -68 q 393 -108 393 -82 q 388 -183 393 -151 q 219 -343 357 -343 l 231 -285 q 308 -207 293 -285 l 313 -182 l 246 -182 l 265 -68 l 392 -68 z "},"ķ":{"ha":715,"x_min":36,"x_max":765,"o":"m 342 381 l 633 0 l 461 0 l 222 335 l 163 0 l 36 0 l 218 1028 l 344 1028 l 238 425 l 590 761 l 765 761 l 342 381 m 338 -68 q 339 -101 339 -79 q 332 -183 339 -142 q 164 -343 301 -343 l 175 -285 q 254 -207 239 -285 l 257 -182 l 192 -182 l 211 -68 l 338 -68 z "},"Ĺ":{"ha":600,"x_min":36,"x_max":594,"o":"m 181 97 l 519 97 l 501 0 l 36 0 l 208 968 l 335 968 l 181 97 m 575 1178 l 250 1019 l 267 1114 l 594 1288 l 575 1178 z "},"ĺ":{"ha":342,"x_min":36,"x_max":476,"o":"m 344 1028 l 163 0 l 36 0 l 218 1028 l 344 1028 m 457 1243 l 132 1085 l 149 1179 l 476 1353 l 457 1243 z "},"Ļ":{"ha":600,"x_min":36,"x_max":519,"o":"m 181 97 l 519 97 l 501 0 l 36 0 l 208 968 l 335 968 l 181 97 m 315 -68 q 317 -108 317 -82 q 311 -183 317 -151 q 142 -343 283 -343 l 153 -285 q 232 -207 219 -285 l 236 -182 l 169 -182 l 190 -68 l 315 -68 z "},"ļ":{"ha":342,"x_min":-26,"x_max":344,"o":"m 344 1028 l 163 0 l 36 0 l 218 1028 l 344 1028 m 147 -68 q 149 -108 149 -82 q 143 -183 149 -151 q -26 -343 115 -343 l -15 -285 q 64 -207 51 -285 l 68 -182 l 1 -182 l 22 -68 l 147 -68 z "},"Ľ":{"ha":619,"x_min":36,"x_max":619,"o":"m 181 97 l 519 97 l 501 0 l 36 0 l 208 968 l 335 968 l 181 97 m 618 968 q 619 932 619 956 q 611 842 619 882 q 443 683 585 683 l 454 743 q 532 818 522 743 l 539 850 l 469 850 l 492 968 l 618 968 z "},"ľ":{"ha":513,"x_min":36,"x_max":576,"o":"m 344 1028 l 163 0 l 36 0 l 218 1028 l 344 1028 m 574 1028 q 567 900 576 969 q 399 743 540 743 l 408 803 q 462 821 443 803 q 488 876 481 839 l 494 908 l 425 908 l 446 1028 l 574 1028 z "},"Ŀ":{"ha":600,"x_min":36,"x_max":563,"o":"m 208 968 l 335 968 l 181 97 l 519 97 l 501 0 l 36 0 l 208 968 m 476 425 q 431 442 449 425 q 414 485 414 458 q 441 545 414 519 q 503 571 468 571 q 546 553 529 571 q 563 511 563 536 q 536 451 563 476 q 476 425 510 425 z "},"ŀ":{"ha":414,"x_min":36,"x_max":475,"o":"m 218 1028 l 344 1028 l 163 0 l 36 0 l 218 1028 m 386 439 q 343 456 360 439 q 326 499 326 472 q 352 559 326 533 q 413 585 378 585 q 457 567 439 585 q 475 524 475 550 q 447 465 475 490 q 386 439 419 439 z "},"Ł":{"ha":607,"x_min":10,"x_max":538,"o":"m 538 97 l 519 0 l 56 0 l 131 422 l 10 382 l 31 500 l 151 540 l 226 968 l 354 968 l 286 588 l 447 642 l 426 522 l 265 468 l 200 97 l 538 97 z "},"ł":{"ha":349,"x_min":15,"x_max":382,"o":"m 361 542 l 256 503 l 167 0 l 40 0 l 121 454 l 15 415 l 36 533 l 142 571 l 222 1028 l 349 1028 l 276 621 l 382 658 l 361 542 z "},"Ń":{"ha":976,"x_min":36,"x_max":969,"o":"m 797 0 l 671 0 l 300 771 l 163 0 l 36 0 l 208 969 l 335 969 l 707 200 l 843 969 l 969 969 l 797 0 m 763 1178 l 438 1019 l 454 1114 l 782 1288 l 763 1178 z "},"ń":{"ha":889,"x_min":36,"x_max":804,"o":"m 544 775 q 733 712 663 775 q 804 528 804 649 q 797 449 804 483 l 718 0 l 593 0 l 669 431 q 675 492 675 460 q 628 621 675 576 q 499 665 582 665 q 328 603 399 665 q 238 421 258 540 l 238 424 l 163 0 l 36 0 l 171 761 l 297 761 l 278 651 q 396 743 325 711 q 544 775 467 775 m 685 976 l 360 818 l 376 913 l 704 1086 l 685 976 z "},"Ņ":{"ha":976,"x_min":36,"x_max":969,"o":"m 797 0 l 671 0 l 300 771 l 163 0 l 36 0 l 208 969 l 335 969 l 707 200 l 843 969 l 969 969 l 797 0 m 465 -68 q 467 -108 467 -82 q 461 -183 467 -151 q 293 -343 431 -343 l 303 -285 q 382 -207 367 -285 l 385 -182 l 319 -182 l 339 -68 l 465 -68 z "},"ņ":{"ha":889,"x_min":36,"x_max":804,"o":"m 544 775 q 733 712 663 775 q 804 528 804 649 q 797 449 804 483 l 718 0 l 593 0 l 669 431 q 675 492 675 460 q 628 621 675 576 q 499 665 582 665 q 328 603 399 665 q 238 421 258 540 l 238 424 l 163 0 l 36 0 l 171 761 l 297 761 l 278 651 q 396 743 325 711 q 544 775 467 775 m 424 -68 q 425 -108 425 -82 q 419 -183 425 -151 q 363 -304 404 -265 q 251 -343 321 -343 l 263 -285 q 340 -207 325 -285 l 344 -182 l 278 -182 l 299 -68 l 424 -68 z "},"Ň":{"ha":976,"x_min":36,"x_max":969,"o":"m 797 0 l 671 0 l 300 771 l 163 0 l 36 0 l 208 969 l 335 969 l 707 200 l 843 969 l 969 969 l 797 0 m 814 1151 l 601 1036 l 429 1151 l 447 1251 l 619 1133 l 832 1251 l 814 1151 z "},"ň":{"ha":889,"x_min":36,"x_max":804,"o":"m 544 775 q 733 712 663 775 q 804 528 804 649 q 797 449 804 483 l 718 0 l 593 0 l 669 431 q 675 492 675 460 q 628 621 675 576 q 499 665 582 665 q 328 603 399 665 q 238 421 258 540 l 238 424 l 163 0 l 36 0 l 171 761 l 297 761 l 278 651 q 396 743 325 711 q 544 775 467 775 m 736 950 l 524 835 l 351 950 l 369 1050 l 542 932 l 754 1050 l 736 950 z "},"Ō":{"ha":1092,"x_min":72,"x_max":1050,"o":"m 478 -10 q 265 41 357 -10 q 123 183 174 92 q 72 393 72 275 q 147 691 72 557 q 351 902 221 825 q 643 979 482 979 q 858 928 765 979 q 1000 787 950 878 q 1050 578 1050 696 q 976 278 1050 413 q 771 67 901 144 q 478 -10 640 -10 m 496 104 q 715 167 618 104 q 865 338 811 231 q 919 569 919 444 q 840 786 919 707 q 625 865 761 865 q 406 802 503 865 q 256 633 310 739 q 203 401 203 526 q 281 184 203 264 q 496 104 360 104 m 931 1194 l 914 1100 l 425 1100 l 442 1194 l 931 1194 z "},"ō":{"ha":889,"x_min":49,"x_max":833,"o":"m 371 -12 q 202 27 275 -12 q 89 138 129 67 q 49 304 49 210 q 108 541 49 433 q 273 711 168 649 q 507 774 378 774 q 677 734 603 774 q 792 623 751 694 q 833 456 833 551 q 772 219 833 326 q 606 50 711 113 q 371 -12 500 -12 m 386 94 q 549 144 476 94 q 662 274 621 193 q 703 449 703 356 q 642 610 703 554 q 489 667 581 667 q 328 617 399 667 q 218 486 257 568 q 179 310 179 404 q 238 151 179 207 q 386 94 296 94 m 792 997 l 775 903 l 286 903 l 303 997 l 792 997 z "},"Ŏ":{"ha":1092,"x_min":72,"x_max":1050,"o":"m 478 -10 q 265 41 357 -10 q 123 183 174 92 q 72 393 72 275 q 147 691 72 557 q 351 902 221 825 q 643 979 482 979 q 858 928 765 979 q 1000 787 950 878 q 1050 578 1050 696 q 976 278 1050 413 q 771 67 901 144 q 478 -10 640 -10 m 496 104 q 715 167 618 104 q 865 338 811 231 q 919 569 919 444 q 840 786 919 707 q 625 865 761 865 q 406 802 503 865 q 256 633 310 739 q 203 401 203 526 q 281 184 203 264 q 496 104 360 104 m 892 1238 q 817 1108 878 1158 q 663 1057 756 1057 q 537 1097 581 1057 q 493 1204 493 1138 q 496 1239 493 1214 l 500 1263 l 575 1263 q 572 1236 572 1243 q 679 1157 572 1157 q 777 1184 743 1157 q 821 1263 811 1211 l 896 1263 l 892 1238 z "},"ŏ":{"ha":889,"x_min":49,"x_max":833,"o":"m 371 -12 q 202 27 275 -12 q 89 138 129 67 q 49 304 49 210 q 108 541 49 433 q 273 711 168 649 q 507 774 378 774 q 677 734 603 774 q 792 623 751 694 q 833 456 833 551 q 772 219 833 326 q 606 50 711 113 q 371 -12 500 -12 m 386 94 q 549 144 476 94 q 662 274 621 193 q 703 449 703 356 q 642 610 703 554 q 489 667 581 667 q 328 617 399 667 q 218 486 257 568 q 179 310 179 404 q 238 151 179 207 q 386 94 296 94 m 753 1040 q 678 910 739 961 q 524 860 617 860 q 398 900 442 860 q 354 1007 354 940 q 357 1042 354 1017 l 361 1065 l 436 1065 q 433 1039 433 1046 q 540 960 433 960 q 638 987 604 960 q 682 1065 672 1014 l 757 1065 l 753 1040 z "},"Ő":{"ha":1092,"x_min":72,"x_max":1050,"o":"m 478 -10 q 265 41 357 -10 q 123 183 174 92 q 72 393 72 275 q 147 691 72 557 q 351 902 221 825 q 643 979 482 979 q 858 928 765 979 q 1000 787 950 878 q 1050 578 1050 696 q 976 278 1050 413 q 771 67 901 144 q 478 -10 640 -10 m 496 104 q 715 167 618 104 q 865 338 811 231 q 919 569 919 444 q 840 786 919 707 q 625 865 761 865 q 406 802 503 865 q 256 633 310 739 q 203 401 203 526 q 281 184 203 264 q 496 104 360 104 m 585 1044 l 500 1044 l 631 1258 l 743 1258 l 585 1044 m 794 1044 l 710 1044 l 858 1258 l 968 1258 l 794 1044 z "},"ő":{"ha":889,"x_min":49,"x_max":833,"o":"m 371 -12 q 202 27 275 -12 q 89 138 129 67 q 49 304 49 210 q 108 541 49 433 q 273 711 168 649 q 507 774 378 774 q 677 734 603 774 q 792 623 751 694 q 833 456 833 551 q 772 219 833 326 q 606 50 711 113 q 371 -12 500 -12 m 386 94 q 549 144 476 94 q 662 274 621 193 q 703 449 703 356 q 642 610 703 554 q 489 667 581 667 q 328 617 399 667 q 218 486 257 568 q 179 310 179 404 q 238 151 179 207 q 386 94 296 94 m 446 847 l 361 847 l 492 1061 l 604 1061 l 446 847 m 656 847 l 571 847 l 719 1061 l 829 1061 l 656 847 z "},"Œ":{"ha":1511,"x_min":69,"x_max":1528,"o":"m 1057 538 l 1410 538 l 1392 439 l 1040 439 l 981 100 l 1374 100 l 1356 0 l 836 0 l 871 199 q 695 44 800 99 q 468 -10 590 -10 q 263 40 353 -10 q 121 181 172 90 q 69 388 69 271 q 78 485 69 435 q 187 740 103 628 q 391 916 271 853 q 642 979 511 979 q 851 926 764 979 q 972 775 938 872 l 1007 968 l 1528 968 l 1508 869 l 1115 869 l 1057 538 m 208 485 q 200 400 200 442 q 281 184 200 264 q 497 104 363 104 q 688 151 599 104 q 840 285 778 199 q 922 485 901 371 q 929 568 929 521 q 848 785 929 706 q 632 865 767 865 q 441 819 531 865 q 290 685 351 772 q 208 485 229 599 z "},"œ":{"ha":1500,"x_min":47,"x_max":1450,"o":"m 1142 774 q 1307 737 1238 774 q 1413 635 1376 700 q 1450 485 1450 569 q 1443 413 1450 454 q 1424 338 1439 386 l 818 338 q 815 294 815 307 q 871 147 815 200 q 1017 94 926 94 q 1161 133 1100 94 q 1256 235 1222 171 l 1392 235 q 1238 56 1342 125 q 997 -12 1135 -12 q 822 37 894 -12 q 721 175 749 86 q 565 37 658 86 q 367 -12 471 -12 q 200 25 272 -12 q 88 133 128 63 q 47 297 47 203 q 56 382 47 339 q 143 589 76 500 q 306 726 210 678 q 511 774 403 774 q 689 725 614 774 q 794 589 764 676 q 945 725 854 676 q 1142 774 1036 774 m 696 382 q 701 449 701 414 q 641 610 701 554 q 489 667 581 667 q 358 635 421 667 q 249 538 294 603 q 186 382 203 474 q 179 310 179 338 q 238 150 179 206 q 386 94 296 94 q 519 127 454 94 q 631 224 583 160 q 696 382 679 289 m 1314 425 q 1319 479 1319 451 q 1263 617 1319 567 q 1117 667 1206 667 q 940 603 1018 667 q 833 425 861 539 l 1314 425 z "},"Ŕ":{"ha":844,"x_min":36,"x_max":811,"o":"m 519 968 q 738 906 664 968 q 811 739 811 843 q 806 683 811 722 q 717 507 788 583 q 526 406 646 431 l 697 0 l 546 0 l 385 396 l 233 396 l 163 0 l 36 0 l 208 968 l 519 968 m 675 683 q 679 729 679 708 q 635 832 679 796 q 501 868 592 868 l 317 868 l 251 497 l 438 497 q 600 548 540 497 q 675 683 660 599 m 706 1178 l 381 1019 l 397 1114 l 725 1288 l 706 1178 z "},"ŕ":{"ha":518,"x_min":36,"x_max":578,"o":"m 272 617 q 388 733 318 692 q 546 775 457 775 l 522 644 l 489 644 q 324 592 390 644 q 236 414 258 539 l 163 0 l 36 0 l 171 761 l 297 761 l 272 617 m 558 976 l 233 818 l 250 913 l 578 1086 l 558 976 z "},"Ŗ":{"ha":844,"x_min":36,"x_max":811,"o":"m 519 968 q 738 906 664 968 q 811 739 811 843 q 806 683 811 722 q 717 507 788 583 q 526 406 646 431 l 697 0 l 546 0 l 385 396 l 233 396 l 163 0 l 36 0 l 208 968 l 519 968 m 675 683 q 679 729 679 708 q 635 832 679 796 q 501 868 592 868 l 317 868 l 251 497 l 438 497 q 600 548 540 497 q 675 683 660 599 m 399 -68 q 400 -101 400 -79 q 393 -183 400 -142 q 336 -304 378 -265 q 225 -343 294 -343 l 236 -285 q 314 -207 299 -285 l 318 -182 l 253 -182 l 272 -68 l 399 -68 z "},"ŗ":{"ha":518,"x_min":-26,"x_max":546,"o":"m 272 617 q 388 733 318 692 q 546 775 457 775 l 522 644 l 489 644 q 324 592 390 644 q 236 414 258 539 l 163 0 l 36 0 l 171 761 l 297 761 l 272 617 m 146 -68 q 147 -108 147 -82 q 142 -183 147 -151 q -26 -343 114 -343 l -15 -285 q 64 -207 49 -285 l 67 -182 l 0 -182 l 21 -68 l 146 -68 z "},"Ř":{"ha":844,"x_min":36,"x_max":811,"o":"m 519 968 q 738 906 664 968 q 811 739 811 843 q 806 683 811 722 q 717 507 788 583 q 526 406 646 431 l 697 0 l 546 0 l 385 396 l 233 396 l 163 0 l 36 0 l 208 968 l 519 968 m 675 683 q 679 729 679 708 q 635 832 679 796 q 501 868 592 868 l 317 868 l 251 497 l 438 497 q 600 548 540 497 q 675 683 660 599 m 757 1151 l 544 1036 l 372 1151 l 390 1251 l 563 1133 l 775 1251 l 757 1151 z "},"ř":{"ha":518,"x_min":36,"x_max":628,"o":"m 272 617 q 388 733 318 692 q 546 775 457 775 l 522 644 l 489 644 q 324 592 390 644 q 236 414 258 539 l 163 0 l 36 0 l 171 761 l 297 761 l 272 617 m 610 950 l 397 835 l 225 950 l 243 1050 l 415 932 l 628 1050 l 610 950 z "},"Ś":{"ha":808,"x_min":64,"x_max":761,"o":"m 367 -10 q 148 55 232 -10 q 64 228 64 119 q 65 258 64 249 l 190 258 q 232 142 186 190 q 372 93 278 93 q 522 136 467 93 q 578 257 578 179 q 551 337 578 304 q 484 391 524 369 q 376 439 444 413 q 242 501 293 472 q 157 581 192 531 q 125 707 122 631 q 168 850 125 788 q 287 947 211 913 q 460 981 363 981 q 623 949 554 981 q 726 860 692 917 q 757 732 761 803 l 625 732 q 609 801 628 768 q 551 856 590 835 q 453 876 511 876 q 308 834 363 876 q 253 718 253 792 q 278 644 253 675 q 343 591 304 613 q 450 540 382 569 q 584 476 532 506 q 672 396 636 446 q 708 271 708 346 q 667 127 708 190 q 547 27 625 64 q 367 -10 469 -10 m 682 1178 l 357 1019 l 374 1114 l 701 1288 l 682 1178 z "},"ś":{"ha":725,"x_min":32,"x_max":657,"o":"m 304 -12 q 108 44 185 -12 q 32 197 32 101 q 33 224 32 215 l 157 224 q 192 126 151 164 q 311 89 233 89 q 437 119 389 89 q 485 203 485 149 q 446 275 485 249 q 326 332 407 301 q 210 382 256 358 q 132 448 164 406 q 100 556 100 490 q 137 669 100 619 q 240 747 174 719 q 390 774 306 774 q 582 715 507 774 q 657 563 657 657 q 656 535 657 544 l 535 535 l 536 551 q 494 640 536 607 q 382 672 451 672 q 270 642 314 672 q 226 560 226 611 q 267 483 226 511 q 392 422 307 456 q 506 372 463 394 q 579 308 549 349 q 610 207 610 268 q 570 90 610 140 q 461 14 531 40 q 304 -12 392 -12 m 601 976 l 276 818 l 293 913 l 621 1086 l 601 976 z "},"Ş":{"ha":808,"x_min":64,"x_max":761,"o":"m 625 732 q 609 801 628 768 q 551 856 590 835 q 453 876 511 876 q 308 834 363 876 q 253 718 253 792 q 278 644 253 675 q 343 591 304 613 q 450 540 382 569 q 584 476 532 506 q 672 396 636 446 q 708 271 708 346 q 669 131 708 193 q 556 31 629 68 q 385 -10 483 -7 l 372 -81 q 487 -108 444 -79 q 529 -190 529 -136 q 472 -313 529 -265 q 332 -361 415 -361 l 172 -361 l 186 -279 l 321 -279 q 391 -265 367 -279 q 421 -218 415 -251 q 422 -204 422 -212 q 403 -169 422 -179 q 343 -158 383 -158 l 272 -158 l 300 -6 q 128 72 192 10 q 64 229 64 135 q 65 258 64 249 l 190 258 q 232 142 186 190 q 372 93 278 93 q 522 136 467 93 q 578 257 578 179 q 551 337 578 304 q 484 391 524 369 q 376 439 444 413 q 242 501 293 472 q 157 581 192 531 q 125 707 122 631 q 168 850 125 788 q 287 947 211 913 q 460 981 363 981 q 623 949 554 981 q 726 860 692 917 q 757 732 761 803 l 625 732 z "},"ş":{"ha":725,"x_min":32,"x_max":657,"o":"m 535 535 l 536 551 q 494 640 536 607 q 382 672 451 672 q 270 642 314 672 q 226 560 226 611 q 267 483 226 511 q 392 422 307 456 q 506 372 463 394 q 579 308 549 349 q 610 207 610 268 q 534 54 610 113 q 338 -11 458 -4 l 326 -81 q 441 -108 399 -79 q 483 -190 483 -136 q 426 -313 483 -265 q 286 -361 369 -361 l 126 -361 l 140 -279 l 275 -279 q 345 -265 321 -279 q 375 -218 369 -251 q 376 -204 376 -212 q 357 -169 376 -179 q 297 -158 338 -158 l 226 -158 l 253 -10 q 93 57 154 1 q 32 197 32 113 q 33 224 32 215 l 157 224 q 192 126 151 164 q 311 89 233 89 q 437 119 389 89 q 485 203 485 149 q 446 275 485 249 q 326 332 407 301 q 210 382 256 358 q 132 448 164 406 q 100 556 100 490 q 137 669 100 619 q 240 747 174 719 q 390 774 306 774 q 582 715 507 774 q 657 563 657 657 q 656 535 657 544 l 535 535 z "},"Š":{"ha":808,"x_min":64,"x_max":761,"o":"m 367 -10 q 148 55 232 -10 q 64 228 64 119 q 65 258 64 249 l 190 258 q 232 142 186 190 q 372 93 278 93 q 522 136 467 93 q 578 257 578 179 q 551 337 578 304 q 484 391 524 369 q 376 439 444 413 q 242 501 293 472 q 157 581 192 531 q 125 707 122 631 q 168 850 125 788 q 287 947 211 913 q 460 981 363 981 q 623 949 554 981 q 726 860 692 917 q 757 732 761 803 l 625 732 q 609 801 628 768 q 551 856 590 835 q 453 876 511 876 q 308 834 363 876 q 253 718 253 792 q 278 644 253 675 q 343 591 304 613 q 450 540 382 569 q 584 476 532 506 q 672 396 636 446 q 708 271 708 346 q 667 127 708 190 q 547 27 625 64 q 367 -10 469 -10 m 733 1151 l 521 1036 l 349 1151 l 367 1251 l 539 1133 l 751 1251 l 733 1151 z "},"š":{"ha":725,"x_min":32,"x_max":671,"o":"m 304 -12 q 108 44 185 -12 q 32 197 32 101 q 33 224 32 215 l 157 224 q 192 126 151 164 q 311 89 233 89 q 437 119 389 89 q 485 203 485 149 q 446 275 485 249 q 326 332 407 301 q 210 382 256 358 q 132 448 164 406 q 100 556 100 490 q 137 669 100 619 q 240 747 174 719 q 390 774 306 774 q 582 715 507 774 q 657 563 657 657 q 656 535 657 544 l 535 535 l 536 551 q 494 640 536 607 q 382 672 451 672 q 270 642 314 672 q 226 560 226 611 q 267 483 226 511 q 392 422 307 456 q 506 372 463 394 q 579 308 549 349 q 610 207 610 268 q 570 90 610 140 q 461 14 531 40 q 304 -12 392 -12 m 653 950 l 440 835 l 268 950 l 286 1050 l 458 932 l 671 1050 l 653 950 z "},"Ţ":{"ha":751,"x_min":131,"x_max":803,"o":"m 803 968 l 785 869 l 521 869 l 368 0 l 350 0 l 336 -81 q 451 -108 408 -79 q 493 -190 493 -136 q 436 -313 493 -265 q 296 -361 379 -361 l 136 -361 l 150 -279 l 285 -279 q 355 -265 331 -279 q 385 -218 379 -251 q 386 -204 386 -212 q 367 -169 386 -179 q 307 -158 347 -158 l 236 -158 l 265 0 l 242 0 l 394 869 l 131 869 l 149 968 l 803 968 z "},"ţ":{"ha":506,"x_min":31,"x_max":524,"o":"m 228 208 q 224 172 224 188 q 245 122 224 138 q 315 107 267 107 l 408 107 l 389 0 l 275 0 q 246 1 254 0 l 231 -81 q 345 -108 303 -79 q 388 -190 388 -136 q 331 -313 388 -265 q 190 -361 274 -361 l 31 -361 l 46 -279 l 181 -279 q 250 -265 226 -279 q 279 -218 274 -251 q 281 -204 281 -212 q 261 -169 281 -179 q 201 -158 242 -158 l 132 -158 l 163 21 q 94 147 94 56 q 100 208 94 179 l 179 657 l 82 657 l 100 761 l 199 761 l 232 953 l 360 953 l 326 761 l 524 761 l 506 657 l 307 657 l 228 208 z "},"Ť":{"ha":751,"x_min":131,"x_max":803,"o":"m 803 968 l 785 869 l 521 869 l 368 0 l 242 0 l 394 869 l 131 869 l 149 968 l 803 968 m 701 1151 l 489 1036 l 317 1151 l 335 1251 l 507 1133 l 719 1251 l 701 1151 z "},"ť":{"ha":510,"x_min":82,"x_max":611,"o":"m 611 1029 q 606 956 611 989 q 551 853 592 885 q 439 821 510 821 l 450 879 q 503 891 485 879 q 525 929 521 903 l 529 954 l 461 954 l 483 1074 l 610 1074 l 611 1029 m 326 761 l 524 761 l 506 657 l 307 657 l 228 208 q 224 172 224 188 q 245 122 224 138 q 315 107 267 107 l 408 107 l 389 0 l 275 0 q 140 35 185 0 q 94 149 94 69 q 100 208 94 179 l 179 657 l 82 657 l 100 761 l 199 761 l 232 953 l 360 953 l 326 761 z "},"Ũ":{"ha":938,"x_min":89,"x_max":935,"o":"m 332 968 l 224 357 q 217 289 217 315 q 269 149 217 194 q 417 103 322 103 q 603 166 529 103 q 700 357 676 229 l 808 968 l 935 968 l 826 357 q 742 153 806 236 q 589 31 679 71 q 396 -10 499 -10 q 174 61 258 -10 q 89 269 89 132 q 97 357 89 311 l 206 968 l 332 968 m 379 1044 q 444 1153 400 1115 q 543 1190 488 1190 q 586 1182 569 1190 q 626 1156 603 1174 q 658 1134 643 1142 q 690 1126 672 1126 q 733 1142 714 1126 q 761 1186 751 1157 l 835 1186 q 769 1079 814 1117 q 669 1042 725 1042 q 624 1051 643 1042 q 583 1078 606 1060 q 552 1099 564 1092 q 522 1106 540 1106 q 481 1090 499 1106 q 453 1044 463 1075 l 379 1044 z "},"ũ":{"ha":889,"x_min":78,"x_max":846,"o":"m 846 761 l 711 0 l 585 0 l 604 111 q 488 21 558 53 q 340 -11 417 -11 q 149 53 221 -11 q 78 239 78 118 q 85 315 78 269 l 164 761 l 289 761 l 214 332 q 208 271 208 303 q 255 142 208 186 q 385 99 301 99 q 555 161 485 99 q 644 343 625 224 l 644 339 l 719 761 l 846 761 m 321 843 q 385 951 342 914 q 485 989 429 989 q 528 981 511 989 q 568 954 544 972 q 599 933 585 940 q 632 925 614 925 q 674 940 656 925 q 703 985 693 956 l 776 985 q 711 878 756 915 q 611 840 667 840 q 566 849 585 840 q 525 876 547 858 q 494 897 506 890 q 464 904 482 904 q 422 889 440 904 q 394 843 404 874 l 321 843 z "},"Ū":{"ha":938,"x_min":89,"x_max":935,"o":"m 332 968 l 224 357 q 217 289 217 315 q 269 149 217 194 q 417 103 322 103 q 603 166 529 103 q 700 357 676 229 l 808 968 l 935 968 l 826 357 q 742 153 806 236 q 589 31 679 71 q 396 -10 499 -10 q 174 61 258 -10 q 89 269 89 132 q 97 357 89 311 l 206 968 l 332 968 m 853 1186 l 836 1092 l 347 1092 l 364 1186 l 853 1186 z "},"ū":{"ha":889,"x_min":78,"x_max":846,"o":"m 846 761 l 711 0 l 585 0 l 604 111 q 488 21 558 53 q 340 -11 417 -11 q 149 53 221 -11 q 78 239 78 118 q 85 315 78 269 l 164 761 l 289 761 l 214 332 q 208 271 208 303 q 255 142 208 186 q 385 99 301 99 q 555 161 485 99 q 644 343 625 224 l 644 339 l 719 761 l 846 761 m 793 985 l 776 890 l 288 890 l 304 985 l 793 985 z "},"Ŭ":{"ha":938,"x_min":89,"x_max":935,"o":"m 332 968 l 224 357 q 217 289 217 315 q 269 149 217 194 q 417 103 322 103 q 603 166 529 103 q 700 357 676 229 l 808 968 l 935 968 l 826 357 q 742 153 806 236 q 589 31 679 71 q 396 -10 499 -10 q 174 61 258 -10 q 89 269 89 132 q 97 357 89 311 l 206 968 l 332 968 m 814 1229 q 739 1099 800 1150 q 585 1049 678 1049 q 459 1089 503 1049 q 415 1196 415 1129 q 418 1231 415 1206 l 422 1254 l 497 1254 q 494 1228 494 1235 q 601 1149 494 1149 q 699 1176 665 1149 q 743 1254 733 1203 l 818 1254 l 814 1229 z "},"ŭ":{"ha":889,"x_min":78,"x_max":846,"o":"m 846 761 l 711 0 l 585 0 l 604 111 q 488 21 558 53 q 340 -11 417 -11 q 149 53 221 -11 q 78 239 78 118 q 85 315 78 269 l 164 761 l 289 761 l 214 332 q 208 271 208 303 q 255 142 208 186 q 385 99 301 99 q 555 161 485 99 q 644 343 625 224 l 644 339 l 719 761 l 846 761 m 754 1028 q 679 898 740 949 q 525 847 618 847 q 399 888 443 847 q 356 994 356 928 q 358 1029 356 1004 l 363 1053 l 438 1053 q 435 1026 435 1033 q 542 947 435 947 q 640 974 606 947 q 683 1053 674 1001 l 758 1053 l 754 1028 z "},"Ů":{"ha":938,"x_min":89,"x_max":935,"o":"m 332 968 l 224 357 q 217 289 217 315 q 269 149 217 194 q 417 103 322 103 q 603 166 529 103 q 700 357 676 229 l 808 968 l 935 968 l 826 357 q 742 153 806 236 q 589 31 679 71 q 396 -10 499 -10 q 174 61 258 -10 q 89 269 89 132 q 97 357 89 311 l 206 968 l 332 968 m 463 1190 q 524 1297 475 1257 q 633 1336 572 1336 q 722 1305 689 1336 q 756 1221 756 1274 q 753 1190 756 1213 q 692 1084 740 1124 q 582 1044 644 1044 q 494 1076 528 1044 q 460 1161 460 1108 q 463 1190 460 1171 m 688 1207 q 669 1253 688 1236 q 621 1269 650 1269 q 557 1243 585 1269 q 529 1176 529 1217 q 547 1130 529 1147 q 593 1113 565 1113 q 659 1140 631 1113 q 688 1207 688 1167 z "},"ů":{"ha":889,"x_min":78,"x_max":846,"o":"m 846 761 l 711 0 l 585 0 l 604 111 q 488 21 558 53 q 340 -11 417 -11 q 149 53 221 -11 q 78 239 78 118 q 85 315 78 269 l 164 761 l 289 761 l 214 332 q 208 271 208 303 q 255 142 208 186 q 385 99 301 99 q 555 161 485 99 q 644 343 625 224 l 644 339 l 719 761 l 846 761 m 404 989 q 465 1095 417 1056 q 575 1135 514 1135 q 664 1103 631 1135 q 697 1019 697 1072 q 694 989 697 1011 q 634 883 682 922 q 524 843 586 843 q 435 875 469 843 q 401 960 401 907 q 404 989 401 969 m 629 1006 q 610 1051 629 1035 q 563 1068 592 1068 q 499 1042 526 1068 q 471 975 471 1015 q 489 928 471 946 q 535 911 507 911 q 601 938 572 911 q 629 1006 629 965 z "},"Ű":{"ha":938,"x_min":89,"x_max":935,"o":"m 332 968 l 224 357 q 217 289 217 315 q 269 149 217 194 q 417 103 322 103 q 603 166 529 103 q 700 357 676 229 l 808 968 l 935 968 l 826 357 q 742 153 806 236 q 589 31 679 71 q 396 -10 499 -10 q 174 61 258 -10 q 89 269 89 132 q 97 357 89 311 l 206 968 l 332 968 m 507 1036 l 422 1036 l 553 1250 l 665 1250 l 507 1036 m 717 1036 l 632 1036 l 781 1250 l 890 1250 l 717 1036 z "},"ű":{"ha":889,"x_min":78,"x_max":846,"o":"m 846 761 l 711 0 l 585 0 l 604 111 q 488 21 558 53 q 340 -11 417 -11 q 149 53 221 -11 q 78 239 78 118 q 85 315 78 269 l 164 761 l 289 761 l 214 332 q 208 271 208 303 q 255 142 208 186 q 385 99 301 99 q 555 161 485 99 q 644 343 625 224 l 644 339 l 719 761 l 846 761 m 447 835 l 363 835 l 493 1049 l 606 1049 l 447 835 m 657 835 l 572 835 l 721 1049 l 831 1049 l 657 835 z "},"Ų":{"ha":938,"x_min":89,"x_max":935,"o":"m 935 968 l 826 357 q 711 117 800 207 q 496 0 622 26 l 414 -37 q 313 -135 324 -78 q 311 -147 311 -139 q 330 -187 311 -174 q 382 -201 349 -201 q 476 -183 422 -201 l 463 -267 q 351 -286 401 -286 q 247 -259 289 -286 q 204 -175 204 -232 q 232 -85 204 -126 q 322 -4 260 -43 q 152 83 215 14 q 89 269 89 151 q 97 357 89 311 l 206 968 l 332 968 l 224 357 q 217 289 217 315 q 269 149 217 194 q 417 103 322 103 q 603 166 529 103 q 700 357 676 229 l 808 968 l 935 968 z "},"ų":{"ha":889,"x_min":78,"x_max":846,"o":"m 711 0 l 711 -1 l 629 -39 q 528 -136 539 -79 q 526 -149 526 -140 q 545 -189 526 -175 q 597 -203 564 -203 q 692 -185 638 -203 l 678 -268 q 567 -287 617 -287 q 462 -260 504 -287 q 419 -176 419 -233 q 459 -69 419 -118 q 589 22 499 -19 l 604 111 q 488 21 558 53 q 340 -11 417 -11 q 149 53 221 -11 q 78 239 78 118 q 85 315 78 269 l 164 761 l 289 761 l 214 332 q 208 271 208 303 q 255 142 208 186 q 385 99 301 99 q 555 161 485 99 q 644 343 625 224 l 644 339 l 719 761 l 846 761 l 711 0 z "},"Ŵ":{"ha":1356,"x_min":132,"x_max":1424,"o":"m 1424 968 l 972 0 l 831 0 l 743 779 l 374 0 l 232 -1 l 132 968 l 268 968 l 335 150 l 711 968 l 854 968 l 932 153 l 1288 968 l 1424 968 m 771 1167 l 558 1049 l 575 1149 l 789 1264 l 960 1149 l 942 1049 l 771 1167 z "},"ŵ":{"ha":1139,"x_min":81,"x_max":1185,"o":"m 1185 761 l 813 0 l 682 0 l 607 606 l 315 0 l 185 0 l 81 761 l 210 761 l 272 122 l 572 761 l 703 761 l 775 126 l 1060 761 l 1185 761 m 668 954 l 456 836 l 472 936 l 686 1051 l 857 936 l 839 836 l 668 954 z "},"Ŷ":{"ha":811,"x_min":126,"x_max":886,"o":"m 886 968 l 464 365 l 399 0 l 272 0 l 338 365 l 126 968 l 268 968 l 419 481 l 743 968 l 886 968 m 540 1156 l 328 1038 l 344 1138 l 558 1253 l 729 1138 l 711 1038 l 540 1156 z "},"ŷ":{"ha":782,"x_min":39,"x_max":826,"o":"m 221 761 l 350 147 l 696 761 l 826 761 l 171 -358 l 39 -358 l 254 8 l 81 761 l 221 761 m 489 954 l 276 836 l 293 936 l 507 1051 l 678 936 l 660 836 l 489 954 z "},"Ÿ":{"ha":811,"x_min":126,"x_max":886,"o":"m 886 968 l 464 365 l 399 0 l 272 0 l 338 365 l 126 968 l 268 968 l 419 481 l 743 968 l 886 968 m 413 1065 q 367 1082 385 1065 q 350 1125 350 1099 q 376 1185 350 1160 q 438 1211 403 1211 q 481 1194 464 1211 q 499 1151 499 1176 q 472 1091 499 1117 q 413 1065 446 1065 m 639 1065 q 594 1082 611 1065 q 576 1125 576 1099 q 603 1185 576 1160 q 664 1211 629 1211 q 708 1194 690 1211 q 725 1151 725 1176 q 699 1091 725 1117 q 639 1065 672 1065 z "},"Ź":{"ha":751,"x_min":-7,"x_max":783,"o":"m 163 110 l 636 110 l 615 0 l -7 0 l 11 100 l 614 858 l 149 858 l 169 968 l 783 968 l 765 868 l 163 110 m 650 1178 l 325 1019 l 342 1114 l 669 1288 l 650 1178 z "},"ź":{"ha":632,"x_min":-14,"x_max":635,"o":"m 150 104 l 524 104 l 504 0 l -14 0 l 4 104 l 472 658 l 106 658 l 124 761 l 635 761 l 617 658 l 150 104 m 556 976 l 231 818 l 247 913 l 575 1086 l 556 976 z "},"Ż":{"ha":751,"x_min":-7,"x_max":783,"o":"m 163 110 l 636 110 l 615 0 l -7 0 l 11 100 l 614 858 l 149 858 l 169 968 l 783 968 l 765 868 l 163 110 m 493 1057 q 448 1074 465 1057 q 431 1117 431 1090 q 458 1176 431 1150 q 518 1203 485 1203 q 562 1185 544 1203 q 579 1143 579 1168 q 553 1083 579 1108 q 493 1057 526 1057 z "},"ż":{"ha":632,"x_min":-14,"x_max":635,"o":"m 150 104 l 524 104 l 504 0 l -14 0 l 4 104 l 472 658 l 106 658 l 124 761 l 635 761 l 617 658 l 150 104 m 399 857 q 353 874 371 857 q 336 917 336 890 q 363 976 336 950 q 424 1003 390 1003 q 467 985 450 1003 q 485 943 485 968 q 458 883 485 908 q 399 857 432 857 z "},"Ž":{"ha":751,"x_min":-7,"x_max":783,"o":"m 163 110 l 636 110 l 615 0 l -7 0 l 11 100 l 614 858 l 149 858 l 169 968 l 783 968 l 765 868 l 163 110 m 701 1151 l 489 1036 l 317 1151 l 335 1251 l 507 1133 l 719 1251 l 701 1151 z "},"ž":{"ha":632,"x_min":-14,"x_max":635,"o":"m 150 104 l 524 104 l 504 0 l -14 0 l 4 104 l 472 658 l 106 658 l 124 761 l 635 761 l 617 658 l 150 104 m 607 950 l 394 835 l 222 950 l 240 1050 l 413 932 l 625 1050 l 607 950 z "},"Ə":{"ha":1035,"x_min":58,"x_max":1001,"o":"m 613 979 q 816 931 728 979 q 953 795 904 882 q 1001 596 1001 708 q 930 294 1001 433 q 730 73 858 156 q 439 -10 601 -10 q 242 34 328 -10 q 107 160 156 78 q 58 353 58 242 q 88 532 58 432 l 860 532 l 860 533 q 864 589 864 563 q 790 790 864 715 q 593 865 717 865 q 397 813 486 865 q 261 667 308 760 l 115 667 q 315 895 183 811 q 613 979 447 979 m 454 104 q 628 143 547 104 q 764 252 708 182 q 840 414 819 322 l 194 414 q 188 346 188 375 q 260 168 188 232 q 454 104 332 104 z "},"ƒ":{"ha":461,"x_min":-186,"x_max":568,"o":"m 539 960 q 415 929 458 960 q 351 826 371 899 l 333 761 l 493 761 l 465 658 l 304 658 l 96 -79 q 6 -228 67 -182 q -153 -274 -54 -274 l -186 -274 l -156 -169 l -131 -169 q -67 -149 -90 -169 q -31 -79 -44 -129 l 178 658 l 79 658 l 107 761 l 207 761 l 225 826 q 344 1008 261 951 q 568 1065 426 1065 l 539 960 z "},"Ǽ":{"ha":1250,"x_min":-56,"x_max":1265,"o":"m 854 869 l 796 538 l 1147 538 l 1131 440 l 779 440 l 719 100 l 1111 100 l 1093 0 l 575 0 l 613 215 l 243 215 l 83 0 l -56 0 l 665 969 l 1265 969 l 1247 869 l 854 869 m 729 874 l 315 314 l 631 314 l 729 874 m 1015 1186 l 690 1028 l 707 1122 l 1035 1296 l 1015 1186 z "},"ǽ":{"ha":1528,"x_min":47,"x_max":1475,"o":"m 1175 774 q 1336 736 1268 774 q 1440 633 1404 699 q 1475 483 1475 567 q 1468 413 1475 454 q 1449 338 1460 372 l 822 338 q 821 310 821 328 q 883 151 821 207 q 1035 94 946 94 q 1188 133 1124 94 q 1283 235 1253 171 l 1419 235 q 1269 56 1371 125 q 1036 -12 1168 -12 q 874 31 943 -12 q 779 147 804 74 l 754 0 l 635 0 l 661 146 q 525 31 607 75 q 349 -12 443 -12 q 192 26 260 -12 q 85 135 124 64 q 47 299 47 206 q 56 383 47 340 q 140 588 76 500 q 295 725 203 676 q 493 774 388 774 q 651 734 588 774 q 744 621 715 694 l 769 761 l 888 761 l 864 621 q 1175 774 983 774 m 1340 429 q 1344 479 1344 457 q 1286 617 1344 568 q 1136 667 1228 667 q 953 603 1036 667 q 839 429 869 539 l 1340 429 m 701 382 q 707 444 707 411 q 647 605 707 546 q 493 664 586 664 q 358 631 422 664 q 247 533 293 597 q 186 383 201 469 q 181 319 181 354 q 240 158 181 217 q 393 99 300 99 q 528 133 464 99 q 640 231 593 167 q 701 382 686 296 m 1104 976 l 779 818 l 796 913 l 1124 1086 l 1104 976 z "},"Ș":{"ha":815,"x_min":64,"x_max":761,"o":"m 367 -10 q 148 55 232 -10 q 64 228 64 119 q 65 258 64 249 l 190 258 q 232 142 186 190 q 372 93 278 93 q 522 136 467 93 q 578 257 578 179 q 551 337 578 304 q 484 391 524 369 q 376 439 444 413 q 242 501 293 472 q 157 581 192 531 q 125 707 122 631 q 168 850 125 788 q 287 947 211 913 q 460 981 363 981 q 623 949 554 981 q 726 860 692 917 q 757 732 761 803 l 625 732 q 609 801 628 768 q 551 856 590 835 q 453 876 511 876 q 308 834 363 876 q 253 718 253 792 q 278 644 253 675 q 343 591 304 613 q 450 540 382 569 q 584 476 532 506 q 672 396 636 446 q 708 271 708 346 q 667 127 708 190 q 547 27 625 64 q 367 -10 469 -10 m 393 -68 q 394 -108 394 -82 q 389 -183 394 -151 q 221 -343 361 -343 l 231 -285 q 285 -265 265 -285 q 311 -207 304 -246 l 314 -182 l 249 -182 l 268 -68 l 393 -68 z "},"ș":{"ha":725,"x_min":32,"x_max":657,"o":"m 304 -12 q 108 44 185 -12 q 32 197 32 101 q 33 224 32 215 l 157 224 q 192 126 151 164 q 311 89 233 89 q 437 119 389 89 q 485 203 485 149 q 446 275 485 249 q 326 332 407 301 q 210 382 256 358 q 132 448 164 406 q 100 556 100 490 q 137 669 100 619 q 240 747 174 719 q 390 774 306 774 q 582 715 507 774 q 657 563 657 657 q 656 535 657 544 l 535 535 l 536 551 q 494 640 536 607 q 382 672 451 672 q 270 642 314 672 q 226 560 226 611 q 267 483 226 511 q 392 422 307 456 q 506 372 463 394 q 579 308 549 349 q 610 207 610 268 q 570 90 610 140 q 461 14 531 40 q 304 -12 392 -12 m 347 -68 q 349 -108 349 -82 q 343 -183 349 -151 q 174 -343 313 -343 l 185 -285 q 264 -207 249 -285 l 267 -182 l 201 -182 l 221 -68 l 347 -68 z "},"Ț":{"ha":751,"x_min":131,"x_max":803,"o":"m 803 968 l 785 869 l 521 869 l 368 0 l 242 0 l 394 869 l 131 869 l 149 968 l 803 968 m 353 -68 q 354 -101 354 -79 q 347 -183 354 -142 q 290 -304 332 -265 q 179 -343 249 -343 l 190 -285 q 269 -207 254 -285 l 272 -182 l 207 -182 l 226 -68 l 353 -68 z "},"ț":{"ha":506,"x_min":68,"x_max":524,"o":"m 228 208 q 224 172 224 188 q 245 122 224 138 q 315 107 267 107 l 408 107 l 389 0 l 275 0 q 140 35 185 0 q 94 149 94 69 q 100 208 94 179 l 179 657 l 82 657 l 100 761 l 199 761 l 232 953 l 360 953 l 326 761 l 524 761 l 506 657 l 307 657 l 228 208 m 242 -68 q 243 -108 243 -82 q 238 -183 243 -151 q 68 -343 207 -343 l 79 -285 q 158 -207 143 -285 l 163 -182 l 96 -182 l 117 -68 l 242 -68 z "},"ə":{"ha":861,"x_min":50,"x_max":814,"o":"m 497 774 q 727 691 640 774 q 814 465 814 608 q 806 379 814 425 q 721 172 785 261 q 563 35 657 83 q 360 -12 469 -12 q 194 24 264 -12 q 87 127 124 61 q 50 278 50 193 q 57 349 50 307 q 75 424 63 385 l 683 424 q 686 464 686 451 q 628 613 686 560 q 478 667 571 667 q 334 628 396 667 q 240 526 272 590 l 104 526 q 258 705 154 636 q 497 774 361 774 m 383 94 q 560 158 481 94 q 667 332 639 221 l 185 332 q 181 281 181 306 q 237 143 181 192 q 383 94 293 94 z "},"ʼ":{"ha":304,"x_min":110,"x_max":389,"o":"m 247 968 l 389 968 l 200 653 l 110 653 l 247 968 z "},"ˆ":{"ha":432,"x_min":101,"x_max":503,"o":"m 314 954 l 101 836 l 118 936 l 332 1051 l 503 936 l 485 836 l 314 954 z "},"ˇ":{"ha":432,"x_min":121,"x_max":524,"o":"m 506 950 l 293 835 l 121 950 l 139 1050 l 311 932 l 524 1050 l 506 950 z "},"ˉ":{"ha":538,"x_min":111,"x_max":617,"o":"m 617 985 l 600 890 l 111 890 l 128 985 l 617 985 z "},"˘":{"ha":444,"x_min":132,"x_max":535,"o":"m 531 1028 q 456 898 517 949 q 301 847 394 847 q 176 888 219 847 q 132 994 132 928 q 135 1029 132 1004 l 139 1053 l 214 1053 q 211 1026 211 1033 q 318 947 211 947 q 416 974 382 947 q 460 1053 450 1001 l 535 1053 l 531 1028 z "},"˙":{"ha":199,"x_min":119,"x_max":268,"o":"m 182 864 q 137 881 154 864 q 119 924 119 897 q 147 983 119 957 q 207 1010 174 1010 q 251 992 233 1010 q 268 950 268 975 q 242 890 268 915 q 182 864 215 864 z "},"˚":{"ha":338,"x_min":125,"x_max":421,"o":"m 128 989 q 189 1095 140 1056 q 299 1135 238 1135 q 388 1103 354 1135 q 421 1019 421 1072 q 418 989 421 1011 q 358 883 406 922 q 247 843 310 843 q 159 875 193 843 q 125 960 125 907 q 128 989 125 969 m 353 1006 q 334 1051 353 1035 q 286 1068 315 1068 q 222 1042 250 1068 q 194 975 194 1015 q 213 928 194 946 q 258 911 231 911 q 324 938 296 911 q 353 1006 353 965 z "},"˛":{"ha":335,"x_min":-71,"x_max":221,"o":"m 221 0 l 139 -37 q 38 -135 49 -78 q 36 -147 36 -139 q 55 -187 36 -174 q 107 -201 74 -201 q 201 -183 147 -201 l 188 -267 q 76 -286 126 -286 q -28 -259 14 -286 q -71 -175 -71 -232 q -25 -61 -71 -114 q 125 36 21 -8 l 199 67 l 221 0 z "},"˜":{"ha":479,"x_min":103,"x_max":558,"o":"m 103 843 q 167 951 124 914 q 267 989 211 989 q 310 981 293 989 q 350 954 326 972 q 381 933 367 940 q 414 925 396 925 q 456 940 438 925 q 485 985 475 956 l 558 985 q 493 878 538 915 q 393 840 449 840 q 348 849 367 840 q 307 876 329 858 q 276 897 288 890 q 246 904 264 904 q 204 889 222 904 q 176 843 186 874 l 103 843 z "},"˝":{"ha":478,"x_min":100,"x_max":568,"o":"m 185 835 l 100 835 l 231 1049 l 343 1049 l 185 835 m 394 835 l 310 835 l 458 1049 l 568 1049 l 394 835 z "},"π":{"ha":986,"x_min":93,"x_max":989,"o":"m 989 761 l 972 663 l 863 663 l 744 0 l 619 0 l 736 663 l 336 663 l 219 0 l 93 0 l 210 663 l 101 663 l 118 761 l 989 761 z "},"Ẁ":{"ha":1356,"x_min":132,"x_max":1424,"o":"m 1424 968 l 972 0 l 831 0 l 743 779 l 374 0 l 232 -1 l 132 968 l 268 968 l 335 150 l 711 968 l 854 968 l 932 153 l 1288 968 l 1424 968 m 840 1121 l 824 1026 l 557 1185 l 576 1294 l 840 1121 z "},"ẁ":{"ha":1139,"x_min":81,"x_max":1185,"o":"m 1185 761 l 813 0 l 682 0 l 607 606 l 315 0 l 185 0 l 81 761 l 210 761 l 272 122 l 572 761 l 703 761 l 775 126 l 1060 761 l 1185 761 m 722 913 l 706 818 l 439 976 l 458 1086 l 722 913 z "},"Ẃ":{"ha":1356,"x_min":132,"x_max":1424,"o":"m 1424 968 l 972 0 l 831 0 l 743 779 l 374 0 l 232 -1 l 132 968 l 268 968 l 335 150 l 711 968 l 854 968 l 932 153 l 1288 968 l 1424 968 m 1013 1189 l 688 1031 l 704 1125 l 1032 1299 l 1013 1189 z "},"ẃ":{"ha":1139,"x_min":81,"x_max":1185,"o":"m 1185 761 l 813 0 l 682 0 l 607 606 l 315 0 l 185 0 l 81 761 l 210 761 l 272 122 l 572 761 l 703 761 l 775 126 l 1060 761 l 1185 761 m 907 976 l 582 818 l 599 913 l 926 1086 l 907 976 z "},"Ẅ":{"ha":1356,"x_min":132,"x_max":1424,"o":"m 1424 968 l 972 0 l 831 0 l 743 779 l 374 0 l 232 -1 l 132 968 l 268 968 l 335 150 l 711 968 l 854 968 l 932 153 l 1288 968 l 1424 968 m 643 1074 q 598 1090 615 1074 q 581 1133 581 1107 q 607 1194 581 1168 q 668 1219 633 1219 q 712 1202 694 1219 q 729 1160 729 1185 q 703 1099 729 1125 q 643 1074 676 1074 m 869 1074 q 824 1090 842 1074 q 807 1133 807 1107 q 833 1194 807 1168 q 894 1219 860 1219 q 938 1202 921 1219 q 956 1160 956 1185 q 929 1099 956 1125 q 869 1074 903 1074 z "},"ẅ":{"ha":1139,"x_min":81,"x_max":1185,"o":"m 1185 761 l 813 0 l 682 0 l 607 606 l 315 0 l 185 0 l 81 761 l 210 761 l 272 122 l 572 761 l 703 761 l 775 126 l 1060 761 l 1185 761 m 539 864 q 494 881 511 864 q 476 924 476 897 q 503 984 476 958 q 564 1010 529 1010 q 608 992 590 1010 q 625 950 625 975 q 599 890 625 915 q 539 864 572 864 m 765 864 q 720 881 738 864 q 703 924 703 897 q 729 984 703 958 q 790 1010 756 1010 q 834 992 817 1010 q 851 950 851 975 q 825 890 851 915 q 765 864 799 864 z "},"Ẽ":{"ha":713,"x_min":36,"x_max":728,"o":"m 317 869 l 258 538 l 610 538 l 593 440 l 242 440 l 181 100 l 575 100 l 557 0 l 36 0 l 208 969 l 728 969 l 710 869 l 317 869 m 265 1044 q 330 1153 286 1115 q 429 1190 374 1190 q 472 1182 456 1190 q 513 1156 489 1174 q 544 1134 529 1142 q 576 1126 558 1126 q 619 1142 600 1126 q 647 1186 638 1157 l 721 1186 q 656 1079 700 1117 q 556 1042 611 1042 q 510 1051 529 1042 q 469 1078 492 1060 q 438 1099 450 1092 q 408 1106 426 1106 q 367 1090 385 1106 q 339 1044 349 1075 l 265 1044 z "},"ẽ":{"ha":861,"x_min":47,"x_max":811,"o":"m 501 774 q 667 737 597 774 q 774 634 738 700 q 811 483 811 568 q 804 413 811 454 q 786 338 799 376 l 178 338 q 175 297 175 310 q 233 148 175 201 q 383 94 290 94 q 527 133 465 94 q 621 235 589 171 l 757 235 q 603 56 707 125 q 364 -12 500 -12 q 134 70 221 -12 q 47 296 47 153 q 56 382 47 336 q 140 589 76 500 q 298 726 204 678 q 501 774 392 774 m 676 429 q 681 481 681 457 q 624 618 681 569 q 478 667 568 667 q 301 603 381 667 q 194 429 222 540 l 676 429 m 306 843 q 370 951 326 914 q 469 989 414 989 q 513 981 496 989 q 553 954 529 972 q 584 933 569 940 q 617 925 599 925 q 659 940 640 925 q 688 985 678 956 l 761 985 q 696 878 740 915 q 596 840 651 840 q 551 849 569 840 q 510 876 532 858 q 478 897 490 890 q 449 904 467 904 q 407 889 425 904 q 379 843 389 874 l 306 843 z "},"Ỳ":{"ha":811,"x_min":126,"x_max":886,"o":"m 886 968 l 464 365 l 399 0 l 272 0 l 338 365 l 126 968 l 268 968 l 419 481 l 743 968 l 886 968 m 668 1114 l 651 1019 l 385 1178 l 404 1288 l 668 1114 z "},"ỳ":{"ha":782,"x_min":39,"x_max":826,"o":"m 221 761 l 350 147 l 696 761 l 826 761 l 171 -358 l 39 -358 l 254 8 l 81 761 l 221 761 m 617 913 l 600 818 l 333 976 l 353 1086 l 617 913 z "},"Ỹ":{"ha":811,"x_min":126,"x_max":886,"o":"m 886 968 l 464 365 l 399 0 l 272 0 l 338 365 l 126 968 l 268 968 l 419 481 l 743 968 l 886 968 m 317 1044 q 381 1153 338 1115 q 481 1190 425 1190 q 524 1182 507 1190 q 564 1156 540 1174 q 595 1134 581 1142 q 628 1126 610 1126 q 670 1142 651 1126 q 699 1186 689 1157 l 772 1186 q 707 1079 751 1117 q 607 1042 663 1042 q 562 1051 581 1042 q 521 1078 543 1060 q 490 1099 501 1092 q 460 1106 478 1106 q 418 1090 436 1106 q 390 1044 400 1075 l 317 1044 z "},"ỹ":{"ha":782,"x_min":39,"x_max":826,"o":"m 221 761 l 350 147 l 696 761 l 826 761 l 171 -358 l 39 -358 l 254 8 l 81 761 l 221 761 m 267 843 q 331 951 288 914 q 431 989 375 989 q 474 981 457 989 q 514 954 490 972 q 545 933 531 940 q 578 925 560 925 q 620 940 601 925 q 649 985 639 956 l 722 985 q 657 878 701 915 q 557 840 613 840 q 512 849 531 840 q 471 876 493 858 q 440 897 451 890 q 410 904 428 904 q 368 889 386 904 q 340 843 350 874 l 267 843 z "},"–":{"ha":940,"x_min":115,"x_max":865,"o":"m 865 563 l 847 456 l 115 456 l 135 563 l 865 563 z "},"—":{"ha":1229,"x_min":115,"x_max":1153,"o":"m 1153 563 l 1135 456 l 115 456 l 135 563 l 1153 563 z "},"‘":{"ha":304,"x_min":64,"x_max":343,"o":"m 206 653 l 64 653 l 253 968 l 343 968 l 206 653 z "},"’":{"ha":304,"x_min":110,"x_max":389,"o":"m 247 968 l 389 968 l 200 653 l 110 653 l 247 968 z "},"‚":{"ha":260,"x_min":-99,"x_max":181,"o":"m 39 171 l 181 171 l -8 -143 l -99 -143 l 39 171 z "},"“":{"ha":529,"x_min":64,"x_max":569,"o":"m 206 653 l 64 653 l 253 968 l 343 968 l 206 653 m 431 653 l 290 653 l 479 968 l 569 968 l 431 653 z "},"”":{"ha":529,"x_min":110,"x_max":615,"o":"m 247 968 l 389 968 l 200 653 l 110 653 l 247 968 m 474 968 l 615 968 l 426 653 l 336 653 l 474 968 z "},"„":{"ha":500,"x_min":-99,"x_max":419,"o":"m 39 171 l 181 171 l -8 -143 l -99 -143 l 39 171 m 279 171 l 419 171 l 231 -143 l 140 -143 l 279 171 z "},"†":{"ha":758,"x_min":108,"x_max":760,"o":"m 743 661 l 478 672 l 308 -361 l 182 -361 l 378 672 l 108 661 l 125 761 l 392 750 l 438 1085 l 563 1085 l 492 750 l 760 761 l 743 661 z "},"‡":{"ha":760,"x_min":-14,"x_max":761,"o":"m 478 672 l 368 51 l 639 64 l 619 -37 l 354 -26 l 308 -361 l 182 -361 l 254 -26 l -14 -37 l 4 64 l 268 51 l 379 672 l 110 661 l 126 761 l 392 750 l 438 1085 l 563 1085 l 492 750 l 761 761 l 743 661 l 478 672 z "},"•":{"ha":572,"x_min":124,"x_max":471,"o":"m 265 293 q 163 333 203 293 q 124 432 124 372 q 152 531 124 485 q 228 606 181 578 q 326 633 275 633 q 431 594 390 633 q 471 493 471 554 q 442 394 471 440 q 366 320 414 347 q 265 293 318 293 z "},"…":{"ha":807,"x_min":3,"x_max":697,"o":"m 335 -8 q 283 11 303 -8 q 263 63 263 31 q 293 134 263 104 q 365 164 324 164 q 417 144 397 164 q 436 93 436 125 q 406 22 436 51 q 335 -8 375 -8 m 596 -8 q 544 11 564 -8 q 524 63 524 31 q 554 134 524 104 q 626 164 585 164 q 678 144 658 164 q 697 93 697 125 q 667 22 697 51 q 596 -8 636 -8 m 75 -8 q 23 11 43 -8 q 3 63 3 31 q 33 134 3 104 q 106 164 64 164 q 157 144 138 164 q 176 93 176 125 q 146 22 176 51 q 75 -8 115 -8 z "},"‰":{"ha":1396,"x_min":53,"x_max":1307,"o":"m 124 778 q 207 926 140 871 q 363 982 274 982 q 487 939 440 982 q 533 821 533 896 q 529 778 533 801 q 445 628 513 685 q 290 572 378 572 q 166 615 213 572 q 119 733 119 658 q 124 778 119 756 m 913 969 l 179 0 l 53 0 l 788 969 l 913 969 m 349 904 q 267 872 300 904 q 224 778 233 839 q 219 740 219 757 q 242 674 219 697 q 304 651 264 651 q 385 684 351 651 q 429 778 418 717 q 432 813 432 790 q 410 881 432 857 q 349 904 388 904 m 440 192 q 524 342 457 286 q 679 397 590 397 q 802 354 756 397 q 849 236 849 311 q 844 192 849 215 q 761 42 828 99 q 607 -14 694 -14 q 483 29 529 -14 q 436 147 436 72 q 440 192 436 169 m 897 192 q 981 342 914 286 q 1136 397 1047 397 q 1260 354 1214 397 q 1307 236 1307 311 q 1303 192 1307 215 q 1219 42 1286 99 q 1064 -14 1153 -14 q 940 30 988 -14 q 893 149 893 74 q 897 192 893 169 m 664 318 q 583 286 617 318 q 539 192 550 254 q 535 156 535 171 q 558 90 535 113 q 619 67 581 67 q 700 99 667 67 q 744 192 733 131 q 747 228 747 204 q 725 295 747 272 q 664 318 703 318 m 1122 318 q 1041 286 1074 318 q 999 192 1008 254 q 994 153 994 171 q 1017 89 994 111 q 1078 67 1039 67 q 1158 99 1125 67 q 1203 192 1192 131 q 1206 228 1206 204 q 1183 295 1206 272 q 1122 318 1161 318 z "},"‹":{"ha":389,"x_min":64,"x_max":364,"o":"m 154 167 l 64 410 l 240 653 l 364 653 l 183 410 l 279 167 l 154 167 z "},"›":{"ha":389,"x_min":28,"x_max":328,"o":"m 208 410 l 114 653 l 238 653 l 328 410 l 151 167 l 28 167 l 208 410 z "},"⁄":{"ha":686,"x_min":-58,"x_max":803,"o":"m 803 969 l 68 0 l -58 0 l 676 969 l 803 969 z "},"€":{"ha":1126,"x_min":21,"x_max":1128,"o":"m 578 106 q 767 151 683 106 q 906 282 850 197 l 1057 282 q 847 67 978 143 q 558 -8 715 -8 q 364 33 450 -8 q 224 149 278 74 q 157 324 169 224 l 21 324 l 36 413 l 153 413 q 161 485 154 447 q 178 553 167 518 l 61 553 l 76 640 l 211 640 q 426 888 285 794 q 732 981 568 981 q 994 904 889 981 q 1128 688 1099 828 l 978 688 q 885 819 953 774 q 713 865 818 865 q 500 806 597 865 q 346 640 403 746 l 672 640 l 658 553 l 308 553 q 292 485 297 518 q 283 413 285 447 l 633 413 l 617 324 l 292 324 q 389 163 313 221 q 578 106 465 106 z "},"₺":{"ha":1153,"x_min":18,"x_max":1035,"o":"m 1035 579 q 833 124 981 274 q 424 -25 686 -25 q 190 6 319 -25 l 249 339 l 18 285 l 33 376 l 265 431 l 290 569 l 54 515 l 69 603 l 306 660 l 361 975 l 492 975 l 442 692 l 699 753 l 682 661 l 425 601 l 401 463 l 653 521 l 636 429 l 385 371 l 338 104 q 444 94 382 94 q 753 217 642 94 q 906 579 864 339 l 1035 579 z "},"₽":{"ha":867,"x_min":10,"x_max":872,"o":"m 583 968 q 799 906 726 968 q 872 740 872 844 q 867 685 872 724 q 749 484 846 564 q 483 404 651 404 l 297 404 l 274 271 l 576 271 l 558 169 l 256 169 l 225 0 l 99 0 l 129 169 l 10 169 l 28 271 l 147 271 l 171 404 l 50 404 l 68 504 l 189 504 l 271 968 l 583 968 m 738 685 q 742 729 742 708 q 565 868 742 868 l 379 868 l 314 504 l 501 504 q 664 552 606 504 q 738 685 722 600 z "},"ℓ":{"ha":342,"x_min":36,"x_max":344,"o":"m 344 1028 l 163 0 l 36 0 l 218 1028 l 344 1028 z "},"™":{"ha":1085,"x_min":124,"x_max":1110,"o":"m 472 978 l 458 900 l 340 900 l 268 489 l 168 489 l 242 900 l 124 900 l 138 978 l 472 978 m 1110 978 l 1022 489 l 929 489 l 992 843 l 776 489 l 706 489 l 619 847 l 556 489 l 464 489 l 550 978 l 679 978 l 767 607 l 988 978 l 1110 978 z "},"Ω":{"ha":1093,"x_min":3,"x_max":1060,"o":"m 1051 486 q 960 260 1031 363 q 781 100 889 158 l 965 100 l 947 0 l 567 0 l 585 104 q 805 234 713 135 q 922 478 897 333 q 931 564 931 524 q 848 784 931 703 q 628 865 765 865 q 433 817 524 865 q 281 681 343 769 q 199 478 219 593 q 192 397 192 443 q 249 207 192 283 q 404 104 306 131 l 385 0 l 3 0 l 21 100 l 206 100 q 100 223 136 147 q 64 392 64 299 q 72 486 64 439 q 182 741 97 628 q 390 917 267 854 q 649 981 514 981 q 862 931 768 981 q 1008 790 956 881 q 1060 582 1060 700 q 1051 486 1060 536 z "},"℮":{"ha":1057,"x_min":65,"x_max":1021,"o":"m 915 190 q 468 -10 694 -10 q 258 33 349 -10 q 116 159 167 76 q 65 357 65 242 q 75 460 65 410 q 176 721 101 604 q 367 905 251 838 q 628 972 483 972 q 843 923 754 972 q 976 790 932 874 q 1021 606 1021 707 q 1014 522 1021 557 l 999 438 l 258 438 l 218 204 q 325 107 263 139 q 483 75 388 75 q 674 119 585 75 q 869 251 764 163 l 915 190 m 857 771 q 760 858 822 828 q 614 889 699 889 q 451 856 528 889 q 315 756 374 822 l 275 526 l 815 526 l 857 771 z "},"∂":{"ha":794,"x_min":31,"x_max":783,"o":"m 39 310 q 128 539 60 432 q 292 710 196 646 q 494 775 389 775 q 601 746 561 775 q 653 650 640 717 q 660 743 660 703 q 619 897 660 842 q 493 951 579 951 q 379 935 444 951 l 392 1008 q 525 1028 460 1028 q 717 947 651 1028 q 783 715 783 865 q 771 572 783 650 q 661 263 740 396 q 475 58 582 131 q 254 -14 368 -14 q 92 46 153 -14 q 31 222 31 106 q 39 310 31 263 m 604 450 q 611 521 611 494 q 577 631 611 593 q 481 668 543 668 q 343 621 408 668 q 231 492 278 574 q 167 310 185 410 q 161 243 161 278 q 194 132 161 169 q 286 94 228 94 q 426 143 358 94 q 540 274 493 192 q 604 450 588 356 z "},"∆":{"ha":944,"x_min":-43,"x_max":864,"o":"m 624 963 l 864 99 l 846 0 l -43 0 l -25 99 l 519 963 l 624 963 m 104 99 l 735 99 l 546 818 l 104 99 z "},"∏":{"ha":1026,"x_min":93,"x_max":1072,"o":"m 1072 969 l 1054 869 l 943 869 l 790 0 l 665 0 l 818 869 l 372 869 l 219 0 l 93 0 l 246 869 l 138 869 l 156 969 l 1072 969 z "},"∑":{"ha":635,"x_min":-31,"x_max":696,"o":"m 679 864 l 244 864 l 547 490 l 531 392 l 92 11 l 528 11 l 510 -87 l -31 -87 l -4 60 l 424 438 l 129 817 l 154 963 l 696 963 l 679 864 z "},"−":{"ha":765,"x_min":115,"x_max":689,"o":"m 689 563 l 669 456 l 115 456 l 135 563 l 689 563 z "},"∕":{"ha":661,"x_min":-39,"x_max":739,"o":"m 739 1308 l 86 -236 l -39 -236 l 613 1308 l 739 1308 z "},"∙":{"ha":294,"x_min":7,"x_max":181,"o":"m 79 388 q 27 407 47 388 q 7 458 7 426 q 38 530 7 500 q 110 560 68 560 q 161 540 142 560 q 181 489 181 521 q 150 417 181 447 q 79 388 119 388 z "},"√":{"ha":1094,"x_min":3,"x_max":1217,"o":"m 1217 1207 l 311 -61 l 249 -61 l 129 244 l 29 192 l 3 257 l 219 374 l 329 94 l 1125 1207 l 1217 1207 z "}}}
